<ttFont>
    <TTGlyph name=".notdef" xMin="45" yMin="0" xMax="1019" yMax="1433">
      <contour>
        <pt x="250" y="1141" on="1"/>
        <pt x="275" y="1163" on="0"/>
        <pt x="332" y="1201" on="0"/>
        <pt x="400" y="1230" on="0"/>
        <pt x="479" y="1247" on="0"/>
        <pt x="525" y="1247" on="1"/>
        <pt x="588" y="1247" on="0"/>
        <pt x="691" y="1212" on="0"/>
        <pt x="764" y="1148" on="0"/>
        <pt x="805" y="1057" on="0"/>
        <pt x="805" y="1001" on="1"/>
        <pt x="805" y="946" on="0"/>
        <pt x="775" y="866" on="0"/>
        <pt x="730" y="807" on="0"/>
        <pt x="676" y="764" on="0"/>
        <pt x="628" y="726" on="0"/>
        <pt x="593" y="689" on="0"/>
        <pt x="589" y="666" on="1"/>
        <pt x="572" y="561" on="1"/>
        <pt x="450" y="561" on="1"/>
        <pt x="438" y="678" on="1"/>
        <pt x="434" y="712" on="0"/>
        <pt x="460" y="763" on="0"/>
        <pt x="505" y="806" on="0"/>
        <pt x="560" y="846" on="0"/>
        <pt x="608" y="892" on="0"/>
        <pt x="640" y="950" on="0"/>
        <pt x="640" y="990" on="1"/>
        <pt x="640" y="1041" on="0"/>
        <pt x="567" y="1101" on="0"/>
        <pt x="510" y="1101" on="1"/>
        <pt x="469" y="1101" on="0"/>
        <pt x="413" y="1083" on="0"/>
        <pt x="373" y="1061" on="0"/>
        <pt x="345" y="1043" on="0"/>
        <pt x="334" y="1043" on="1"/>
        <pt x="309" y="1043" on="0"/>
        <pt x="297" y="1065" on="1"/>
      </contour>
      <contour>
        <pt x="396" y="292" on="1"/>
        <pt x="396" y="339" on="0"/>
        <pt x="458" y="403" on="0"/>
        <pt x="506" y="403" on="1"/>
        <pt x="528" y="403" on="0"/>
        <pt x="568" y="386" on="0"/>
        <pt x="597" y="356" on="0"/>
        <pt x="614" y="315" on="0"/>
        <pt x="614" y="292" on="1"/>
        <pt x="614" y="269" on="0"/>
        <pt x="597" y="229" on="0"/>
        <pt x="568" y="199" on="0"/>
        <pt x="528" y="182" on="0"/>
        <pt x="506" y="182" on="1"/>
        <pt x="458" y="182" on="0"/>
        <pt x="396" y="245" on="0"/>
      </contour>
      <contour>
        <pt x="45" y="1433" on="1"/>
        <pt x="1019" y="1433" on="1"/>
        <pt x="1019" y="0" on="1"/>
        <pt x="45" y="0" on="1"/>
      </contour>
      <contour>
        <pt x="95" y="54" on="1"/>
        <pt x="962" y="54" on="1"/>
        <pt x="962" y="1378" on="1"/>
        <pt x="95" y="1378" on="1"/>
      </contour>
    </TTGlyph>
    <TTGlyph name="A" xMin="10" yMin="0" xMax="1353" yMax="1433">
      <contour>
        <pt x="1353" y="0" on="1"/>
        <pt x="1203" y="0" on="1"/>
        <pt x="1177" y="0" on="0"/>
        <pt x="1145" y="26" on="0"/>
        <pt x="1137" y="46" on="1"/>
        <pt x="1003" y="392" on="1"/>
        <pt x="360" y="392" on="1"/>
        <pt x="226" y="46" on="1"/>
        <pt x="219" y="28" on="0"/>
        <pt x="185" y="0" on="0"/>
        <pt x="160" y="0" on="1"/>
        <pt x="10" y="0" on="1"/>
        <pt x="583" y="1433" on="1"/>
        <pt x="780" y="1433" on="1"/>
      </contour>
      <contour>
        <pt x="414" y="532" on="1"/>
        <pt x="949" y="532" on="1"/>
        <pt x="724" y="1115" on="1"/>
        <pt x="702" y="1169" on="0"/>
        <pt x="681" y="1250" on="1"/>
        <pt x="670" y="1209" on="0"/>
        <pt x="649" y="1140" on="0"/>
        <pt x="639" y="1114" on="1"/>
      </contour>
    </TTGlyph>
    <TTGlyph name="AE" xMin="-24" yMin="0" xMax="1754" yMax="1433">
      <contour>
        <pt x="733" y="1433" on="1"/>
        <pt x="1754" y="1433" on="1"/>
        <pt x="1754" y="1275" on="1"/>
        <pt x="1005" y="1275" on="1"/>
        <pt x="1065" y="799" on="1"/>
        <pt x="1624" y="799" on="1"/>
        <pt x="1624" y="647" on="1"/>
        <pt x="1084" y="647" on="1"/>
        <pt x="1145" y="158" on="1"/>
        <pt x="1754" y="158" on="1"/>
        <pt x="1754" y="0" on="1"/>
        <pt x="982" y="0" on="1"/>
        <pt x="933" y="392" on="1"/>
        <pt x="377" y="392" on="1"/>
        <pt x="198" y="45" on="1"/>
        <pt x="187" y="25" on="0"/>
        <pt x="150" y="0" on="0"/>
        <pt x="124" y="0" on="1"/>
        <pt x="-24" y="0" on="1"/>
      </contour>
      <contour>
        <pt x="450" y="532" on="1"/>
        <pt x="915" y="532" on="1"/>
        <pt x="821" y="1285" on="1"/>
        <pt x="809" y="1244" on="0"/>
        <pt x="780" y="1175" on="0"/>
        <pt x="766" y="1144" on="1"/>
      </contour>
    </TTGlyph>
    <TTGlyph name="Aacute" xMin="10" yMin="0" xMax="1353" yMax="1782">
      <component glyphName="A" x="0" y="0" flags="0x204"/>
      <component glyphName="acute.case" x="363" y="0" flags="0x4"/>
    </TTGlyph>
    <TTGlyph name="Acircumflex" xMin="10" yMin="0" xMax="1353" yMax="1756">
      <component glyphName="A" x="0" y="0" flags="0x204"/>
      <component glyphName="circumflex.case" x="374" y="0" flags="0x4"/>
    </TTGlyph>
    <TTGlyph name="Adieresis" xMin="10" yMin="0" xMax="1353" yMax="1778">
      <component glyphName="A" x="0" y="0" flags="0x204"/>
      <component glyphName="dieresis.case" x="374" y="0" flags="0x4"/>
    </TTGlyph>
    <TTGlyph name="Agrave" xMin="10" yMin="0" xMax="1353" yMax="1782">
      <component glyphName="A" x="0" y="0" flags="0x204"/>
      <component glyphName="grave.case" x="363" y="0" flags="0x4"/>
    </TTGlyph>
    <TTGlyph name="Aogonek" xMin="10" yMin="-342" xMax="1426" yMax="1433">
      <contour>
        <pt x="1380" y="-211" on="1"/>
        <pt x="1387" y="-211" on="0"/>
        <pt x="1396" y="-219" on="0"/>
        <pt x="1398" y="-224" on="1"/>
        <pt x="1426" y="-290" on="1"/>
        <pt x="1396" y="-313" on="0"/>
        <pt x="1303" y="-342" on="0"/>
        <pt x="1252" y="-342" on="1"/>
        <pt x="1164" y="-342" on="0"/>
        <pt x="1063" y="-263" on="0"/>
        <pt x="1063" y="-197" on="1"/>
        <pt x="1063" y="-139" on="0"/>
        <pt x="1142" y="-38" on="0"/>
        <pt x="1202" y="0" on="1"/>
        <pt x="1177" y="0" on="0"/>
        <pt x="1145" y="26" on="0"/>
        <pt x="1137" y="46" on="1"/>
        <pt x="1003" y="392" on="1"/>
        <pt x="360" y="392" on="1"/>
        <pt x="226" y="46" on="1"/>
        <pt x="219" y="28" on="0"/>
        <pt x="185" y="0" on="0"/>
        <pt x="160" y="0" on="1"/>
        <pt x="10" y="0" on="1"/>
        <pt x="583" y="1433" on="1"/>
        <pt x="780" y="1433" on="1"/>
        <pt x="1353" y="0" on="1"/>
        <pt x="1316" y="0" on="1"/>
        <pt x="1296" y="-11" on="0"/>
        <pt x="1254" y="-42" on="0"/>
        <pt x="1220" y="-81" on="0"/>
        <pt x="1198" y="-128" on="0"/>
        <pt x="1198" y="-154" on="1"/>
        <pt x="1198" y="-192" on="0"/>
        <pt x="1247" y="-235" on="0"/>
        <pt x="1289" y="-235" on="1"/>
        <pt x="1312" y="-235" on="0"/>
        <pt x="1342" y="-228" on="0"/>
        <pt x="1362" y="-219" on="0"/>
        <pt x="1375" y="-211" on="0"/>
      </contour>
      <contour>
        <pt x="414" y="532" on="1"/>
        <pt x="949" y="532" on="1"/>
        <pt x="724" y="1115" on="1"/>
        <pt x="702" y="1169" on="0"/>
        <pt x="681" y="1250" on="1"/>
        <pt x="670" y="1209" on="0"/>
        <pt x="649" y="1140" on="0"/>
        <pt x="639" y="1114" on="1"/>
      </contour>
    </TTGlyph>
    <TTGlyph name="Aring" xMin="10" yMin="0" xMax="1353" yMax="1837">
      <component glyphName="A" x="0" y="0" flags="0x204"/>
      <component glyphName="ring.case" x="371" y="0" flags="0x4"/>
    </TTGlyph>
    <TTGlyph name="Atilde" xMin="10" yMin="0" xMax="1353" yMax="1746">
      <component glyphName="A" x="0" y="0" flags="0x204"/>
      <component glyphName="tilde.case" x="374" y="0" flags="0x4"/>
    </TTGlyph>
    <TTGlyph name="B" xMin="174" yMin="0" xMax="1184" yMax="1433">
      <contour>
        <pt x="174" y="0" on="1"/>
        <pt x="174" y="1433" on="1"/>
        <pt x="631" y="1433" on="1"/>
        <pt x="763" y="1433" on="0"/>
        <pt x="954" y="1381" on="0"/>
        <pt x="1077" y="1285" on="0"/>
        <pt x="1136" y="1146" on="0"/>
        <pt x="1136" y="1059" on="1"/>
        <pt x="1136" y="1006" on="0"/>
        <pt x="1103" y="908" on="0"/>
        <pt x="1036" y="824" on="0"/>
        <pt x="935" y="758" on="0"/>
        <pt x="867" y="737" on="1"/>
        <pt x="1024" y="706" on="0"/>
        <pt x="1184" y="542" on="0"/>
        <pt x="1184" y="408" on="1"/>
        <pt x="1184" y="317" on="0"/>
        <pt x="1117" y="167" on="0"/>
        <pt x="988" y="59" on="0"/>
        <pt x="801" y="0" on="0"/>
        <pt x="681" y="0" on="1"/>
      </contour>
      <contour>
        <pt x="368" y="653" on="1"/>
        <pt x="368" y="154" on="1"/>
        <pt x="678" y="154" on="1"/>
        <pt x="761" y="154" on="0"/>
        <pt x="880" y="192" on="0"/>
        <pt x="957" y="261" on="0"/>
        <pt x="993" y="356" on="0"/>
        <pt x="993" y="413" on="1"/>
        <pt x="993" y="524" on="0"/>
        <pt x="836" y="653" on="0"/>
        <pt x="677" y="653" on="1"/>
      </contour>
      <contour>
        <pt x="368" y="791" on="1"/>
        <pt x="624" y="791" on="1"/>
        <pt x="706" y="791" on="0"/>
        <pt x="826" y="827" on="0"/>
        <pt x="905" y="891" on="0"/>
        <pt x="943" y="982" on="0"/>
        <pt x="943" y="1036" on="1"/>
        <pt x="943" y="1162" on="0"/>
        <pt x="791" y="1280" on="0"/>
        <pt x="631" y="1280" on="1"/>
        <pt x="368" y="1280" on="1"/>
      </contour>
    </TTGlyph>
    <TTGlyph name="C" xMin="90" yMin="-16" xMax="1289" yMax="1449">
      <contour>
        <pt x="1184" y="296" on="1"/>
        <pt x="1200" y="296" on="0"/>
        <pt x="1213" y="283" on="1"/>
        <pt x="1289" y="200" on="1"/>
        <pt x="1201" y="98" on="0"/>
        <pt x="950" y="-16" on="0"/>
        <pt x="773" y="-16" on="1"/>
        <pt x="618" y="-16" on="0"/>
        <pt x="366" y="91" on="0"/>
        <pt x="188" y="284" on="0"/>
        <pt x="90" y="554" on="0"/>
        <pt x="90" y="716" on="1"/>
        <pt x="90" y="878" on="0"/>
        <pt x="195" y="1148" on="0"/>
        <pt x="385" y="1342" on="0"/>
        <pt x="650" y="1449" on="0"/>
        <pt x="810" y="1449" on="1"/>
        <pt x="968" y="1449" on="0"/>
        <pt x="1197" y="1351" on="0"/>
        <pt x="1286" y="1267" on="1"/>
        <pt x="1223" y="1178" on="1"/>
        <pt x="1216" y="1168" on="0"/>
        <pt x="1198" y="1155" on="0"/>
        <pt x="1181" y="1155" on="1"/>
        <pt x="1168" y="1155" on="0"/>
        <pt x="1139" y="1174" on="0"/>
        <pt x="1099" y="1202" on="0"/>
        <pt x="1045" y="1234" on="0"/>
        <pt x="971" y="1262" on="0"/>
        <pt x="873" y="1281" on="0"/>
        <pt x="809" y="1281" on="1"/>
        <pt x="694" y="1281" on="0"/>
        <pt x="503" y="1202" on="0"/>
        <pt x="365" y="1056" on="0"/>
        <pt x="288" y="846" on="0"/>
        <pt x="288" y="716" on="1"/>
        <pt x="288" y="582" on="0"/>
        <pt x="365" y="372" on="0"/>
        <pt x="498" y="227" on="0"/>
        <pt x="680" y="151" on="0"/>
        <pt x="785" y="151" on="1"/>
        <pt x="849" y="151" on="0"/>
        <pt x="951" y="166" on="0"/>
        <pt x="1038" y="198" on="0"/>
        <pt x="1113" y="247" on="0"/>
        <pt x="1151" y="281" on="1"/>
        <pt x="1168" y="296" on="0"/>
      </contour>
    </TTGlyph>
    <TTGlyph name="Cacute" xMin="90" yMin="-16" xMax="1289" yMax="1782">
      <component glyphName="C" x="0" y="0" flags="0x204"/>
      <component glyphName="acute.case" x="489" y="0" flags="0x4"/>
    </TTGlyph>
    <TTGlyph name="Ccedilla" xMin="90" yMin="-351" xMax="1289" yMax="1449">
      <contour>
        <pt x="643" y="-247" on="1"/>
        <pt x="649" y="-247" on="0"/>
        <pt x="665" y="-254" on="0"/>
        <pt x="687" y="-263" on="0"/>
        <pt x="719" y="-270" on="0"/>
        <pt x="740" y="-270" on="1"/>
        <pt x="782" y="-270" on="0"/>
        <pt x="825" y="-237" on="0"/>
        <pt x="825" y="-211" on="1"/>
        <pt x="825" y="-192" on="0"/>
        <pt x="803" y="-166" on="0"/>
        <pt x="762" y="-148" on="0"/>
        <pt x="702" y="-136" on="0"/>
        <pt x="664" y="-131" on="1"/>
        <pt x="700" y="-13" on="1"/>
        <pt x="561" y="-1" on="0"/>
        <pt x="335" y="116" on="0"/>
        <pt x="176" y="307" on="0"/>
        <pt x="90" y="563" on="0"/>
        <pt x="90" y="716" on="1"/>
        <pt x="90" y="878" on="0"/>
        <pt x="195" y="1148" on="0"/>
        <pt x="385" y="1342" on="0"/>
        <pt x="650" y="1449" on="0"/>
        <pt x="810" y="1449" on="1"/>
        <pt x="968" y="1449" on="0"/>
        <pt x="1197" y="1351" on="0"/>
        <pt x="1286" y="1267" on="1"/>
        <pt x="1223" y="1178" on="1"/>
        <pt x="1216" y="1168" on="0"/>
        <pt x="1198" y="1155" on="0"/>
        <pt x="1181" y="1155" on="1"/>
        <pt x="1168" y="1155" on="0"/>
        <pt x="1139" y="1174" on="0"/>
        <pt x="1099" y="1202" on="0"/>
        <pt x="1045" y="1234" on="0"/>
        <pt x="971" y="1262" on="0"/>
        <pt x="873" y="1281" on="0"/>
        <pt x="809" y="1281" on="1"/>
        <pt x="694" y="1281" on="0"/>
        <pt x="503" y="1202" on="0"/>
        <pt x="365" y="1056" on="0"/>
        <pt x="288" y="846" on="0"/>
        <pt x="288" y="716" on="1"/>
        <pt x="288" y="582" on="0"/>
        <pt x="365" y="372" on="0"/>
        <pt x="498" y="227" on="0"/>
        <pt x="680" y="151" on="0"/>
        <pt x="785" y="151" on="1"/>
        <pt x="849" y="151" on="0"/>
        <pt x="951" y="166" on="0"/>
        <pt x="1038" y="198" on="0"/>
        <pt x="1113" y="247" on="0"/>
        <pt x="1151" y="281" on="1"/>
        <pt x="1168" y="296" on="0"/>
        <pt x="1184" y="296" on="1"/>
        <pt x="1200" y="296" on="0"/>
        <pt x="1213" y="283" on="1"/>
        <pt x="1289" y="200" on="1"/>
        <pt x="1206" y="103" on="0"/>
        <pt x="973" y="-9" on="0"/>
        <pt x="811" y="-15" on="1"/>
        <pt x="795" y="-70" on="1"/>
        <pt x="885" y="-90" on="0"/>
        <pt x="966" y="-159" on="0"/>
        <pt x="966" y="-213" on="1"/>
        <pt x="966" y="-245" on="0"/>
        <pt x="934" y="-296" on="0"/>
        <pt x="877" y="-332" on="0"/>
        <pt x="797" y="-351" on="0"/>
        <pt x="749" y="-351" on="1"/>
        <pt x="708" y="-351" on="0"/>
        <pt x="634" y="-334" on="0"/>
        <pt x="603" y="-320" on="1"/>
        <pt x="620" y="-265" on="1"/>
        <pt x="626" y="-247" on="0"/>
      </contour>
    </TTGlyph>
    <TTGlyph name="D" xMin="174" yMin="0" xMax="1416" yMax="1433">
      <contour>
        <pt x="1416" y="716" on="1"/>
        <pt x="1416" y="555" on="0"/>
        <pt x="1314" y="291" on="0"/>
        <pt x="1128" y="103" on="0"/>
        <pt x="868" y="0" on="0"/>
        <pt x="710" y="0" on="1"/>
        <pt x="174" y="0" on="1"/>
        <pt x="174" y="1433" on="1"/>
        <pt x="710" y="1433" on="1"/>
        <pt x="868" y="1433" on="0"/>
        <pt x="1128" y="1330" on="0"/>
        <pt x="1314" y="1141" on="0"/>
        <pt x="1416" y="877" on="0"/>
      </contour>
      <contour>
        <pt x="1217" y="716" on="1"/>
        <pt x="1217" y="848" on="0"/>
        <pt x="1145" y="1056" on="0"/>
        <pt x="1013" y="1200" on="0"/>
        <pt x="825" y="1276" on="0"/>
        <pt x="710" y="1276" on="1"/>
        <pt x="369" y="1276" on="1"/>
        <pt x="369" y="157" on="1"/>
        <pt x="710" y="157" on="1"/>
        <pt x="825" y="157" on="0"/>
        <pt x="1013" y="233" on="0"/>
        <pt x="1145" y="376" on="0"/>
        <pt x="1217" y="584" on="0"/>
      </contour>
    </TTGlyph>
    <TTGlyph name="Delta" xMin="14" yMin="0" xMax="1378" yMax="1433">
      <contour>
        <pt x="608" y="1433" on="1"/>
        <pt x="783" y="1433" on="1"/>
        <pt x="1378" y="0" on="1"/>
        <pt x="14" y="0" on="1"/>
      </contour>
      <contour>
        <pt x="273" y="156" on="1"/>
        <pt x="1118" y="156" on="1"/>
        <pt x="734" y="1115" on="1"/>
        <pt x="725" y="1138" on="0"/>
        <pt x="705" y="1196" on="0"/>
        <pt x="696" y="1230" on="1"/>
        <pt x="687" y="1196" on="0"/>
        <pt x="668" y="1137" on="0"/>
        <pt x="659" y="1114" on="1"/>
      </contour>
    </TTGlyph>
    <TTGlyph name="E" xMin="174" yMin="0" xMax="1057" yMax="1433">
      <contour>
        <pt x="1057" y="1433" on="1"/>
        <pt x="1057" y="1275" on="1"/>
        <pt x="369" y="1275" on="1"/>
        <pt x="369" y="799" on="1"/>
        <pt x="926" y="799" on="1"/>
        <pt x="926" y="647" on="1"/>
        <pt x="369" y="647" on="1"/>
        <pt x="369" y="158" on="1"/>
        <pt x="1057" y="158" on="1"/>
        <pt x="1057" y="0" on="1"/>
        <pt x="174" y="0" on="1"/>
        <pt x="174" y="1433" on="1"/>
      </contour>
    </TTGlyph>
    <TTGlyph name="Eacute" xMin="174" yMin="0" xMax="1057" yMax="1782">
      <component glyphName="E" x="0" y="0" flags="0x204"/>
      <component glyphName="acute.case" x="311" y="0" flags="0x4"/>
    </TTGlyph>
    <TTGlyph name="Ecircumflex" xMin="174" yMin="0" xMax="1057" yMax="1756">
      <component glyphName="E" x="0" y="0" flags="0x204"/>
      <component glyphName="circumflex.case" x="322" y="0" flags="0x4"/>
    </TTGlyph>
    <TTGlyph name="Edieresis" xMin="174" yMin="0" xMax="1057" yMax="1778">
      <component glyphName="E" x="0" y="0" flags="0x204"/>
      <component glyphName="dieresis.case" x="322" y="0" flags="0x4"/>
    </TTGlyph>
    <TTGlyph name="Egrave" xMin="174" yMin="0" xMax="1057" yMax="1782">
      <component glyphName="E" x="0" y="0" flags="0x204"/>
      <component glyphName="grave.case" x="311" y="0" flags="0x4"/>
    </TTGlyph>
    <TTGlyph name="Eogonek" xMin="174" yMin="-342" xMax="1076" yMax="1433">
      <contour>
        <pt x="1030" y="-211" on="1"/>
        <pt x="1037" y="-211" on="0"/>
        <pt x="1046" y="-219" on="0"/>
        <pt x="1048" y="-224" on="1"/>
        <pt x="1076" y="-290" on="1"/>
        <pt x="1046" y="-313" on="0"/>
        <pt x="953" y="-342" on="0"/>
        <pt x="902" y="-342" on="1"/>
        <pt x="814" y="-342" on="0"/>
        <pt x="713" y="-263" on="0"/>
        <pt x="713" y="-197" on="1"/>
        <pt x="713" y="-139" on="0"/>
        <pt x="792" y="-38" on="0"/>
        <pt x="852" y="0" on="1"/>
        <pt x="174" y="0" on="1"/>
        <pt x="174" y="1433" on="1"/>
        <pt x="1057" y="1433" on="1"/>
        <pt x="1057" y="1275" on="1"/>
        <pt x="369" y="1275" on="1"/>
        <pt x="369" y="799" on="1"/>
        <pt x="926" y="799" on="1"/>
        <pt x="926" y="647" on="1"/>
        <pt x="369" y="647" on="1"/>
        <pt x="369" y="158" on="1"/>
        <pt x="1057" y="158" on="1"/>
        <pt x="1057" y="0" on="1"/>
        <pt x="966" y="0" on="1"/>
        <pt x="946" y="-11" on="0"/>
        <pt x="904" y="-42" on="0"/>
        <pt x="870" y="-81" on="0"/>
        <pt x="848" y="-128" on="0"/>
        <pt x="848" y="-154" on="1"/>
        <pt x="848" y="-192" on="0"/>
        <pt x="897" y="-235" on="0"/>
        <pt x="939" y="-235" on="1"/>
        <pt x="962" y="-235" on="0"/>
        <pt x="992" y="-228" on="0"/>
        <pt x="1012" y="-219" on="0"/>
        <pt x="1025" y="-211" on="0"/>
      </contour>
    </TTGlyph>
    <TTGlyph name="Eth" xMin="50" yMin="0" xMax="1489" yMax="1433">
      <contour>
        <pt x="50" y="780" on="1"/>
        <pt x="247" y="780" on="1"/>
        <pt x="247" y="1433" on="1"/>
        <pt x="782" y="1433" on="1"/>
        <pt x="940" y="1433" on="0"/>
        <pt x="1201" y="1330" on="0"/>
        <pt x="1387" y="1141" on="0"/>
        <pt x="1489" y="877" on="0"/>
        <pt x="1489" y="716" on="1"/>
        <pt x="1489" y="555" on="0"/>
        <pt x="1387" y="291" on="0"/>
        <pt x="1201" y="103" on="0"/>
        <pt x="940" y="0" on="0"/>
        <pt x="782" y="0" on="1"/>
        <pt x="247" y="0" on="1"/>
        <pt x="247" y="666" on="1"/>
        <pt x="50" y="666" on="1"/>
      </contour>
      <contour>
        <pt x="1290" y="716" on="1"/>
        <pt x="1290" y="848" on="0"/>
        <pt x="1218" y="1056" on="0"/>
        <pt x="1086" y="1200" on="0"/>
        <pt x="898" y="1276" on="0"/>
        <pt x="782" y="1276" on="1"/>
        <pt x="441" y="1276" on="1"/>
        <pt x="441" y="780" on="1"/>
        <pt x="822" y="780" on="1"/>
        <pt x="822" y="666" on="1"/>
        <pt x="441" y="666" on="1"/>
        <pt x="441" y="157" on="1"/>
        <pt x="782" y="157" on="1"/>
        <pt x="898" y="157" on="0"/>
        <pt x="1086" y="233" on="0"/>
        <pt x="1218" y="376" on="0"/>
        <pt x="1290" y="584" on="0"/>
      </contour>
    </TTGlyph>
    <TTGlyph name="Euro" xMin="34" yMin="-15" xMax="1138" yMax="1447">
      <contour>
        <pt x="34" y="899" on="1"/>
        <pt x="181" y="899" on="1"/>
        <pt x="201" y="1025" on="0"/>
        <pt x="296" y="1228" on="0"/>
        <pt x="437" y="1371" on="0"/>
        <pt x="621" y="1447" on="0"/>
        <pt x="729" y="1447" on="1"/>
        <pt x="863" y="1447" on="0"/>
        <pt x="1053" y="1347" on="0"/>
        <pt x="1123" y="1259" on="1"/>
        <pt x="1062" y="1191" on="1"/>
        <pt x="1054" y="1182" on="0"/>
        <pt x="1038" y="1169" on="0"/>
        <pt x="1024" y="1169" on="1"/>
        <pt x="1007" y="1169" on="0"/>
        <pt x="970" y="1207" on="0"/>
        <pt x="908" y="1253" on="0"/>
        <pt x="811" y="1291" on="0"/>
        <pt x="736" y="1291" on="1"/>
        <pt x="590" y="1291" on="0"/>
        <pt x="397" y="1091" on="0"/>
        <pt x="365" y="899" on="1"/>
        <pt x="912" y="899" on="1"/>
        <pt x="912" y="844" on="1"/>
        <pt x="912" y="826" on="0"/>
        <pt x="885" y="797" on="0"/>
        <pt x="861" y="797" on="1"/>
        <pt x="353" y="797" on="1"/>
        <pt x="352" y="777" on="0"/>
        <pt x="351" y="737" on="0"/>
        <pt x="351" y="716" on="1"/>
        <pt x="351" y="700" on="0"/>
        <pt x="351" y="670" on="0"/>
        <pt x="352" y="655" on="1"/>
        <pt x="819" y="655" on="1"/>
        <pt x="819" y="599" on="1"/>
        <pt x="819" y="582" on="0"/>
        <pt x="791" y="553" on="0"/>
        <pt x="767" y="553" on="1"/>
        <pt x="361" y="553" on="1"/>
        <pt x="389" y="347" on="0"/>
        <pt x="581" y="141" on="0"/>
        <pt x="727" y="141" on="1"/>
        <pt x="781" y="141" on="0"/>
        <pt x="863" y="162" on="0"/>
        <pt x="923" y="194" on="0"/>
        <pt x="966" y="231" on="0"/>
        <pt x="998" y="263" on="0"/>
        <pt x="1023" y="284" on="0"/>
        <pt x="1035" y="284" on="1"/>
        <pt x="1043" y="284" on="0"/>
        <pt x="1055" y="277" on="0"/>
        <pt x="1063" y="270" on="1"/>
        <pt x="1138" y="200" on="1"/>
        <pt x="1068" y="98" on="0"/>
        <pt x="860" y="-15" on="0"/>
        <pt x="717" y="-15" on="1"/>
        <pt x="601" y="-15" on="0"/>
        <pt x="415" y="64" on="0"/>
        <pt x="279" y="211" on="0"/>
        <pt x="192" y="422" on="0"/>
        <pt x="176" y="553" on="1"/>
        <pt x="34" y="553" on="1"/>
        <pt x="34" y="655" on="1"/>
        <pt x="168" y="655" on="1"/>
        <pt x="167" y="670" on="0"/>
        <pt x="167" y="700" on="0"/>
        <pt x="167" y="716" on="1"/>
        <pt x="167" y="736" on="0"/>
        <pt x="168" y="777" on="0"/>
        <pt x="169" y="797" on="1"/>
        <pt x="34" y="797" on="1"/>
      </contour>
    </TTGlyph>
    <TTGlyph name="F" xMin="174" yMin="0" xMax="1057" yMax="1433">
      <contour>
        <pt x="1057" y="1433" on="1"/>
        <pt x="1057" y="1275" on="1"/>
        <pt x="369" y="1275" on="1"/>
        <pt x="369" y="774" on="1"/>
        <pt x="957" y="774" on="1"/>
        <pt x="957" y="616" on="1"/>
        <pt x="369" y="616" on="1"/>
        <pt x="369" y="0" on="1"/>
        <pt x="174" y="0" on="1"/>
        <pt x="174" y="1433" on="1"/>
      </contour>
    </TTGlyph>
    <TTGlyph name="G" xMin="90" yMin="-16" xMax="1344" yMax="1449">
      <contour>
        <pt x="813" y="141" on="1"/>
        <pt x="871" y="141" on="0"/>
        <pt x="968" y="152" on="0"/>
        <pt x="1054" y="174" on="0"/>
        <pt x="1130" y="205" on="0"/>
        <pt x="1168" y="225" on="1"/>
        <pt x="1168" y="541" on="1"/>
        <pt x="946" y="541" on="1"/>
        <pt x="927" y="541" on="0"/>
        <pt x="904" y="563" on="0"/>
        <pt x="904" y="579" on="1"/>
        <pt x="904" y="689" on="1"/>
        <pt x="1344" y="689" on="1"/>
        <pt x="1344" y="139" on="1"/>
        <pt x="1290" y="100" on="0"/>
        <pt x="1173" y="42" on="0"/>
        <pt x="1040" y="3" on="0"/>
        <pt x="888" y="-16" on="0"/>
        <pt x="799" y="-16" on="1"/>
        <pt x="643" y="-16" on="0"/>
        <pt x="383" y="91" on="0"/>
        <pt x="195" y="284" on="0"/>
        <pt x="90" y="554" on="0"/>
        <pt x="90" y="716" on="1"/>
        <pt x="90" y="880" on="0"/>
        <pt x="193" y="1150" on="0"/>
        <pt x="384" y="1343" on="0"/>
        <pt x="655" y="1449" on="0"/>
        <pt x="823" y="1449" on="1"/>
        <pt x="908" y="1449" on="0"/>
        <pt x="1054" y="1424" on="0"/>
        <pt x="1179" y="1377" on="0"/>
        <pt x="1285" y="1310" on="0"/>
        <pt x="1331" y="1268" on="1"/>
        <pt x="1276" y="1180" on="1"/>
        <pt x="1259" y="1153" on="0"/>
        <pt x="1232" y="1153" on="1"/>
        <pt x="1216" y="1153" on="0"/>
        <pt x="1197" y="1164" on="1"/>
        <pt x="1172" y="1178" on="0"/>
        <pt x="1110" y="1218" on="0"/>
        <pt x="1021" y="1255" on="0"/>
        <pt x="900" y="1281" on="0"/>
        <pt x="817" y="1281" on="1"/>
        <pt x="696" y="1281" on="0"/>
        <pt x="500" y="1202" on="0"/>
        <pt x="362" y="1055" on="0"/>
        <pt x="288" y="846" on="0"/>
        <pt x="288" y="716" on="1"/>
        <pt x="288" y="580" on="0"/>
        <pt x="365" y="367" on="0"/>
        <pt x="505" y="219" on="0"/>
        <pt x="697" y="141" on="0"/>
      </contour>
    </TTGlyph>
    <TTGlyph name="H" xMin="174" yMin="0" xMax="1336" yMax="1433">
      <contour>
        <pt x="1336" y="0" on="1"/>
        <pt x="1141" y="0" on="1"/>
        <pt x="1141" y="652" on="1"/>
        <pt x="369" y="652" on="1"/>
        <pt x="369" y="0" on="1"/>
        <pt x="174" y="0" on="1"/>
        <pt x="174" y="1433" on="1"/>
        <pt x="369" y="1433" on="1"/>
        <pt x="369" y="794" on="1"/>
        <pt x="1141" y="794" on="1"/>
        <pt x="1141" y="1433" on="1"/>
        <pt x="1336" y="1433" on="1"/>
      </contour>
    </TTGlyph>
    <TTGlyph name="I" xMin="210" yMin="0" xMax="404" yMax="1433">
      <contour>
        <pt x="404" y="0" on="1"/>
        <pt x="210" y="0" on="1"/>
        <pt x="210" y="1433" on="1"/>
        <pt x="404" y="1433" on="1"/>
      </contour>
    </TTGlyph>
    <TTGlyph name="Iacute" xMin="154" yMin="0" xMax="650" yMax="1782">
      <component glyphName="I" x="0" y="0" flags="0x204"/>
      <component glyphName="acute.case" x="-8" y="0" flags="0x4"/>
    </TTGlyph>
    <TTGlyph name="Icircumflex" xMin="-17" yMin="0" xMax="635" yMax="1756">
      <component glyphName="I" x="0" y="0" flags="0x204"/>
      <component glyphName="circumflex.case" x="3" y="0" flags="0x4"/>
    </TTGlyph>
    <TTGlyph name="Idieresis" xMin="-14" yMin="0" xMax="632" yMax="1778">
      <component glyphName="I" x="0" y="0" flags="0x204"/>
      <component glyphName="dieresis.case" x="2" y="0" flags="0x4"/>
    </TTGlyph>
    <TTGlyph name="Igrave" xMin="-52" yMin="0" xMax="444" yMax="1782">
      <component glyphName="I" x="0" y="0" flags="0x204"/>
      <component glyphName="grave.case" x="-8" y="0" flags="0x4"/>
    </TTGlyph>
    <TTGlyph name="J" xMin="60" yMin="-16" xMax="713" yMax="1433">
      <contour>
        <pt x="713" y="495" on="1"/>
        <pt x="713" y="375" on="0"/>
        <pt x="654" y="185" on="0"/>
        <pt x="539" y="54" on="0"/>
        <pt x="371" y="-16" on="0"/>
        <pt x="262" y="-16" on="1"/>
        <pt x="165" y="-16" on="0"/>
        <pt x="60" y="12" on="1"/>
        <pt x="62" y="41" on="0"/>
        <pt x="68" y="98" on="0"/>
        <pt x="71" y="126" on="1"/>
        <pt x="73" y="143" on="0"/>
        <pt x="94" y="164" on="0"/>
        <pt x="115" y="164" on="1"/>
        <pt x="133" y="164" on="0"/>
        <pt x="193" y="146" on="0"/>
        <pt x="243" y="146" on="1"/>
        <pt x="309" y="146" on="0"/>
        <pt x="412" y="186" on="0"/>
        <pt x="483" y="270" on="0"/>
        <pt x="520" y="401" on="0"/>
        <pt x="520" y="491" on="1"/>
        <pt x="520" y="1433" on="1"/>
        <pt x="713" y="1433" on="1"/>
      </contour>
    </TTGlyph>
    <TTGlyph name="K" xMin="194" yMin="0" xMax="1338" yMax="1433">
      <contour>
        <pt x="387" y="805" on="1"/>
        <pt x="460" y="805" on="1"/>
        <pt x="498" y="805" on="0"/>
        <pt x="543" y="824" on="0"/>
        <pt x="563" y="847" on="1"/>
        <pt x="1040" y="1387" on="1"/>
        <pt x="1062" y="1412" on="0"/>
        <pt x="1103" y="1433" on="0"/>
        <pt x="1135" y="1433" on="1"/>
        <pt x="1300" y="1433" on="1"/>
        <pt x="754" y="816" on="1"/>
        <pt x="733" y="793" on="0"/>
        <pt x="696" y="761" on="0"/>
        <pt x="675" y="751" on="1"/>
        <pt x="703" y="742" on="0"/>
        <pt x="745" y="706" on="0"/>
        <pt x="768" y="679" on="1"/>
        <pt x="1338" y="0" on="1"/>
        <pt x="1170" y="0" on="1"/>
        <pt x="1151" y="0" on="0"/>
        <pt x="1125" y="6" on="0"/>
        <pt x="1106" y="16" on="0"/>
        <pt x="1090" y="32" on="0"/>
        <pt x="1082" y="41" on="1"/>
        <pt x="587" y="610" on="1"/>
        <pt x="576" y="622" on="0"/>
        <pt x="557" y="639" on="0"/>
        <pt x="532" y="651" on="0"/>
        <pt x="499" y="656" on="0"/>
        <pt x="475" y="656" on="1"/>
        <pt x="387" y="656" on="1"/>
        <pt x="387" y="0" on="1"/>
        <pt x="194" y="0" on="1"/>
        <pt x="194" y="1433" on="1"/>
        <pt x="387" y="1433" on="1"/>
      </contour>
    </TTGlyph>
    <TTGlyph name="L" xMin="174" yMin="0" xMax="988" yMax="1433">
      <contour>
        <pt x="368" y="163" on="1"/>
        <pt x="988" y="163" on="1"/>
        <pt x="988" y="0" on="1"/>
        <pt x="174" y="0" on="1"/>
        <pt x="174" y="1433" on="1"/>
        <pt x="368" y="1433" on="1"/>
      </contour>
    </TTGlyph>
    <TTGlyph name="Lslash" xMin="44" yMin="0" xMax="1045" yMax="1433">
      <contour>
        <pt x="425" y="805" on="1"/>
        <pt x="809" y="1001" on="1"/>
        <pt x="809" y="872" on="1"/>
        <pt x="809" y="843" on="0"/>
        <pt x="782" y="829" on="1"/>
        <pt x="425" y="641" on="1"/>
        <pt x="425" y="163" on="1"/>
        <pt x="1045" y="163" on="1"/>
        <pt x="1045" y="0" on="1"/>
        <pt x="231" y="0" on="1"/>
        <pt x="231" y="554" on="1"/>
        <pt x="44" y="459" on="1"/>
        <pt x="44" y="592" on="1"/>
        <pt x="44" y="618" on="0"/>
        <pt x="69" y="631" on="1"/>
        <pt x="231" y="717" on="1"/>
        <pt x="231" y="1433" on="1"/>
        <pt x="425" y="1433" on="1"/>
      </contour>
    </TTGlyph>
    <TTGlyph name="M" xMin="174" yMin="0" xMax="1665" yMax="1433">
      <contour>
        <pt x="879" y="518" on="1"/>
        <pt x="893" y="494" on="0"/>
        <pt x="914" y="441" on="0"/>
        <pt x="924" y="414" on="1"/>
        <pt x="934" y="442" on="0"/>
        <pt x="956" y="493" on="0"/>
        <pt x="970" y="519" on="1"/>
        <pt x="1455" y="1400" on="1"/>
        <pt x="1468" y="1423" on="0"/>
        <pt x="1496" y="1433" on="0"/>
        <pt x="1522" y="1433" on="1"/>
        <pt x="1665" y="1433" on="1"/>
        <pt x="1665" y="0" on="1"/>
        <pt x="1495" y="0" on="1"/>
        <pt x="1495" y="1053" on="1"/>
        <pt x="1495" y="1074" on="0"/>
        <pt x="1497" y="1122" on="0"/>
        <pt x="1499" y="1147" on="1"/>
        <pt x="1008" y="251" on="1"/>
        <pt x="983" y="206" on="0"/>
        <pt x="938" y="206" on="1"/>
        <pt x="910" y="206" on="1"/>
        <pt x="865" y="206" on="0"/>
        <pt x="840" y="251" on="1"/>
        <pt x="338" y="1150" on="1"/>
        <pt x="341" y="1124" on="0"/>
        <pt x="344" y="1074" on="0"/>
        <pt x="344" y="1053" on="1"/>
        <pt x="344" y="0" on="1"/>
        <pt x="174" y="0" on="1"/>
        <pt x="174" y="1433" on="1"/>
        <pt x="317" y="1433" on="1"/>
        <pt x="343" y="1433" on="0"/>
        <pt x="371" y="1423" on="0"/>
        <pt x="384" y="1400" on="1"/>
        <pt x="879" y="518" on="1"/>
      </contour>
    </TTGlyph>
    <TTGlyph name="N" xMin="174" yMin="0" xMax="1336" yMax="1433">
      <contour>
        <pt x="274" y="1433" on="1"/>
        <pt x="300" y="1433" on="0"/>
        <pt x="325" y="1420" on="0"/>
        <pt x="341" y="1400" on="1"/>
        <pt x="1171" y="320" on="1"/>
        <pt x="1168" y="346" on="0"/>
        <pt x="1166" y="395" on="0"/>
        <pt x="1166" y="418" on="1"/>
        <pt x="1166" y="1433" on="1"/>
        <pt x="1336" y="1433" on="1"/>
        <pt x="1336" y="0" on="1"/>
        <pt x="1238" y="0" on="1"/>
        <pt x="1215" y="0" on="0"/>
        <pt x="1184" y="16" on="0"/>
        <pt x="1169" y="35" on="1"/>
        <pt x="340" y="1114" on="1"/>
        <pt x="342" y="1089" on="0"/>
        <pt x="344" y="1041" on="0"/>
        <pt x="344" y="1021" on="1"/>
        <pt x="344" y="0" on="1"/>
        <pt x="174" y="0" on="1"/>
        <pt x="174" y="1433" on="1"/>
        <pt x="274" y="1433" on="1"/>
      </contour>
    </TTGlyph>
    <TTGlyph name="Nacute" xMin="174" yMin="0" xMax="1336" yMax="1782">
      <component glyphName="N" x="0" y="0" flags="0x204"/>
      <component glyphName="acute.case" x="464" y="0" flags="0x4"/>
    </TTGlyph>
    <TTGlyph name="Ntilde" xMin="174" yMin="0" xMax="1336" yMax="1746">
      <component glyphName="N" x="0" y="0" flags="0x204"/>
      <component glyphName="tilde.case" x="474" y="0" flags="0x4"/>
    </TTGlyph>
    <TTGlyph name="O" xMin="92" yMin="-15" xMax="1505" yMax="1449">
      <contour>
        <pt x="1505" y="716" on="1"/>
        <pt x="1505" y="555" on="0"/>
        <pt x="1403" y="286" on="0"/>
        <pt x="1217" y="92" on="0"/>
        <pt x="956" y="-15" on="0"/>
        <pt x="798" y="-15" on="1"/>
        <pt x="640" y="-15" on="0"/>
        <pt x="380" y="92" on="0"/>
        <pt x="194" y="286" on="0"/>
        <pt x="92" y="555" on="0"/>
        <pt x="92" y="716" on="1"/>
        <pt x="92" y="877" on="0"/>
        <pt x="194" y="1146" on="0"/>
        <pt x="380" y="1341" on="0"/>
        <pt x="640" y="1449" on="0"/>
        <pt x="798" y="1449" on="1"/>
        <pt x="956" y="1449" on="0"/>
        <pt x="1217" y="1341" on="0"/>
        <pt x="1403" y="1146" on="0"/>
        <pt x="1505" y="877" on="0"/>
      </contour>
      <contour>
        <pt x="1306" y="716" on="1"/>
        <pt x="1306" y="848" on="0"/>
        <pt x="1234" y="1058" on="0"/>
        <pt x="1102" y="1203" on="0"/>
        <pt x="914" y="1281" on="0"/>
        <pt x="798" y="1281" on="1"/>
        <pt x="683" y="1281" on="0"/>
        <pt x="495" y="1203" on="0"/>
        <pt x="362" y="1058" on="0"/>
        <pt x="290" y="848" on="0"/>
        <pt x="290" y="716" on="1"/>
        <pt x="290" y="584" on="0"/>
        <pt x="362" y="375" on="0"/>
        <pt x="495" y="230" on="0"/>
        <pt x="683" y="153" on="0"/>
        <pt x="798" y="153" on="1"/>
        <pt x="914" y="153" on="0"/>
        <pt x="1102" y="230" on="0"/>
        <pt x="1234" y="375" on="0"/>
        <pt x="1306" y="584" on="0"/>
      </contour>
    </TTGlyph>
    <TTGlyph name="OE" xMin="92" yMin="-14" xMax="2087" yMax="1449">
      <contour>
        <pt x="2087" y="1433" on="1"/>
        <pt x="2087" y="1275" on="1"/>
        <pt x="1399" y="1275" on="1"/>
        <pt x="1399" y="799" on="1"/>
        <pt x="1956" y="799" on="1"/>
        <pt x="1956" y="647" on="1"/>
        <pt x="1399" y="647" on="1"/>
        <pt x="1399" y="158" on="1"/>
        <pt x="2087" y="158" on="1"/>
        <pt x="2087" y="0" on="1"/>
        <pt x="1227" y="0" on="1"/>
        <pt x="1227" y="240" on="1"/>
        <pt x="1143" y="120" on="0"/>
        <pt x="889" y="-14" on="0"/>
        <pt x="728" y="-14" on="1"/>
        <pt x="586" y="-14" on="0"/>
        <pt x="352" y="93" on="0"/>
        <pt x="184" y="286" on="0"/>
        <pt x="92" y="555" on="0"/>
        <pt x="92" y="716" on="1"/>
        <pt x="92" y="877" on="0"/>
        <pt x="184" y="1146" on="0"/>
        <pt x="352" y="1341" on="0"/>
        <pt x="586" y="1449" on="0"/>
        <pt x="728" y="1449" on="1"/>
        <pt x="889" y="1449" on="0"/>
        <pt x="1143" y="1314" on="0"/>
        <pt x="1227" y="1193" on="1"/>
        <pt x="1227" y="1433" on="1"/>
      </contour>
      <contour>
        <pt x="1204" y="716" on="1"/>
        <pt x="1204" y="848" on="0"/>
        <pt x="1140" y="1059" on="0"/>
        <pt x="1021" y="1207" on="0"/>
        <pt x="852" y="1286" on="0"/>
        <pt x="748" y="1286" on="1"/>
        <pt x="644" y="1286" on="0"/>
        <pt x="475" y="1207" on="0"/>
        <pt x="355" y="1059" on="0"/>
        <pt x="290" y="848" on="0"/>
        <pt x="290" y="716" on="1"/>
        <pt x="290" y="584" on="0"/>
        <pt x="355" y="373" on="0"/>
        <pt x="475" y="226" on="0"/>
        <pt x="644" y="148" on="0"/>
        <pt x="748" y="148" on="1"/>
        <pt x="852" y="148" on="0"/>
        <pt x="1021" y="226" on="0"/>
        <pt x="1140" y="373" on="0"/>
        <pt x="1204" y="584" on="0"/>
      </contour>
    </TTGlyph>
    <TTGlyph name="Oacute" xMin="92" yMin="-15" xMax="1505" yMax="1782">
      <component glyphName="O" x="0" y="0" flags="0x204"/>
      <component glyphName="acute.case" x="483" y="0" flags="0x4"/>
    </TTGlyph>
    <TTGlyph name="Ocircumflex" xMin="92" yMin="-15" xMax="1505" yMax="1756">
      <component glyphName="O" x="0" y="0" flags="0x204"/>
      <component glyphName="circumflex.case" x="494" y="0" flags="0x4"/>
    </TTGlyph>
    <TTGlyph name="Odieresis" xMin="92" yMin="-15" xMax="1505" yMax="1778">
      <component glyphName="O" x="0" y="0" flags="0x204"/>
      <component glyphName="dieresis.case" x="494" y="0" flags="0x4"/>
    </TTGlyph>
    <TTGlyph name="Ograve" xMin="92" yMin="-15" xMax="1505" yMax="1782">
      <component glyphName="O" x="0" y="0" flags="0x204"/>
      <component glyphName="grave.case" x="483" y="0" flags="0x4"/>
    </TTGlyph>
    <TTGlyph name="Omega" xMin="86" yMin="0" xMax="1406" yMax="1449">
      <contour>
        <pt x="836" y="0" on="1"/>
        <pt x="836" y="438" on="1"/>
        <pt x="917" y="453" on="0"/>
        <pt x="1053" y="518" on="0"/>
        <pt x="1152" y="621" on="0"/>
        <pt x="1207" y="764" on="0"/>
        <pt x="1207" y="857" on="1"/>
        <pt x="1207" y="964" on="0"/>
        <pt x="1138" y="1127" on="0"/>
        <pt x="1015" y="1236" on="0"/>
        <pt x="846" y="1292" on="0"/>
        <pt x="746" y="1292" on="1"/>
        <pt x="646" y="1292" on="0"/>
        <pt x="477" y="1236" on="0"/>
        <pt x="354" y="1127" on="0"/>
        <pt x="285" y="964" on="0"/>
        <pt x="285" y="857" on="1"/>
        <pt x="285" y="764" on="0"/>
        <pt x="340" y="621" on="0"/>
        <pt x="438" y="518" on="0"/>
        <pt x="575" y="453" on="0"/>
        <pt x="656" y="438" on="1"/>
        <pt x="656" y="0" on="1"/>
        <pt x="152" y="0" on="1"/>
        <pt x="122" y="0" on="0"/>
        <pt x="86" y="35" on="0"/>
        <pt x="86" y="63" on="1"/>
        <pt x="86" y="163" on="1"/>
        <pt x="505" y="163" on="1"/>
        <pt x="505" y="337" on="1"/>
        <pt x="409" y="360" on="0"/>
        <pt x="254" y="456" on="0"/>
        <pt x="146" y="592" on="0"/>
        <pt x="87" y="766" on="0"/>
        <pt x="87" y="867" on="1"/>
        <pt x="87" y="995" on="0"/>
        <pt x="186" y="1209" on="0"/>
        <pt x="361" y="1363" on="0"/>
        <pt x="603" y="1449" on="0"/>
        <pt x="746" y="1449" on="1"/>
        <pt x="889" y="1449" on="0"/>
        <pt x="1131" y="1363" on="0"/>
        <pt x="1306" y="1209" on="0"/>
        <pt x="1405" y="995" on="0"/>
        <pt x="1405" y="867" on="1"/>
        <pt x="1405" y="766" on="0"/>
        <pt x="1346" y="592" on="0"/>
        <pt x="1237" y="456" on="0"/>
        <pt x="1082" y="360" on="0"/>
        <pt x="986" y="337" on="1"/>
        <pt x="986" y="163" on="1"/>
        <pt x="1406" y="163" on="1"/>
        <pt x="1406" y="63" on="1"/>
        <pt x="1406" y="35" on="0"/>
        <pt x="1370" y="0" on="0"/>
        <pt x="1340" y="0" on="1"/>
      </contour>
    </TTGlyph>
    <TTGlyph name="Oslash" xMin="92" yMin="-109" xMax="1505" yMax="1498">
      <contour>
        <pt x="1505" y="716" on="1"/>
        <pt x="1505" y="555" on="0"/>
        <pt x="1403" y="286" on="0"/>
        <pt x="1217" y="92" on="0"/>
        <pt x="956" y="-15" on="0"/>
        <pt x="798" y="-15" on="1"/>
        <pt x="690" y="-15" on="0"/>
        <pt x="502" y="34" on="0"/>
        <pt x="423" y="82" on="1"/>
        <pt x="323" y="-54" on="1"/>
        <pt x="301" y="-83" on="0"/>
        <pt x="243" y="-109" on="0"/>
        <pt x="214" y="-109" on="1"/>
        <pt x="136" y="-109" on="1"/>
        <pt x="327" y="151" on="1"/>
        <pt x="215" y="249" on="0"/>
        <pt x="92" y="537" on="0"/>
        <pt x="92" y="716" on="1"/>
        <pt x="92" y="877" on="0"/>
        <pt x="194" y="1146" on="0"/>
        <pt x="380" y="1341" on="0"/>
        <pt x="640" y="1449" on="0"/>
        <pt x="798" y="1449" on="1"/>
        <pt x="913" y="1449" on="0"/>
        <pt x="1113" y="1391" on="0"/>
        <pt x="1196" y="1337" on="1"/>
        <pt x="1278" y="1448" on="1"/>
        <pt x="1298" y="1475" on="0"/>
        <pt x="1330" y="1498" on="0"/>
        <pt x="1362" y="1498" on="1"/>
        <pt x="1462" y="1498" on="1"/>
        <pt x="1290" y="1263" on="1"/>
        <pt x="1393" y="1165" on="0"/>
        <pt x="1505" y="887" on="0"/>
      </contour>
      <contour>
        <pt x="290" y="716" on="1"/>
        <pt x="290" y="581" on="0"/>
        <pt x="365" y="370" on="0"/>
        <pt x="434" y="297" on="1"/>
        <pt x="1093" y="1196" on="1"/>
        <pt x="1033" y="1238" on="0"/>
        <pt x="885" y="1281" on="0"/>
        <pt x="798" y="1281" on="1"/>
        <pt x="683" y="1281" on="0"/>
        <pt x="495" y="1203" on="0"/>
        <pt x="362" y="1058" on="0"/>
        <pt x="290" y="848" on="0"/>
      </contour>
      <contour>
        <pt x="1306" y="716" on="1"/>
        <pt x="1306" y="842" on="0"/>
        <pt x="1241" y="1043" on="0"/>
        <pt x="1181" y="1115" on="1"/>
        <pt x="526" y="223" on="1"/>
        <pt x="642" y="153" on="0"/>
        <pt x="798" y="153" on="1"/>
        <pt x="914" y="153" on="0"/>
        <pt x="1102" y="230" on="0"/>
        <pt x="1234" y="375" on="0"/>
        <pt x="1306" y="584" on="0"/>
      </contour>
    </TTGlyph>
    <TTGlyph name="Otilde" xMin="92" yMin="-15" xMax="1505" yMax="1746">
      <component glyphName="O" x="0" y="0" flags="0x204"/>
      <component glyphName="tilde.case" x="494" y="0" flags="0x4"/>
    </TTGlyph>
    <TTGlyph name="P" xMin="194" yMin="0" xMax="1151" yMax="1433">
      <contour>
        <pt x="387" y="536" on="1"/>
        <pt x="387" y="0" on="1"/>
        <pt x="194" y="0" on="1"/>
        <pt x="194" y="1433" on="1"/>
        <pt x="617" y="1433" on="1"/>
        <pt x="753" y="1433" on="0"/>
        <pt x="954" y="1370" on="0"/>
        <pt x="1086" y="1254" on="0"/>
        <pt x="1151" y="1090" on="0"/>
        <pt x="1151" y="989" on="1"/>
        <pt x="1151" y="889" on="0"/>
        <pt x="1081" y="723" on="0"/>
        <pt x="946" y="603" on="0"/>
        <pt x="746" y="536" on="0"/>
        <pt x="617" y="536" on="1"/>
      </contour>
      <contour>
        <pt x="387" y="690" on="1"/>
        <pt x="617" y="690" on="1"/>
        <pt x="700" y="690" on="0"/>
        <pt x="827" y="734" on="0"/>
        <pt x="913" y="813" on="0"/>
        <pt x="957" y="923" on="0"/>
        <pt x="957" y="989" on="1"/>
        <pt x="957" y="1126" on="0"/>
        <pt x="788" y="1280" on="0"/>
        <pt x="617" y="1280" on="1"/>
        <pt x="387" y="1280" on="1"/>
      </contour>
    </TTGlyph>
    <TTGlyph name="Q" xMin="92" yMin="-296" xMax="1572" yMax="1449">
      <contour>
        <pt x="1505" y="716" on="1"/>
        <pt x="1505" y="615" on="0"/>
        <pt x="1464" y="433" on="0"/>
        <pt x="1386" y="276" on="0"/>
        <pt x="1274" y="148" on="0"/>
        <pt x="1204" y="101" on="1"/>
        <pt x="1572" y="-296" on="1"/>
        <pt x="1412" y="-296" on="1"/>
        <pt x="1376" y="-296" on="0"/>
        <pt x="1320" y="-276" on="0"/>
        <pt x="1297" y="-251" on="1"/>
        <pt x="1045" y="23" on="1"/>
        <pt x="988" y="5" on="0"/>
        <pt x="865" y="-15" on="0"/>
        <pt x="798" y="-15" on="1"/>
        <pt x="640" y="-15" on="0"/>
        <pt x="380" y="92" on="0"/>
        <pt x="194" y="286" on="0"/>
        <pt x="92" y="555" on="0"/>
        <pt x="92" y="716" on="1"/>
        <pt x="92" y="877" on="0"/>
        <pt x="194" y="1146" on="0"/>
        <pt x="380" y="1341" on="0"/>
        <pt x="640" y="1449" on="0"/>
        <pt x="798" y="1449" on="1"/>
        <pt x="956" y="1449" on="0"/>
        <pt x="1217" y="1341" on="0"/>
        <pt x="1403" y="1146" on="0"/>
        <pt x="1505" y="877" on="0"/>
      </contour>
      <contour>
        <pt x="1306" y="716" on="1"/>
        <pt x="1306" y="848" on="0"/>
        <pt x="1234" y="1058" on="0"/>
        <pt x="1102" y="1203" on="0"/>
        <pt x="914" y="1281" on="0"/>
        <pt x="798" y="1281" on="1"/>
        <pt x="683" y="1281" on="0"/>
        <pt x="495" y="1203" on="0"/>
        <pt x="362" y="1058" on="0"/>
        <pt x="290" y="848" on="0"/>
        <pt x="290" y="716" on="1"/>
        <pt x="290" y="584" on="0"/>
        <pt x="362" y="375" on="0"/>
        <pt x="495" y="230" on="0"/>
        <pt x="683" y="153" on="0"/>
        <pt x="798" y="153" on="1"/>
        <pt x="914" y="153" on="0"/>
        <pt x="1102" y="230" on="0"/>
        <pt x="1234" y="375" on="0"/>
        <pt x="1306" y="584" on="0"/>
      </contour>
    </TTGlyph>
    <TTGlyph name="R" xMin="194" yMin="0" xMax="1253" yMax="1433">
      <contour>
        <pt x="387" y="598" on="1"/>
        <pt x="387" y="0" on="1"/>
        <pt x="194" y="0" on="1"/>
        <pt x="194" y="1433" on="1"/>
        <pt x="599" y="1433" on="1"/>
        <pt x="735" y="1433" on="0"/>
        <pt x="933" y="1378" on="0"/>
        <pt x="1062" y="1274" on="0"/>
        <pt x="1124" y="1127" on="0"/>
        <pt x="1124" y="1036" on="1"/>
        <pt x="1124" y="960" on="0"/>
        <pt x="1076" y="828" on="0"/>
        <pt x="985" y="723" on="0"/>
        <pt x="854" y="649" on="0"/>
        <pt x="771" y="630" on="1"/>
        <pt x="807" y="609" on="0"/>
        <pt x="835" y="569" on="1"/>
        <pt x="1253" y="0" on="1"/>
        <pt x="1081" y="0" on="1"/>
        <pt x="1028" y="0" on="0"/>
        <pt x="1003" y="41" on="1"/>
        <pt x="631" y="553" on="1"/>
        <pt x="614" y="577" on="0"/>
        <pt x="574" y="598" on="0"/>
        <pt x="534" y="598" on="1"/>
      </contour>
      <contour>
        <pt x="387" y="739" on="1"/>
        <pt x="590" y="739" on="1"/>
        <pt x="675" y="739" on="0"/>
        <pt x="804" y="780" on="0"/>
        <pt x="891" y="855" on="0"/>
        <pt x="935" y="959" on="0"/>
        <pt x="935" y="1022" on="1"/>
        <pt x="935" y="1150" on="0"/>
        <pt x="766" y="1280" on="0"/>
        <pt x="599" y="1280" on="1"/>
        <pt x="387" y="1280" on="1"/>
      </contour>
    </TTGlyph>
    <TTGlyph name="S" xMin="58" yMin="-16" xMax="987" yMax="1449">
      <contour>
        <pt x="908" y="1209" on="1"/>
        <pt x="899" y="1194" on="0"/>
        <pt x="879" y="1179" on="0"/>
        <pt x="863" y="1179" on="1"/>
        <pt x="846" y="1179" on="0"/>
        <pt x="801" y="1213" on="0"/>
        <pt x="732" y="1254" on="0"/>
        <pt x="635" y="1288" on="0"/>
        <pt x="566" y="1288" on="1"/>
        <pt x="501" y="1288" on="0"/>
        <pt x="401" y="1253" on="0"/>
        <pt x="334" y="1193" on="0"/>
        <pt x="300" y="1112" on="0"/>
        <pt x="300" y="1065" on="1"/>
        <pt x="300" y="1005" on="0"/>
        <pt x="359" y="926" on="0"/>
        <pt x="456" y="870" on="0"/>
        <pt x="579" y="829" on="0"/>
        <pt x="708" y="785" on="0"/>
        <pt x="831" y="730" on="0"/>
        <pt x="928" y="646" on="0"/>
        <pt x="987" y="524" on="0"/>
        <pt x="987" y="435" on="1"/>
        <pt x="987" y="341" on="0"/>
        <pt x="923" y="176" on="0"/>
        <pt x="800" y="54" on="0"/>
        <pt x="621" y="-16" on="0"/>
        <pt x="507" y="-16" on="1"/>
        <pt x="368" y="-16" on="0"/>
        <pt x="139" y="85" on="0"/>
        <pt x="58" y="171" on="1"/>
        <pt x="114" y="263" on="1"/>
        <pt x="122" y="274" on="0"/>
        <pt x="145" y="289" on="0"/>
        <pt x="159" y="289" on="1"/>
        <pt x="180" y="289" on="0"/>
        <pt x="234" y="244" on="0"/>
        <pt x="315" y="190" on="0"/>
        <pt x="430" y="145" on="0"/>
        <pt x="513" y="145" on="1"/>
        <pt x="582" y="145" on="0"/>
        <pt x="690" y="183" on="0"/>
        <pt x="765" y="252" on="0"/>
        <pt x="805" y="348" on="0"/>
        <pt x="805" y="407" on="1"/>
        <pt x="805" y="472" on="0"/>
        <pt x="746" y="555" on="0"/>
        <pt x="650" y="611" on="0"/>
        <pt x="527" y="650" on="0"/>
        <pt x="398" y="691" on="0"/>
        <pt x="275" y="745" on="0"/>
        <pt x="179" y="831" on="0"/>
        <pt x="120" y="960" on="0"/>
        <pt x="120" y="1055" on="1"/>
        <pt x="120" y="1131" on="0"/>
        <pt x="179" y="1273" on="0"/>
        <pt x="291" y="1383" on="0"/>
        <pt x="456" y="1449" on="0"/>
        <pt x="563" y="1449" on="1"/>
        <pt x="683" y="1449" on="0"/>
        <pt x="881" y="1373" on="0"/>
        <pt x="955" y="1301" on="1"/>
      </contour>
    </TTGlyph>
    <TTGlyph name="Sacute" xMin="58" yMin="-16" xMax="987" yMax="1782">
      <component glyphName="S" x="0" y="0" flags="0x4"/>
      <component glyphName="acute.case" x="262" y="0" flags="0x4"/>
    </TTGlyph>
    <TTGlyph name="Scaron" xMin="58" yMin="-16" xMax="987" yMax="1756">
      <component glyphName="S" x="0" y="0" flags="0x204"/>
      <component glyphName="caron.case" x="272" y="0" flags="0x4"/>
    </TTGlyph>
    <TTGlyph name="T" xMin="28" yMin="0" xMax="1150" yMax="1433">
      <contour>
        <pt x="1150" y="1433" on="1"/>
        <pt x="1150" y="1270" on="1"/>
        <pt x="687" y="1270" on="1"/>
        <pt x="687" y="0" on="1"/>
        <pt x="493" y="0" on="1"/>
        <pt x="493" y="1270" on="1"/>
        <pt x="28" y="1270" on="1"/>
        <pt x="28" y="1433" on="1"/>
      </contour>
    </TTGlyph>
    <TTGlyph name="Thorn" xMin="194" yMin="0" xMax="1151" yMax="1433">
      <contour>
        <pt x="387" y="272" on="1"/>
        <pt x="387" y="0" on="1"/>
        <pt x="194" y="0" on="1"/>
        <pt x="194" y="1433" on="1"/>
        <pt x="387" y="1433" on="1"/>
        <pt x="387" y="1169" on="1"/>
        <pt x="617" y="1169" on="1"/>
        <pt x="753" y="1169" on="0"/>
        <pt x="954" y="1106" on="0"/>
        <pt x="1086" y="990" on="0"/>
        <pt x="1151" y="826" on="0"/>
        <pt x="1151" y="725" on="1"/>
        <pt x="1151" y="625" on="0"/>
        <pt x="1081" y="459" on="0"/>
        <pt x="946" y="339" on="0"/>
        <pt x="746" y="272" on="0"/>
        <pt x="617" y="272" on="1"/>
      </contour>
      <contour>
        <pt x="387" y="426" on="1"/>
        <pt x="617" y="426" on="1"/>
        <pt x="700" y="426" on="0"/>
        <pt x="827" y="470" on="0"/>
        <pt x="913" y="549" on="0"/>
        <pt x="957" y="659" on="0"/>
        <pt x="957" y="725" on="1"/>
        <pt x="957" y="862" on="0"/>
        <pt x="788" y="1016" on="0"/>
        <pt x="617" y="1016" on="1"/>
        <pt x="387" y="1016" on="1"/>
      </contour>
    </TTGlyph>
    <TTGlyph name="U" xMin="160" yMin="-17" xMax="1301" yMax="1433">
      <contour>
        <pt x="731" y="154" on="1"/>
        <pt x="820" y="154" on="0"/>
        <pt x="960" y="214" on="0"/>
        <pt x="1057" y="322" on="0"/>
        <pt x="1108" y="472" on="0"/>
        <pt x="1108" y="562" on="1"/>
        <pt x="1108" y="1433" on="1"/>
        <pt x="1301" y="1433" on="1"/>
        <pt x="1301" y="562" on="1"/>
        <pt x="1301" y="438" on="0"/>
        <pt x="1222" y="226" on="0"/>
        <pt x="1075" y="71" on="0"/>
        <pt x="863" y="-17" on="0"/>
        <pt x="731" y="-17" on="1"/>
        <pt x="599" y="-17" on="0"/>
        <pt x="387" y="71" on="0"/>
        <pt x="239" y="226" on="0"/>
        <pt x="160" y="438" on="0"/>
        <pt x="160" y="562" on="1"/>
        <pt x="160" y="1433" on="1"/>
        <pt x="353" y="1433" on="1"/>
        <pt x="353" y="563" on="1"/>
        <pt x="353" y="473" on="0"/>
        <pt x="404" y="323" on="0"/>
        <pt x="501" y="215" on="0"/>
        <pt x="642" y="154" on="0"/>
      </contour>
    </TTGlyph>
    <TTGlyph name="Uacute" xMin="160" yMin="-17" xMax="1301" yMax="1782">
      <component glyphName="U" x="0" y="0" flags="0x204"/>
      <component glyphName="acute.case" x="413" y="0" flags="0x4"/>
    </TTGlyph>
    <TTGlyph name="Ucircumflex" xMin="160" yMin="-17" xMax="1301" yMax="1756">
      <component glyphName="U" x="0" y="0" flags="0x204"/>
      <component glyphName="circumflex.case" x="424" y="0" flags="0x4"/>
    </TTGlyph>
    <TTGlyph name="Udieresis" xMin="160" yMin="-17" xMax="1301" yMax="1778">
      <component glyphName="U" x="0" y="0" flags="0x204"/>
      <component glyphName="dieresis.case" x="424" y="0" flags="0x4"/>
    </TTGlyph>
    <TTGlyph name="Ugrave" xMin="160" yMin="-17" xMax="1301" yMax="1782">
      <component glyphName="U" x="0" y="0" flags="0x204"/>
      <component glyphName="grave.case" x="413" y="0" flags="0x4"/>
    </TTGlyph>
    <TTGlyph name="V" xMin="8" yMin="0" xMax="1351" yMax="1433">
      <contour>
        <pt x="8" y="1433" on="1"/>
        <pt x="163" y="1433" on="1"/>
        <pt x="189" y="1433" on="0"/>
        <pt x="221" y="1407" on="0"/>
        <pt x="229" y="1387" on="1"/>
        <pt x="634" y="376" on="1"/>
        <pt x="648" y="342" on="0"/>
        <pt x="671" y="262" on="0"/>
        <pt x="682" y="219" on="1"/>
        <pt x="691" y="262" on="0"/>
        <pt x="712" y="342" on="0"/>
        <pt x="726" y="376" on="1"/>
        <pt x="1129" y="1387" on="1"/>
        <pt x="1136" y="1404" on="0"/>
        <pt x="1170" y="1433" on="0"/>
        <pt x="1195" y="1433" on="1"/>
        <pt x="1351" y="1433" on="1"/>
        <pt x="767" y="0" on="1"/>
        <pt x="592" y="0" on="1"/>
      </contour>
    </TTGlyph>
    <TTGlyph name="W" xMin="14" yMin="0" xMax="2023" yMax="1433">
      <contour>
        <pt x="14" y="1433" on="1"/>
        <pt x="175" y="1433" on="1"/>
        <pt x="201" y="1433" on="0"/>
        <pt x="235" y="1407" on="0"/>
        <pt x="241" y="1387" on="1"/>
        <pt x="537" y="391" on="1"/>
        <pt x="545" y="364" on="0"/>
        <pt x="558" y="302" on="0"/>
        <pt x="564" y="268" on="1"/>
        <pt x="571" y="302" on="0"/>
        <pt x="585" y="365" on="0"/>
        <pt x="594" y="391" on="1"/>
        <pt x="931" y="1387" on="1"/>
        <pt x="937" y="1404" on="0"/>
        <pt x="972" y="1433" on="0"/>
        <pt x="997" y="1433" on="1"/>
        <pt x="1053" y="1433" on="1"/>
        <pt x="1079" y="1433" on="0"/>
        <pt x="1112" y="1407" on="0"/>
        <pt x="1119" y="1387" on="1"/>
        <pt x="1454" y="391" on="1"/>
        <pt x="1472" y="339" on="0"/>
        <pt x="1486" y="272" on="1"/>
        <pt x="1492" y="305" on="0"/>
        <pt x="1502" y="365" on="0"/>
        <pt x="1510" y="391" on="1"/>
        <pt x="1807" y="1387" on="1"/>
        <pt x="1812" y="1405" on="0"/>
        <pt x="1847" y="1433" on="0"/>
        <pt x="1872" y="1433" on="1"/>
        <pt x="2023" y="1433" on="1"/>
        <pt x="1576" y="0" on="1"/>
        <pt x="1402" y="0" on="1"/>
        <pt x="1039" y="1093" on="1"/>
        <pt x="1028" y="1124" on="0"/>
        <pt x="1019" y="1165" on="1"/>
        <pt x="1014" y="1145" on="0"/>
        <pt x="1005" y="1108" on="0"/>
        <pt x="1000" y="1093" on="1"/>
        <pt x="635" y="0" on="1"/>
        <pt x="461" y="0" on="1"/>
      </contour>
    </TTGlyph>
    <TTGlyph name="X" xMin="14" yMin="0" xMax="1270" yMax="1433">
      <contour>
        <pt x="507" y="736" on="1"/>
        <pt x="34" y="1433" on="1"/>
        <pt x="227" y="1433" on="1"/>
        <pt x="248" y="1433" on="0"/>
        <pt x="268" y="1419" on="0"/>
        <pt x="276" y="1406" on="1"/>
        <pt x="650" y="832" on="1"/>
        <pt x="657" y="853" on="0"/>
        <pt x="671" y="878" on="1"/>
        <pt x="1024" y="1402" on="1"/>
        <pt x="1033" y="1416" on="0"/>
        <pt x="1054" y="1433" on="0"/>
        <pt x="1069" y="1433" on="1"/>
        <pt x="1254" y="1433" on="1"/>
        <pt x="779" y="745" on="1"/>
        <pt x="1270" y="0" on="1"/>
        <pt x="1078" y="0" on="1"/>
        <pt x="1056" y="0" on="0"/>
        <pt x="1031" y="23" on="0"/>
        <pt x="1023" y="37" on="1"/>
        <pt x="639" y="638" on="1"/>
        <pt x="632" y="617" on="0"/>
        <pt x="621" y="598" on="1"/>
        <pt x="247" y="37" on="1"/>
        <pt x="238" y="23" on="0"/>
        <pt x="215" y="0" on="0"/>
        <pt x="194" y="0" on="1"/>
        <pt x="14" y="0" on="1"/>
      </contour>
    </TTGlyph>
    <TTGlyph name="Y" xMin="8" yMin="0" xMax="1252" yMax="1433">
      <contour>
        <pt x="726" y="570" on="1"/>
        <pt x="726" y="0" on="1"/>
        <pt x="533" y="0" on="1"/>
        <pt x="533" y="570" on="1"/>
        <pt x="8" y="1433" on="1"/>
        <pt x="178" y="1433" on="1"/>
        <pt x="204" y="1433" on="0"/>
        <pt x="234" y="1407" on="0"/>
        <pt x="245" y="1388" on="1"/>
        <pt x="573" y="831" on="1"/>
        <pt x="593" y="796" on="0"/>
        <pt x="620" y="734" on="0"/>
        <pt x="631" y="704" on="1"/>
        <pt x="642" y="735" on="0"/>
        <pt x="668" y="797" on="0"/>
        <pt x="688" y="831" on="1"/>
        <pt x="1015" y="1388" on="1"/>
        <pt x="1024" y="1404" on="0"/>
        <pt x="1055" y="1433" on="0"/>
        <pt x="1080" y="1433" on="1"/>
        <pt x="1252" y="1433" on="1"/>
      </contour>
    </TTGlyph>
    <TTGlyph name="Yacute" xMin="8" yMin="0" xMax="1252" yMax="1782">
      <component glyphName="Y" x="0" y="0" flags="0x204"/>
      <component glyphName="acute.case" x="313" y="0" flags="0x4"/>
    </TTGlyph>
    <TTGlyph name="Ydieresis" xMin="8" yMin="0" xMax="1252" yMax="1778">
      <component glyphName="Y" x="0" y="0" flags="0x204"/>
      <component glyphName="dieresis.case" x="324" y="0" flags="0x4"/>
    </TTGlyph>
    <TTGlyph name="Z" xMin="86" yMin="0" xMax="1172" yMax="1433">
      <contour>
        <pt x="1172" y="1433" on="1"/>
        <pt x="1172" y="1361" on="1"/>
        <pt x="1172" y="1327" on="0"/>
        <pt x="1151" y="1297" on="1"/>
        <pt x="340" y="158" on="1"/>
        <pt x="1158" y="158" on="1"/>
        <pt x="1158" y="0" on="1"/>
        <pt x="86" y="0" on="1"/>
        <pt x="86" y="76" on="1"/>
        <pt x="86" y="106" on="0"/>
        <pt x="105" y="133" on="1"/>
        <pt x="917" y="1275" on="1"/>
        <pt x="124" y="1275" on="1"/>
        <pt x="124" y="1433" on="1"/>
      </contour>
    </TTGlyph>
    <TTGlyph name="Zacute" xMin="86" yMin="0" xMax="1172" yMax="1782">
      <component glyphName="Z" x="0" y="0" flags="0x204"/>
      <component glyphName="acute.case" x="334" y="0" flags="0x4"/>
    </TTGlyph>
    <TTGlyph name="Zcaron" xMin="86" yMin="0" xMax="1172" yMax="1756">
      <component glyphName="Z" x="0" y="0" flags="0x204"/>
      <component glyphName="caron.case" x="344" y="0" flags="0x4"/>
    </TTGlyph>
    <TTGlyph name="Zdotaccent" xMin="86" yMin="0" xMax="1172" yMax="1811">
      <component glyphName="Z" x="0" y="0" flags="0x204"/>
      <component glyphName="dotaccent.case" x="344" y="0" flags="0x4"/>
    </TTGlyph>
    <TTGlyph name="a" xMin="92" yMin="-16" xMax="890" yMax="1031">
      <contour>
        <pt x="890" y="0" on="1"/>
        <pt x="811" y="0" on="1"/>
        <pt x="785" y="0" on="0"/>
        <pt x="753" y="16" on="0"/>
        <pt x="748" y="42" on="1"/>
        <pt x="728" y="136" on="1"/>
        <pt x="688" y="100" on="0"/>
        <pt x="612" y="43" on="0"/>
        <pt x="528" y="4" on="0"/>
        <pt x="433" y="-16" on="0"/>
        <pt x="375" y="-16" on="1"/>
        <pt x="316" y="-16" on="0"/>
        <pt x="213" y="17" on="0"/>
        <pt x="137" y="83" on="0"/>
        <pt x="92" y="184" on="0"/>
        <pt x="92" y="253" on="1"/>
        <pt x="92" y="313" on="0"/>
        <pt x="158" y="424" on="0"/>
        <pt x="305" y="510" on="0"/>
        <pt x="543" y="565" on="0"/>
        <pt x="715" y="569" on="1"/>
        <pt x="715" y="648" on="1"/>
        <pt x="715" y="766" on="0"/>
        <pt x="614" y="887" on="0"/>
        <pt x="515" y="887" on="1"/>
        <pt x="450" y="887" on="0"/>
        <pt x="361" y="854" on="0"/>
        <pt x="296" y="813" on="0"/>
        <pt x="249" y="780" on="0"/>
        <pt x="226" y="780" on="1"/>
        <pt x="208" y="780" on="0"/>
        <pt x="181" y="799" on="0"/>
        <pt x="173" y="813" on="1"/>
        <pt x="141" y="870" on="1"/>
        <pt x="225" y="951" on="0"/>
        <pt x="419" y="1031" on="0"/>
        <pt x="537" y="1031" on="1"/>
        <pt x="622" y="1031" on="0"/>
        <pt x="754" y="975" on="0"/>
        <pt x="844" y="875" on="0"/>
        <pt x="890" y="733" on="0"/>
        <pt x="890" y="648" on="1"/>
      </contour>
      <contour>
        <pt x="428" y="109" on="1"/>
        <pt x="475" y="109" on="0"/>
        <pt x="553" y="128" on="0"/>
        <pt x="622" y="163" on="0"/>
        <pt x="685" y="213" on="0"/>
        <pt x="715" y="245" on="1"/>
        <pt x="715" y="456" on="1"/>
        <pt x="592" y="452" on="0"/>
        <pt x="420" y="421" on="0"/>
        <pt x="312" y="371" on="0"/>
        <pt x="263" y="303" on="0"/>
        <pt x="263" y="261" on="1"/>
        <pt x="263" y="221" on="0"/>
        <pt x="289" y="163" on="0"/>
        <pt x="333" y="126" on="0"/>
        <pt x="393" y="109" on="0"/>
      </contour>
    </TTGlyph>
    <TTGlyph name="aacute" xMin="92" yMin="-16" xMax="890" yMax="1449">
      <component glyphName="a" x="0" y="0" flags="0x204"/>
      <component glyphName="acute" x="221" y="0" flags="0x4"/>
    </TTGlyph>
    <TTGlyph name="acircumflex" xMin="92" yMin="-16" xMax="890" yMax="1433">
      <component glyphName="a" x="0" y="0" flags="0x204"/>
      <component glyphName="circumflex" x="221" y="0" flags="0x4"/>
    </TTGlyph>
    <TTGlyph name="acute" xMin="196" yMin="1163" xMax="597" yMax="1449">
      <contour>
        <pt x="597" y="1449" on="1"/>
        <pt x="364" y="1191" on="1"/>
        <pt x="350" y="1176" on="0"/>
        <pt x="323" y="1163" on="0"/>
        <pt x="302" y="1163" on="1"/>
        <pt x="196" y="1163" on="1"/>
        <pt x="344" y="1405" on="1"/>
        <pt x="358" y="1428" on="0"/>
        <pt x="391" y="1449" on="0"/>
        <pt x="423" y="1449" on="1"/>
      </contour>
    </TTGlyph>
    <TTGlyph name="acute.case" xMin="162" yMin="1546" xMax="658" yMax="1782">
      <contour>
        <pt x="658" y="1782" on="1"/>
        <pt x="364" y="1566" on="1"/>
        <pt x="347" y="1554" on="0"/>
        <pt x="321" y="1546" on="0"/>
        <pt x="300" y="1546" on="1"/>
        <pt x="162" y="1546" on="1"/>
        <pt x="373" y="1749" on="1"/>
        <pt x="383" y="1759" on="0"/>
        <pt x="400" y="1771" on="0"/>
        <pt x="418" y="1779" on="0"/>
        <pt x="440" y="1782" on="0"/>
        <pt x="457" y="1782" on="1"/>
      </contour>
    </TTGlyph>
    <TTGlyph name="adieresis" xMin="92" yMin="-16" xMax="890" yMax="1403">
      <component glyphName="a" x="0" y="0" flags="0x204"/>
      <component glyphName="dieresis" x="221" y="0" flags="0x4"/>
    </TTGlyph>
    <TTGlyph name="ae" xMin="92" yMin="-16" xMax="1551" yMax="1031">
      <contour>
        <pt x="1166" y="1029" on="1"/>
        <pt x="1248" y="1029" on="0"/>
        <pt x="1389" y="965" on="0"/>
        <pt x="1492" y="843" on="0"/>
        <pt x="1551" y="668" on="0"/>
        <pt x="1551" y="556" on="1"/>
        <pt x="1551" y="515" on="0"/>
        <pt x="1535" y="486" on="0"/>
        <pt x="1510" y="486" on="1"/>
        <pt x="883" y="486" on="1"/>
        <pt x="887" y="395" on="0"/>
        <pt x="933" y="260" on="0"/>
        <pt x="1010" y="170" on="0"/>
        <pt x="1115" y="126" on="0"/>
        <pt x="1180" y="126" on="1"/>
        <pt x="1249" y="126" on="0"/>
        <pt x="1341" y="155" on="0"/>
        <pt x="1402" y="191" on="0"/>
        <pt x="1440" y="220" on="0"/>
        <pt x="1456" y="220" on="1"/>
        <pt x="1470" y="220" on="0"/>
        <pt x="1488" y="211" on="0"/>
        <pt x="1494" y="203" on="1"/>
        <pt x="1541" y="142" on="1"/>
        <pt x="1508" y="102" on="0"/>
        <pt x="1421" y="43" on="0"/>
        <pt x="1322" y="5" on="0"/>
        <pt x="1216" y="-14" on="0"/>
        <pt x="1164" y="-14" on="1"/>
        <pt x="1047" y="-14" on="0"/>
        <pt x="856" y="99" on="0"/>
        <pt x="801" y="215" on="1"/>
        <pt x="774" y="153" on="0"/>
        <pt x="687" y="65" on="0"/>
        <pt x="581" y="9" on="0"/>
        <pt x="462" y="-16" on="0"/>
        <pt x="403" y="-16" on="1"/>
        <pt x="334" y="-16" on="0"/>
        <pt x="220" y="19" on="0"/>
        <pt x="137" y="89" on="0"/>
        <pt x="92" y="195" on="0"/>
        <pt x="92" y="267" on="1"/>
        <pt x="92" y="327" on="0"/>
        <pt x="158" y="443" on="0"/>
        <pt x="305" y="535" on="0"/>
        <pt x="543" y="594" on="0"/>
        <pt x="715" y="598" on="1"/>
        <pt x="715" y="648" on="1"/>
        <pt x="715" y="766" on="0"/>
        <pt x="614" y="892" on="0"/>
        <pt x="515" y="892" on="1"/>
        <pt x="450" y="892" on="0"/>
        <pt x="361" y="857" on="0"/>
        <pt x="296" y="815" on="0"/>
        <pt x="249" y="780" on="0"/>
        <pt x="226" y="780" on="1"/>
        <pt x="208" y="780" on="0"/>
        <pt x="181" y="799" on="0"/>
        <pt x="173" y="813" on="1"/>
        <pt x="141" y="870" on="1"/>
        <pt x="225" y="951" on="0"/>
        <pt x="406" y="1031" on="0"/>
        <pt x="519" y="1031" on="1"/>
        <pt x="639" y="1031" on="0"/>
        <pt x="785" y="929" on="0"/>
        <pt x="818" y="838" on="1"/>
        <pt x="872" y="926" on="0"/>
        <pt x="1045" y="1029" on="0"/>
      </contour>
      <contour>
        <pt x="715" y="486" on="1"/>
        <pt x="592" y="481" on="0"/>
        <pt x="420" y="446" on="0"/>
        <pt x="312" y="390" on="0"/>
        <pt x="263" y="318" on="0"/>
        <pt x="263" y="276" on="1"/>
        <pt x="263" y="189" on="0"/>
        <pt x="363" y="109" on="0"/>
        <pt x="444" y="109" on="1"/>
        <pt x="501" y="109" on="0"/>
        <pt x="600" y="145" on="0"/>
        <pt x="673" y="219" on="0"/>
        <pt x="715" y="329" on="0"/>
        <pt x="715" y="403" on="1"/>
      </contour>
      <contour>
        <pt x="1159" y="898" on="1"/>
        <pt x="1098" y="898" on="0"/>
        <pt x="1002" y="857" on="0"/>
        <pt x="933" y="779" on="0"/>
        <pt x="892" y="667" on="0"/>
        <pt x="885" y="597" on="1"/>
        <pt x="1393" y="597" on="1"/>
        <pt x="1393" y="662" on="0"/>
        <pt x="1362" y="773" on="0"/>
        <pt x="1302" y="853" on="0"/>
        <pt x="1215" y="898" on="0"/>
      </contour>
    </TTGlyph>
    <TTGlyph name="agrave" xMin="92" yMin="-16" xMax="890" yMax="1449">
      <component glyphName="a" x="0" y="0" flags="0x204"/>
      <component glyphName="grave" x="221" y="0" flags="0x4"/>
    </TTGlyph>
    <TTGlyph name="ampersand" xMin="82" yMin="-16" xMax="1400" yMax="1449">
      <contour>
        <pt x="660" y="1449" on="1"/>
        <pt x="739" y="1449" on="0"/>
        <pt x="869" y="1398" on="0"/>
        <pt x="964" y="1314" on="0"/>
        <pt x="1019" y="1203" on="0"/>
        <pt x="1023" y="1143" on="1"/>
        <pt x="912" y="1121" on="1"/>
        <pt x="907" y="1120" on="0"/>
        <pt x="903" y="1120" on="1"/>
        <pt x="890" y="1120" on="0"/>
        <pt x="867" y="1134" on="0"/>
        <pt x="862" y="1152" on="1"/>
        <pt x="855" y="1178" on="0"/>
        <pt x="824" y="1234" on="0"/>
        <pt x="775" y="1280" on="0"/>
        <pt x="706" y="1310" on="0"/>
        <pt x="660" y="1310" on="1"/>
        <pt x="610" y="1310" on="0"/>
        <pt x="530" y="1278" on="0"/>
        <pt x="473" y="1221" on="0"/>
        <pt x="442" y="1144" on="0"/>
        <pt x="442" y="1099" on="1"/>
        <pt x="442" y="1064" on="0"/>
        <pt x="459" y="1000" on="0"/>
        <pt x="493" y="935" on="0"/>
        <pt x="547" y="866" on="0"/>
        <pt x="585" y="828" on="1"/>
        <pt x="997" y="409" on="1"/>
        <pt x="1035" y="476" on="0"/>
        <pt x="1080" y="623" on="0"/>
        <pt x="1088" y="697" on="1"/>
        <pt x="1090" y="716" on="0"/>
        <pt x="1110" y="738" on="0"/>
        <pt x="1128" y="738" on="1"/>
        <pt x="1238" y="738" on="1"/>
        <pt x="1236" y="623" on="0"/>
        <pt x="1166" y="401" on="0"/>
        <pt x="1100" y="304" on="1"/>
        <pt x="1400" y="0" on="1"/>
        <pt x="1228" y="0" on="1"/>
        <pt x="1199" y="0" on="0"/>
        <pt x="1163" y="14" on="0"/>
        <pt x="1141" y="36" on="1"/>
        <pt x="997" y="181" on="1"/>
        <pt x="903" y="90" on="0"/>
        <pt x="658" y="-16" on="0"/>
        <pt x="511" y="-16" on="1"/>
        <pt x="431" y="-16" on="0"/>
        <pt x="277" y="38" on="0"/>
        <pt x="156" y="141" on="0"/>
        <pt x="82" y="289" on="0"/>
        <pt x="82" y="382" on="1"/>
        <pt x="82" y="452" on="0"/>
        <pt x="129" y="577" on="0"/>
        <pt x="212" y="683" on="0"/>
        <pt x="326" y="767" on="0"/>
        <pt x="394" y="797" on="1"/>
        <pt x="333" y="874" on="0"/>
        <pt x="275" y="1020" on="0"/>
        <pt x="275" y="1098" on="1"/>
        <pt x="275" y="1171" on="0"/>
        <pt x="328" y="1299" on="0"/>
        <pt x="428" y="1394" on="0"/>
        <pt x="571" y="1449" on="0"/>
      </contour>
      <contour>
        <pt x="263" y="396" on="1"/>
        <pt x="263" y="331" on="0"/>
        <pt x="311" y="232" on="0"/>
        <pt x="389" y="164" on="0"/>
        <pt x="489" y="129" on="0"/>
        <pt x="541" y="129" on="1"/>
        <pt x="653" y="129" on="0"/>
        <pt x="831" y="211" on="0"/>
        <pt x="899" y="279" on="1"/>
        <pt x="476" y="706" on="1"/>
        <pt x="370" y="649" on="0"/>
        <pt x="263" y="490" on="0"/>
      </contour>
    </TTGlyph>
    <TTGlyph name="aogonek" xMin="92" yMin="-342" xMax="1000" yMax="1031">
      <contour>
        <pt x="890" y="0" on="1"/>
        <pt x="870" y="-11" on="0"/>
        <pt x="828" y="-42" on="0"/>
        <pt x="794" y="-81" on="0"/>
        <pt x="772" y="-128" on="0"/>
        <pt x="772" y="-154" on="1"/>
        <pt x="772" y="-192" on="0"/>
        <pt x="821" y="-235" on="0"/>
        <pt x="863" y="-235" on="1"/>
        <pt x="886" y="-235" on="0"/>
        <pt x="916" y="-228" on="0"/>
        <pt x="936" y="-219" on="0"/>
        <pt x="949" y="-211" on="0"/>
        <pt x="954" y="-211" on="1"/>
        <pt x="961" y="-211" on="0"/>
        <pt x="970" y="-219" on="0"/>
        <pt x="972" y="-224" on="1"/>
        <pt x="1000" y="-290" on="1"/>
        <pt x="970" y="-313" on="0"/>
        <pt x="877" y="-342" on="0"/>
        <pt x="826" y="-342" on="1"/>
        <pt x="738" y="-342" on="0"/>
        <pt x="637" y="-263" on="0"/>
        <pt x="637" y="-197" on="1"/>
        <pt x="637" y="-168" on="0"/>
        <pt x="659" y="-112" on="0"/>
        <pt x="698" y="-61" on="0"/>
        <pt x="751" y="-16" on="0"/>
        <pt x="782" y="3" on="1"/>
        <pt x="758" y="10" on="0"/>
        <pt x="748" y="42" on="1"/>
        <pt x="728" y="136" on="1"/>
        <pt x="688" y="100" on="0"/>
        <pt x="612" y="43" on="0"/>
        <pt x="528" y="4" on="0"/>
        <pt x="433" y="-16" on="0"/>
        <pt x="375" y="-16" on="1"/>
        <pt x="316" y="-16" on="0"/>
        <pt x="213" y="17" on="0"/>
        <pt x="137" y="83" on="0"/>
        <pt x="92" y="184" on="0"/>
        <pt x="92" y="253" on="1"/>
        <pt x="92" y="313" on="0"/>
        <pt x="158" y="424" on="0"/>
        <pt x="305" y="510" on="0"/>
        <pt x="543" y="565" on="0"/>
        <pt x="715" y="569" on="1"/>
        <pt x="715" y="648" on="1"/>
        <pt x="715" y="766" on="0"/>
        <pt x="614" y="887" on="0"/>
        <pt x="515" y="887" on="1"/>
        <pt x="450" y="887" on="0"/>
        <pt x="361" y="854" on="0"/>
        <pt x="296" y="813" on="0"/>
        <pt x="249" y="780" on="0"/>
        <pt x="226" y="780" on="1"/>
        <pt x="208" y="780" on="0"/>
        <pt x="182" y="799" on="0"/>
        <pt x="173" y="813" on="1"/>
        <pt x="141" y="870" on="1"/>
        <pt x="225" y="951" on="0"/>
        <pt x="419" y="1031" on="0"/>
        <pt x="537" y="1031" on="1"/>
        <pt x="622" y="1031" on="0"/>
        <pt x="754" y="975" on="0"/>
        <pt x="844" y="875" on="0"/>
        <pt x="890" y="733" on="0"/>
        <pt x="890" y="648" on="1"/>
      </contour>
      <contour>
        <pt x="428" y="109" on="1"/>
        <pt x="475" y="109" on="0"/>
        <pt x="553" y="128" on="0"/>
        <pt x="622" y="163" on="0"/>
        <pt x="685" y="213" on="0"/>
        <pt x="715" y="245" on="1"/>
        <pt x="715" y="456" on="1"/>
        <pt x="592" y="452" on="0"/>
        <pt x="420" y="421" on="0"/>
        <pt x="312" y="371" on="0"/>
        <pt x="263" y="303" on="0"/>
        <pt x="263" y="261" on="1"/>
        <pt x="263" y="221" on="0"/>
        <pt x="289" y="163" on="0"/>
        <pt x="333" y="126" on="0"/>
        <pt x="393" y="109" on="0"/>
      </contour>
    </TTGlyph>
    <TTGlyph name="approxequal" xMin="176" yMin="382" xMax="984" yMax="965">
      <contour>
        <pt x="787" y="858" on="1"/>
        <pt x="816" y="858" on="0"/>
        <pt x="870" y="872" on="0"/>
        <pt x="916" y="893" on="0"/>
        <pt x="950" y="917" on="0"/>
        <pt x="959" y="928" on="1"/>
        <pt x="984" y="814" on="1"/>
        <pt x="949" y="767" on="0"/>
        <pt x="837" y="721" on="0"/>
        <pt x="776" y="721" on="1"/>
        <pt x="724" y="721" on="0"/>
        <pt x="621" y="754" on="0"/>
        <pt x="520" y="794" on="0"/>
        <pt x="425" y="827" on="0"/>
        <pt x="380" y="827" on="1"/>
        <pt x="350" y="827" on="0"/>
        <pt x="294" y="814" on="0"/>
        <pt x="248" y="793" on="0"/>
        <pt x="214" y="768" on="0"/>
        <pt x="205" y="756" on="1"/>
        <pt x="176" y="865" on="1"/>
        <pt x="211" y="916" on="0"/>
        <pt x="324" y="965" on="0"/>
        <pt x="390" y="965" on="1"/>
        <pt x="443" y="965" on="0"/>
        <pt x="547" y="932" on="0"/>
        <pt x="647" y="891" on="0"/>
        <pt x="742" y="858" on="0"/>
      </contour>
      <contour>
        <pt x="787" y="520" on="1"/>
        <pt x="816" y="520" on="0"/>
        <pt x="870" y="533" on="0"/>
        <pt x="916" y="554" on="0"/>
        <pt x="950" y="578" on="0"/>
        <pt x="959" y="589" on="1"/>
        <pt x="984" y="476" on="1"/>
        <pt x="949" y="428" on="0"/>
        <pt x="837" y="382" on="0"/>
        <pt x="776" y="382" on="1"/>
        <pt x="724" y="382" on="0"/>
        <pt x="621" y="415" on="0"/>
        <pt x="520" y="456" on="0"/>
        <pt x="425" y="489" on="0"/>
        <pt x="380" y="489" on="1"/>
        <pt x="350" y="489" on="0"/>
        <pt x="294" y="475" on="0"/>
        <pt x="248" y="454" on="0"/>
        <pt x="214" y="429" on="0"/>
        <pt x="205" y="417" on="1"/>
        <pt x="176" y="526" on="1"/>
        <pt x="211" y="577" on="0"/>
        <pt x="324" y="626" on="0"/>
        <pt x="390" y="626" on="1"/>
        <pt x="443" y="626" on="0"/>
        <pt x="547" y="593" on="0"/>
        <pt x="647" y="553" on="0"/>
        <pt x="742" y="520" on="0"/>
      </contour>
    </TTGlyph>
    <TTGlyph name="aring" xMin="92" yMin="-16" xMax="890" yMax="1502">
      <component glyphName="a" x="0" y="0" flags="0x204"/>
      <component glyphName="ring" x="222" y="0" flags="0x4"/>
    </TTGlyph>
    <TTGlyph name="asciicircum" xMin="158" yMin="787" xMax="989" yMax="1433">
      <contour>
        <pt x="516" y="1433" on="1"/>
        <pt x="631" y="1433" on="1"/>
        <pt x="989" y="787" on="1"/>
        <pt x="860" y="787" on="1"/>
        <pt x="843" y="787" on="0"/>
        <pt x="819" y="807" on="0"/>
        <pt x="811" y="821" on="1"/>
        <pt x="615" y="1173" on="1"/>
        <pt x="602" y="1196" on="0"/>
        <pt x="583" y="1239" on="0"/>
        <pt x="576" y="1260" on="1"/>
        <pt x="562" y="1216" on="0"/>
        <pt x="539" y="1173" on="1"/>
        <pt x="345" y="821" on="1"/>
        <pt x="337" y="807" on="0"/>
        <pt x="314" y="787" on="0"/>
        <pt x="294" y="787" on="1"/>
        <pt x="158" y="787" on="1"/>
      </contour>
    </TTGlyph>
    <TTGlyph name="asciitilde" xMin="116" yMin="414" xMax="1042" yMax="768">
      <contour>
        <pt x="759" y="613" on="1"/>
        <pt x="824" y="613" on="0"/>
        <pt x="897" y="698" on="0"/>
        <pt x="898" y="768" on="1"/>
        <pt x="1042" y="768" on="1"/>
        <pt x="1042" y="701" on="0"/>
        <pt x="1005" y="589" on="0"/>
        <pt x="936" y="509" on="0"/>
        <pt x="834" y="465" on="0"/>
        <pt x="770" y="465" on="1"/>
        <pt x="718" y="465" on="0"/>
        <pt x="616" y="497" on="0"/>
        <pt x="521" y="536" on="0"/>
        <pt x="435" y="569" on="0"/>
        <pt x="399" y="569" on="1"/>
        <pt x="334" y="569" on="0"/>
        <pt x="261" y="485" on="0"/>
        <pt x="260" y="414" on="1"/>
        <pt x="116" y="414" on="1"/>
        <pt x="116" y="481" on="0"/>
        <pt x="153" y="593" on="0"/>
        <pt x="222" y="673" on="0"/>
        <pt x="323" y="718" on="0"/>
        <pt x="388" y="718" on="1"/>
        <pt x="440" y="718" on="0"/>
        <pt x="542" y="685" on="0"/>
        <pt x="637" y="646" on="0"/>
        <pt x="723" y="613" on="0"/>
      </contour>
    </TTGlyph>
    <TTGlyph name="asterisk" xMin="96" yMin="863" xMax="700" yMax="1506">
      <contour>
        <pt x="354" y="863" on="1"/>
        <pt x="354" y="1060" on="1"/>
        <pt x="354" y="1079" on="0"/>
        <pt x="359" y="1113" on="0"/>
        <pt x="366" y="1129" on="1"/>
        <pt x="346" y="1104" on="0"/>
        <pt x="313" y="1084" on="1"/>
        <pt x="141" y="985" on="1"/>
        <pt x="97" y="1060" on="1"/>
        <pt x="269" y="1160" on="1"/>
        <pt x="305" y="1181" on="0"/>
        <pt x="342" y="1184" on="1"/>
        <pt x="322" y="1186" on="0"/>
        <pt x="287" y="1197" on="0"/>
        <pt x="269" y="1209" on="1"/>
        <pt x="96" y="1310" on="1"/>
        <pt x="140" y="1385" on="1"/>
        <pt x="313" y="1285" on="1"/>
        <pt x="348" y="1265" on="0"/>
        <pt x="370" y="1233" on="1"/>
        <pt x="361" y="1251" on="0"/>
        <pt x="354" y="1288" on="0"/>
        <pt x="354" y="1308" on="1"/>
        <pt x="354" y="1506" on="1"/>
        <pt x="442" y="1506" on="1"/>
        <pt x="442" y="1309" on="1"/>
        <pt x="442" y="1268" on="0"/>
        <pt x="428" y="1237" on="1"/>
        <pt x="439" y="1252" on="0"/>
        <pt x="466" y="1274" on="0"/>
        <pt x="483" y="1285" on="1"/>
        <pt x="655" y="1384" on="1"/>
        <pt x="699" y="1309" on="1"/>
        <pt x="527" y="1209" on="1"/>
        <pt x="510" y="1198" on="0"/>
        <pt x="477" y="1186" on="0"/>
        <pt x="459" y="1184" on="1"/>
        <pt x="477" y="1182" on="0"/>
        <pt x="510" y="1171" on="0"/>
        <pt x="527" y="1160" on="1"/>
        <pt x="700" y="1059" on="1"/>
        <pt x="656" y="984" on="1"/>
        <pt x="483" y="1084" on="1"/>
        <pt x="465" y="1095" on="0"/>
        <pt x="437" y="1117" on="0"/>
        <pt x="426" y="1133" on="1"/>
        <pt x="442" y="1100" on="0"/>
        <pt x="442" y="1061" on="1"/>
        <pt x="442" y="863" on="1"/>
      </contour>
    </TTGlyph>
    <TTGlyph name="at" xMin="86" yMin="-239" xMax="1564" yMax="1359">
      <contour>
        <pt x="1167" y="186" on="1"/>
        <pt x="1089" y="186" on="0"/>
        <pt x="991" y="261" on="0"/>
        <pt x="978" y="339" on="1"/>
        <pt x="920" y="258" on="0"/>
        <pt x="784" y="188" on="0"/>
        <pt x="706" y="188" on="1"/>
        <pt x="646" y="188" on="0"/>
        <pt x="558" y="229" on="0"/>
        <pt x="499" y="302" on="0"/>
        <pt x="470" y="402" on="0"/>
        <pt x="470" y="460" on="1"/>
        <pt x="470" y="545" on="0"/>
        <pt x="535" y="718" on="0"/>
        <pt x="663" y="857" on="0"/>
        <pt x="854" y="945" on="0"/>
        <pt x="979" y="945" on="1"/>
        <pt x="1046" y="945" on="0"/>
        <pt x="1147" y="924" on="0"/>
        <pt x="1192" y="904" on="1"/>
        <pt x="1099" y="543" on="1"/>
        <pt x="1080" y="468" on="0"/>
        <pt x="1080" y="419" on="1"/>
        <pt x="1080" y="383" on="0"/>
        <pt x="1098" y="336" on="0"/>
        <pt x="1129" y="309" on="0"/>
        <pt x="1170" y="299" on="0"/>
        <pt x="1193" y="299" on="1"/>
        <pt x="1242" y="299" on="0"/>
        <pt x="1330" y="355" on="0"/>
        <pt x="1397" y="457" on="0"/>
        <pt x="1436" y="600" on="0"/>
        <pt x="1436" y="687" on="1"/>
        <pt x="1436" y="825" on="0"/>
        <pt x="1347" y="1033" on="0"/>
        <pt x="1192" y="1172" on="0"/>
        <pt x="981" y="1241" on="0"/>
        <pt x="859" y="1241" on="1"/>
        <pt x="725" y="1241" on="0"/>
        <pt x="491" y="1139" on="0"/>
        <pt x="317" y="959" on="0"/>
        <pt x="217" y="713" on="0"/>
        <pt x="217" y="568" on="1"/>
        <pt x="217" y="398" on="0"/>
        <pt x="324" y="141" on="0"/>
        <pt x="509" y="-33" on="0"/>
        <pt x="758" y="-121" on="0"/>
        <pt x="901" y="-121" on="1"/>
        <pt x="1053" y="-121" on="0"/>
        <pt x="1286" y="-55" on="0"/>
        <pt x="1371" y="-4" on="1"/>
        <pt x="1386" y="5" on="0"/>
        <pt x="1398" y="5" on="1"/>
        <pt x="1419" y="5" on="0"/>
        <pt x="1429" y="-19" on="1"/>
        <pt x="1454" y="-85" on="1"/>
        <pt x="1347" y="-157" on="0"/>
        <pt x="1074" y="-239" on="0"/>
        <pt x="901" y="-239" on="1"/>
        <pt x="728" y="-239" on="0"/>
        <pt x="430" y="-129" on="0"/>
        <pt x="211" y="78" on="0"/>
        <pt x="86" y="378" on="0"/>
        <pt x="86" y="568" on="1"/>
        <pt x="86" y="677" on="0"/>
        <pt x="141" y="879" on="0"/>
        <pt x="241" y="1054" on="0"/>
        <pt x="381" y="1199" on="0"/>
        <pt x="553" y="1302" on="0"/>
        <pt x="751" y="1359" on="0"/>
        <pt x="859" y="1359" on="1"/>
        <pt x="951" y="1359" on="0"/>
        <pt x="1127" y="1319" on="0"/>
        <pt x="1284" y="1241" on="0"/>
        <pt x="1416" y="1126" on="0"/>
        <pt x="1511" y="977" on="0"/>
        <pt x="1564" y="794" on="0"/>
        <pt x="1564" y="687" on="1"/>
        <pt x="1564" y="579" on="0"/>
        <pt x="1503" y="396" on="0"/>
        <pt x="1396" y="262" on="0"/>
        <pt x="1251" y="186" on="0"/>
      </contour>
      <contour>
        <pt x="741" y="306" on="1"/>
        <pt x="772" y="306" on="0"/>
        <pt x="835" y="326" on="0"/>
        <pt x="894" y="376" on="0"/>
        <pt x="943" y="462" on="0"/>
        <pt x="960" y="527" on="1"/>
        <pt x="1036" y="822" on="1"/>
        <pt x="997" y="831" on="0"/>
        <pt x="951" y="831" on="1"/>
        <pt x="876" y="831" on="0"/>
        <pt x="751" y="768" on="0"/>
        <pt x="661" y="666" on="0"/>
        <pt x="610" y="534" on="0"/>
        <pt x="610" y="465" on="1"/>
        <pt x="610" y="393" on="0"/>
        <pt x="676" y="306" on="0"/>
      </contour>
    </TTGlyph>
    <TTGlyph name="atilde" xMin="92" yMin="-16" xMax="890" yMax="1417">
      <component glyphName="a" x="0" y="0" flags="0x204"/>
      <component glyphName="tilde" x="221" y="0" flags="0x4"/>
    </TTGlyph>
    <TTGlyph name="b" xMin="152" yMin="-14" xMax="1046" yMax="1473">
      <contour>
        <pt x="152" y="0" on="1"/>
        <pt x="152" y="1473" on="1"/>
        <pt x="331" y="1473" on="1"/>
        <pt x="331" y="867" on="1"/>
        <pt x="394" y="940" on="0"/>
        <pt x="557" y="1029" on="0"/>
        <pt x="662" y="1029" on="1"/>
        <pt x="750" y="1029" on="0"/>
        <pt x="892" y="963" on="0"/>
        <pt x="992" y="832" on="0"/>
        <pt x="1046" y="639" on="0"/>
        <pt x="1046" y="513" on="1"/>
        <pt x="1046" y="401" on="0"/>
        <pt x="986" y="208" on="0"/>
        <pt x="873" y="67" on="0"/>
        <pt x="710" y="-14" on="0"/>
        <pt x="608" y="-14" on="1"/>
        <pt x="510" y="-14" on="0"/>
        <pt x="373" y="62" on="0"/>
        <pt x="322" y="130" on="1"/>
        <pt x="313" y="38" on="1"/>
        <pt x="305" y="0" on="0"/>
        <pt x="267" y="0" on="1"/>
      </contour>
      <contour>
        <pt x="604" y="887" on="1"/>
        <pt x="517" y="887" on="0"/>
        <pt x="386" y="807" on="0"/>
        <pt x="331" y="734" on="1"/>
        <pt x="331" y="244" on="1"/>
        <pt x="379" y="178" on="0"/>
        <pt x="496" y="124" on="0"/>
        <pt x="568" y="124" on="1"/>
        <pt x="710" y="124" on="0"/>
        <pt x="862" y="326" on="0"/>
        <pt x="862" y="513" on="1"/>
        <pt x="862" y="612" on="0"/>
        <pt x="827" y="754" on="0"/>
        <pt x="761" y="845" on="0"/>
        <pt x="665" y="887" on="0"/>
      </contour>
    </TTGlyph>
    <TTGlyph name="backslash" xMin="-20" yMin="-90" xMax="751" yMax="1473">
      <contour>
        <pt x="-20" y="1473" on="1"/>
        <pt x="56" y="1473" on="1"/>
        <pt x="89" y="1473" on="0"/>
        <pt x="137" y="1439" on="0"/>
        <pt x="150" y="1407" on="1"/>
        <pt x="751" y="-90" on="1"/>
        <pt x="676" y="-90" on="1"/>
        <pt x="647" y="-90" on="0"/>
        <pt x="591" y="-56" on="0"/>
        <pt x="578" y="-21" on="1"/>
      </contour>
    </TTGlyph>
    <TTGlyph name="bar" xMin="230" yMin="-343" xMax="368" yMax="1533">
      <contour>
        <pt x="230" y="1533" on="1"/>
        <pt x="368" y="1533" on="1"/>
        <pt x="368" y="-343" on="1"/>
        <pt x="230" y="-343" on="1"/>
      </contour>
    </TTGlyph>
    <TTGlyph name="braceleft" xMin="44" yMin="-289" xMax="512" yMax="1533">
      <contour>
        <pt x="181" y="425" on="1"/>
        <pt x="181" y="488" on="0"/>
        <pt x="111" y="569" on="0"/>
        <pt x="44" y="569" on="1"/>
        <pt x="44" y="676" on="1"/>
        <pt x="111" y="676" on="0"/>
        <pt x="181" y="756" on="0"/>
        <pt x="181" y="820" on="1"/>
        <pt x="181" y="870" on="0"/>
        <pt x="165" y="968" on="0"/>
        <pt x="146" y="1066" on="0"/>
        <pt x="130" y="1166" on="0"/>
        <pt x="130" y="1218" on="1"/>
        <pt x="130" y="1287" on="0"/>
        <pt x="171" y="1403" on="0"/>
        <pt x="254" y="1487" on="0"/>
        <pt x="377" y="1533" on="0"/>
        <pt x="459" y="1533" on="1"/>
        <pt x="512" y="1533" on="1"/>
        <pt x="512" y="1454" on="1"/>
        <pt x="512" y="1434" on="0"/>
        <pt x="484" y="1416" on="0"/>
        <pt x="472" y="1416" on="1"/>
        <pt x="452" y="1416" on="1"/>
        <pt x="375" y="1416" on="0"/>
        <pt x="286" y="1315" on="0"/>
        <pt x="286" y="1229" on="1"/>
        <pt x="286" y="1173" on="0"/>
        <pt x="300" y="1069" on="0"/>
        <pt x="318" y="970" on="0"/>
        <pt x="332" y="872" on="0"/>
        <pt x="332" y="822" on="1"/>
        <pt x="332" y="784" on="0"/>
        <pt x="310" y="719" on="0"/>
        <pt x="269" y="668" on="0"/>
        <pt x="214" y="631" on="0"/>
        <pt x="181" y="622" on="1"/>
        <pt x="214" y="613" on="0"/>
        <pt x="269" y="576" on="0"/>
        <pt x="310" y="524" on="0"/>
        <pt x="332" y="460" on="0"/>
        <pt x="332" y="423" on="1"/>
        <pt x="332" y="373" on="0"/>
        <pt x="318" y="275" on="0"/>
        <pt x="300" y="176" on="0"/>
        <pt x="286" y="72" on="0"/>
        <pt x="286" y="16" on="1"/>
        <pt x="286" y="-71" on="0"/>
        <pt x="375" y="-171" on="0"/>
        <pt x="452" y="-171" on="1"/>
        <pt x="472" y="-171" on="1"/>
        <pt x="484" y="-171" on="0"/>
        <pt x="512" y="-189" on="0"/>
        <pt x="512" y="-209" on="1"/>
        <pt x="512" y="-289" on="1"/>
        <pt x="459" y="-289" on="1"/>
        <pt x="377" y="-289" on="0"/>
        <pt x="254" y="-242" on="0"/>
        <pt x="171" y="-158" on="0"/>
        <pt x="130" y="-42" on="0"/>
        <pt x="130" y="27" on="1"/>
        <pt x="130" y="79" on="0"/>
        <pt x="146" y="178" on="0"/>
        <pt x="165" y="277" on="0"/>
        <pt x="181" y="375" on="0"/>
      </contour>
    </TTGlyph>
    <TTGlyph name="braceright" xMin="88" yMin="-289" xMax="556" yMax="1533">
      <contour>
        <pt x="419" y="425" on="1"/>
        <pt x="419" y="375" on="0"/>
        <pt x="435" y="277" on="0"/>
        <pt x="454" y="178" on="0"/>
        <pt x="470" y="79" on="0"/>
        <pt x="470" y="27" on="1"/>
        <pt x="470" y="-42" on="0"/>
        <pt x="428" y="-158" on="0"/>
        <pt x="346" y="-242" on="0"/>
        <pt x="223" y="-289" on="0"/>
        <pt x="141" y="-289" on="1"/>
        <pt x="88" y="-289" on="1"/>
        <pt x="88" y="-209" on="1"/>
        <pt x="88" y="-189" on="0"/>
        <pt x="116" y="-171" on="0"/>
        <pt x="128" y="-171" on="1"/>
        <pt x="148" y="-171" on="1"/>
        <pt x="225" y="-171" on="0"/>
        <pt x="314" y="-71" on="0"/>
        <pt x="314" y="16" on="1"/>
        <pt x="314" y="72" on="0"/>
        <pt x="300" y="176" on="0"/>
        <pt x="282" y="275" on="0"/>
        <pt x="268" y="373" on="0"/>
        <pt x="268" y="423" on="1"/>
        <pt x="268" y="460" on="0"/>
        <pt x="290" y="524" on="0"/>
        <pt x="331" y="576" on="0"/>
        <pt x="386" y="613" on="0"/>
        <pt x="419" y="622" on="1"/>
        <pt x="386" y="631" on="0"/>
        <pt x="331" y="668" on="0"/>
        <pt x="290" y="719" on="0"/>
        <pt x="268" y="784" on="0"/>
        <pt x="268" y="822" on="1"/>
        <pt x="268" y="872" on="0"/>
        <pt x="282" y="970" on="0"/>
        <pt x="300" y="1069" on="0"/>
        <pt x="314" y="1173" on="0"/>
        <pt x="314" y="1229" on="1"/>
        <pt x="314" y="1315" on="0"/>
        <pt x="225" y="1416" on="0"/>
        <pt x="148" y="1416" on="1"/>
        <pt x="128" y="1416" on="1"/>
        <pt x="116" y="1416" on="0"/>
        <pt x="88" y="1434" on="0"/>
        <pt x="88" y="1454" on="1"/>
        <pt x="88" y="1533" on="1"/>
        <pt x="141" y="1533" on="1"/>
        <pt x="223" y="1533" on="0"/>
        <pt x="346" y="1487" on="0"/>
        <pt x="428" y="1403" on="0"/>
        <pt x="470" y="1287" on="0"/>
        <pt x="470" y="1218" on="1"/>
        <pt x="470" y="1166" on="0"/>
        <pt x="454" y="1066" on="0"/>
        <pt x="435" y="968" on="0"/>
        <pt x="419" y="870" on="0"/>
        <pt x="419" y="820" on="1"/>
        <pt x="419" y="756" on="0"/>
        <pt x="489" y="676" on="0"/>
        <pt x="556" y="676" on="1"/>
        <pt x="556" y="569" on="1"/>
        <pt x="489" y="569" on="0"/>
        <pt x="419" y="488" on="0"/>
      </contour>
    </TTGlyph>
    <TTGlyph name="bracketleft" xMin="142" yMin="-289" xMax="510" yMax="1533">
      <contour>
        <pt x="142" y="-289" on="1"/>
        <pt x="142" y="1533" on="1"/>
        <pt x="510" y="1533" on="1"/>
        <pt x="510" y="1463" on="1"/>
        <pt x="510" y="1441" on="0"/>
        <pt x="483" y="1416" on="0"/>
        <pt x="461" y="1416" on="1"/>
        <pt x="292" y="1416" on="1"/>
        <pt x="292" y="-171" on="1"/>
        <pt x="461" y="-171" on="1"/>
        <pt x="483" y="-171" on="0"/>
        <pt x="510" y="-196" on="0"/>
        <pt x="510" y="-219" on="1"/>
        <pt x="510" y="-289" on="1"/>
      </contour>
    </TTGlyph>
    <TTGlyph name="bracketright" xMin="90" yMin="-289" xMax="458" yMax="1533">
      <contour>
        <pt x="90" y="-219" on="1"/>
        <pt x="90" y="-199" on="0"/>
        <pt x="117" y="-171" on="0"/>
        <pt x="139" y="-171" on="1"/>
        <pt x="308" y="-171" on="1"/>
        <pt x="308" y="1416" on="1"/>
        <pt x="139" y="1416" on="1"/>
        <pt x="117" y="1416" on="0"/>
        <pt x="90" y="1443" on="0"/>
        <pt x="90" y="1463" on="1"/>
        <pt x="90" y="1533" on="1"/>
        <pt x="458" y="1533" on="1"/>
        <pt x="458" y="-289" on="1"/>
        <pt x="90" y="-289" on="1"/>
      </contour>
    </TTGlyph>
    <TTGlyph name="breve" xMin="32" yMin="1164" xMax="580" yMax="1433">
      <contour>
        <pt x="306" y="1164" on="1"/>
        <pt x="229" y="1164" on="0"/>
        <pt x="125" y="1207" on="0"/>
        <pt x="60" y="1280" on="0"/>
        <pt x="32" y="1378" on="0"/>
        <pt x="32" y="1433" on="1"/>
        <pt x="158" y="1433" on="1"/>
        <pt x="158" y="1400" on="0"/>
        <pt x="172" y="1343" on="0"/>
        <pt x="206" y="1303" on="0"/>
        <pt x="263" y="1280" on="0"/>
        <pt x="306" y="1280" on="1"/>
        <pt x="349" y="1280" on="0"/>
        <pt x="406" y="1303" on="0"/>
        <pt x="440" y="1343" on="0"/>
        <pt x="454" y="1400" on="0"/>
        <pt x="454" y="1433" on="1"/>
        <pt x="580" y="1433" on="1"/>
        <pt x="580" y="1378" on="0"/>
        <pt x="552" y="1280" on="0"/>
        <pt x="487" y="1207" on="0"/>
        <pt x="382" y="1164" on="0"/>
      </contour>
    </TTGlyph>
    <TTGlyph name="breve.case" xMin="28" yMin="1527" xMax="586" yMax="1756">
      <contour>
        <pt x="307" y="1527" on="1"/>
        <pt x="170" y="1527" on="0"/>
        <pt x="28" y="1642" on="0"/>
        <pt x="28" y="1756" on="1"/>
        <pt x="143" y="1756" on="1"/>
        <pt x="143" y="1697" on="0"/>
        <pt x="221" y="1636" on="0"/>
        <pt x="307" y="1636" on="1"/>
        <pt x="393" y="1636" on="0"/>
        <pt x="471" y="1697" on="0"/>
        <pt x="471" y="1756" on="1"/>
        <pt x="586" y="1756" on="1"/>
        <pt x="586" y="1651" on="0"/>
        <pt x="443" y="1527" on="0"/>
      </contour>
    </TTGlyph>
    <TTGlyph name="brokenbar" xMin="230" yMin="-343" xMax="368" yMax="1533">
      <contour>
        <pt x="230" y="1533" on="1"/>
        <pt x="368" y="1533" on="1"/>
        <pt x="368" y="739" on="1"/>
        <pt x="230" y="739" on="1"/>
      </contour>
      <contour>
        <pt x="230" y="452" on="1"/>
        <pt x="368" y="452" on="1"/>
        <pt x="368" y="-343" on="1"/>
        <pt x="230" y="-343" on="1"/>
      </contour>
    </TTGlyph>
    <TTGlyph name="bullet" xMin="208" yMin="224" xMax="951" yMax="968">
      <contour>
        <pt x="208" y="595" on="1"/>
        <pt x="208" y="672" on="0"/>
        <pt x="267" y="808" on="0"/>
        <pt x="367" y="909" on="0"/>
        <pt x="502" y="968" on="0"/>
        <pt x="578" y="968" on="1"/>
        <pt x="655" y="968" on="0"/>
        <pt x="791" y="909" on="0"/>
        <pt x="892" y="808" on="0"/>
        <pt x="951" y="672" on="0"/>
        <pt x="951" y="595" on="1"/>
        <pt x="951" y="518" on="0"/>
        <pt x="892" y="383" on="0"/>
        <pt x="791" y="283" on="0"/>
        <pt x="655" y="224" on="0"/>
        <pt x="578" y="224" on="1"/>
        <pt x="502" y="224" on="0"/>
        <pt x="367" y="283" on="0"/>
        <pt x="267" y="383" on="0"/>
        <pt x="208" y="518" on="0"/>
      </contour>
    </TTGlyph>
    <TTGlyph name="c" xMin="74" yMin="-14" xMax="895" yMax="1029">
      <contour>
        <pt x="837" y="833" on="1"/>
        <pt x="829" y="822" on="0"/>
        <pt x="813" y="810" on="0"/>
        <pt x="798" y="810" on="1"/>
        <pt x="783" y="810" on="0"/>
        <pt x="748" y="835" on="0"/>
        <pt x="694" y="865" on="0"/>
        <pt x="617" y="890" on="0"/>
        <pt x="561" y="890" on="1"/>
        <pt x="487" y="890" on="0"/>
        <pt x="373" y="837" on="0"/>
        <pt x="296" y="737" on="0"/>
        <pt x="257" y="595" on="0"/>
        <pt x="257" y="507" on="1"/>
        <pt x="257" y="415" on="0"/>
        <pt x="299" y="272" on="0"/>
        <pt x="375" y="175" on="0"/>
        <pt x="484" y="124" on="0"/>
        <pt x="552" y="124" on="1"/>
        <pt x="617" y="124" on="0"/>
        <pt x="701" y="155" on="0"/>
        <pt x="757" y="193" on="0"/>
        <pt x="793" y="224" on="0"/>
        <pt x="811" y="224" on="1"/>
        <pt x="834" y="224" on="0"/>
        <pt x="845" y="207" on="1"/>
        <pt x="895" y="142" on="1"/>
        <pt x="829" y="61" on="0"/>
        <pt x="631" y="-14" on="0"/>
        <pt x="521" y="-14" on="1"/>
        <pt x="426" y="-14" on="0"/>
        <pt x="263" y="56" on="0"/>
        <pt x="143" y="189" on="0"/>
        <pt x="74" y="383" on="0"/>
        <pt x="74" y="507" on="1"/>
        <pt x="74" y="620" on="0"/>
        <pt x="137" y="812" on="0"/>
        <pt x="258" y="951" on="0"/>
        <pt x="436" y="1029" on="0"/>
        <pt x="551" y="1029" on="1"/>
        <pt x="657" y="1029" on="0"/>
        <pt x="821" y="960" on="0"/>
        <pt x="884" y="897" on="1"/>
      </contour>
    </TTGlyph>
    <TTGlyph name="cacute" xMin="74" yMin="-14" xMax="895" yMax="1449">
      <component glyphName="c" x="0" y="0" flags="0x204"/>
      <component glyphName="acute" x="243" y="0" flags="0x4"/>
    </TTGlyph>
    <TTGlyph name="caron" xMin="0" yMin="1169" xMax="612" yMax="1433">
      <contour>
        <pt x="0" y="1433" on="1"/>
        <pt x="123" y="1433" on="1"/>
        <pt x="135" y="1433" on="0"/>
        <pt x="157" y="1423" on="0"/>
        <pt x="163" y="1418" on="1"/>
        <pt x="291" y="1293" on="1"/>
        <pt x="302" y="1284" on="0"/>
        <pt x="308" y="1274" on="1"/>
        <pt x="313" y="1279" on="0"/>
        <pt x="320" y="1289" on="0"/>
        <pt x="325" y="1293" on="1"/>
        <pt x="453" y="1418" on="1"/>
        <pt x="459" y="1424" on="0"/>
        <pt x="482" y="1433" on="0"/>
        <pt x="493" y="1433" on="1"/>
        <pt x="612" y="1433" on="1"/>
        <pt x="389" y="1169" on="1"/>
        <pt x="223" y="1169" on="1"/>
      </contour>
    </TTGlyph>
    <TTGlyph name="caron.case" xMin="-20" yMin="1546" xMax="632" yMax="1756">
      <contour>
        <pt x="394" y="1546" on="1"/>
        <pt x="218" y="1546" on="1"/>
        <pt x="-20" y="1756" on="1"/>
        <pt x="115" y="1756" on="1"/>
        <pt x="127" y="1756" on="0"/>
        <pt x="155" y="1749" on="0"/>
        <pt x="164" y="1743" on="1"/>
        <pt x="294" y="1649" on="1"/>
        <pt x="297" y="1647" on="0"/>
        <pt x="304" y="1641" on="0"/>
        <pt x="306" y="1638" on="1"/>
        <pt x="308" y="1641" on="0"/>
        <pt x="315" y="1647" on="0"/>
        <pt x="318" y="1649" on="1"/>
        <pt x="448" y="1743" on="1"/>
        <pt x="457" y="1749" on="0"/>
        <pt x="485" y="1756" on="0"/>
        <pt x="497" y="1756" on="1"/>
        <pt x="632" y="1756" on="1"/>
      </contour>
    </TTGlyph>
    <TTGlyph name="caron.salt" xMin="210" yMin="1148" xMax="418" yMax="1475">
      <contour>
        <pt x="385" y="1475" on="1"/>
        <pt x="407" y="1475" on="0"/>
        <pt x="418" y="1454" on="0"/>
        <pt x="418" y="1442" on="1"/>
        <pt x="418" y="1432" on="0"/>
        <pt x="411" y="1399" on="0"/>
        <pt x="393" y="1340" on="0"/>
        <pt x="361" y="1250" on="0"/>
        <pt x="336" y="1184" on="1"/>
        <pt x="326" y="1162" on="0"/>
        <pt x="297" y="1148" on="0"/>
        <pt x="272" y="1148" on="1"/>
        <pt x="210" y="1148" on="1"/>
        <pt x="267" y="1475" on="1"/>
      </contour>
    </TTGlyph>
    <TTGlyph name="ccedilla" xMin="74" yMin="-351" xMax="895" yMax="1029">
      <contour>
        <pt x="400" y="-247" on="1"/>
        <pt x="406" y="-247" on="0"/>
        <pt x="422" y="-254" on="0"/>
        <pt x="444" y="-263" on="0"/>
        <pt x="476" y="-270" on="0"/>
        <pt x="497" y="-270" on="1"/>
        <pt x="539" y="-270" on="0"/>
        <pt x="582" y="-237" on="0"/>
        <pt x="582" y="-211" on="1"/>
        <pt x="582" y="-192" on="0"/>
        <pt x="560" y="-166" on="0"/>
        <pt x="519" y="-148" on="0"/>
        <pt x="459" y="-136" on="0"/>
        <pt x="421" y="-131" on="1"/>
        <pt x="458" y="-10" on="1"/>
        <pt x="375" y="1" on="0"/>
        <pt x="234" y="80" on="0"/>
        <pt x="132" y="212" on="0"/>
        <pt x="74" y="394" on="0"/>
        <pt x="74" y="507" on="1"/>
        <pt x="74" y="620" on="0"/>
        <pt x="137" y="812" on="0"/>
        <pt x="258" y="951" on="0"/>
        <pt x="436" y="1029" on="0"/>
        <pt x="551" y="1029" on="1"/>
        <pt x="657" y="1029" on="0"/>
        <pt x="821" y="960" on="0"/>
        <pt x="884" y="897" on="1"/>
        <pt x="837" y="833" on="1"/>
        <pt x="829" y="822" on="0"/>
        <pt x="813" y="810" on="0"/>
        <pt x="798" y="810" on="1"/>
        <pt x="783" y="810" on="0"/>
        <pt x="748" y="835" on="0"/>
        <pt x="694" y="865" on="0"/>
        <pt x="617" y="890" on="0"/>
        <pt x="561" y="890" on="1"/>
        <pt x="487" y="890" on="0"/>
        <pt x="373" y="837" on="0"/>
        <pt x="296" y="737" on="0"/>
        <pt x="257" y="595" on="0"/>
        <pt x="257" y="507" on="1"/>
        <pt x="257" y="415" on="0"/>
        <pt x="299" y="272" on="0"/>
        <pt x="375" y="175" on="0"/>
        <pt x="484" y="124" on="0"/>
        <pt x="552" y="124" on="1"/>
        <pt x="617" y="124" on="0"/>
        <pt x="701" y="155" on="0"/>
        <pt x="757" y="193" on="0"/>
        <pt x="793" y="224" on="0"/>
        <pt x="811" y="224" on="1"/>
        <pt x="822" y="224" on="0"/>
        <pt x="839" y="215" on="0"/>
        <pt x="845" y="207" on="1"/>
        <pt x="895" y="142" on="1"/>
        <pt x="836" y="70" on="0"/>
        <pt x="666" y="-4" on="0"/>
        <pt x="569" y="-12" on="1"/>
        <pt x="552" y="-70" on="1"/>
        <pt x="642" y="-90" on="0"/>
        <pt x="723" y="-159" on="0"/>
        <pt x="723" y="-213" on="1"/>
        <pt x="723" y="-245" on="0"/>
        <pt x="691" y="-296" on="0"/>
        <pt x="634" y="-332" on="0"/>
        <pt x="554" y="-351" on="0"/>
        <pt x="506" y="-351" on="1"/>
        <pt x="465" y="-351" on="0"/>
        <pt x="391" y="-334" on="0"/>
        <pt x="360" y="-320" on="1"/>
        <pt x="377" y="-265" on="1"/>
        <pt x="383" y="-247" on="0"/>
      </contour>
    </TTGlyph>
    <TTGlyph name="cedilla" xMin="132" yMin="-351" xMax="495" yMax="10">
      <contour>
        <pt x="172" y="-247" on="1"/>
        <pt x="178" y="-247" on="0"/>
        <pt x="194" y="-254" on="0"/>
        <pt x="216" y="-263" on="0"/>
        <pt x="248" y="-270" on="0"/>
        <pt x="269" y="-270" on="1"/>
        <pt x="311" y="-270" on="0"/>
        <pt x="354" y="-237" on="0"/>
        <pt x="354" y="-211" on="1"/>
        <pt x="354" y="-192" on="0"/>
        <pt x="332" y="-166" on="0"/>
        <pt x="291" y="-148" on="0"/>
        <pt x="231" y="-136" on="0"/>
        <pt x="193" y="-131" on="1"/>
        <pt x="236" y="10" on="1"/>
        <pt x="348" y="10" on="1"/>
        <pt x="324" y="-70" on="1"/>
        <pt x="414" y="-90" on="0"/>
        <pt x="495" y="-159" on="0"/>
        <pt x="495" y="-213" on="1"/>
        <pt x="495" y="-245" on="0"/>
        <pt x="463" y="-296" on="0"/>
        <pt x="406" y="-332" on="0"/>
        <pt x="326" y="-351" on="0"/>
        <pt x="278" y="-351" on="1"/>
        <pt x="237" y="-351" on="0"/>
        <pt x="163" y="-334" on="0"/>
        <pt x="132" y="-320" on="1"/>
        <pt x="149" y="-265" on="1"/>
        <pt x="155" y="-247" on="0"/>
      </contour>
    </TTGlyph>
    <TTGlyph name="cent" xMin="138" yMin="-235" xMax="1026" yMax="1254">
      <contour>
        <pt x="561" y="-11" on="1"/>
        <pt x="469" y="-1" on="0"/>
        <pt x="314" y="78" on="0"/>
        <pt x="201" y="210" on="0"/>
        <pt x="138" y="392" on="0"/>
        <pt x="138" y="506" on="1"/>
        <pt x="138" y="617" on="0"/>
        <pt x="204" y="804" on="0"/>
        <pt x="330" y="942" on="0"/>
        <pt x="514" y="1023" on="0"/>
        <pt x="633" y="1026" on="1"/>
        <pt x="645" y="1205" on="1"/>
        <pt x="647" y="1225" on="0"/>
        <pt x="674" y="1254" on="0"/>
        <pt x="695" y="1254" on="1"/>
        <pt x="761" y="1254" on="1"/>
        <pt x="745" y="1021" on="1"/>
        <pt x="827" y="1009" on="0"/>
        <pt x="959" y="946" on="0"/>
        <pt x="1013" y="897" on="1"/>
        <pt x="967" y="835" on="1"/>
        <pt x="959" y="824" on="0"/>
        <pt x="944" y="813" on="0"/>
        <pt x="930" y="813" on="1"/>
        <pt x="918" y="813" on="0"/>
        <pt x="885" y="830" on="0"/>
        <pt x="840" y="854" on="0"/>
        <pt x="777" y="878" on="0"/>
        <pt x="735" y="885" on="1"/>
        <pt x="683" y="123" on="1"/>
        <pt x="746" y="127" on="0"/>
        <pt x="831" y="158" on="0"/>
        <pt x="890" y="192" on="0"/>
        <pt x="928" y="220" on="0"/>
        <pt x="944" y="220" on="1"/>
        <pt x="955" y="220" on="0"/>
        <pt x="973" y="211" on="0"/>
        <pt x="978" y="204" on="1"/>
        <pt x="1026" y="141" on="1"/>
        <pt x="966" y="69" on="0"/>
        <pt x="781" y="-5" on="0"/>
        <pt x="674" y="-12" on="1"/>
        <pt x="662" y="-187" on="1"/>
        <pt x="660" y="-206" on="0"/>
        <pt x="633" y="-235" on="0"/>
        <pt x="612" y="-235" on="1"/>
        <pt x="546" y="-235" on="1"/>
      </contour>
      <contour>
        <pt x="315" y="506" on="1"/>
        <pt x="315" y="344" on="0"/>
        <pt x="450" y="152" on="0"/>
        <pt x="571" y="129" on="1"/>
        <pt x="623" y="889" on="1"/>
        <pt x="547" y="883" on="0"/>
        <pt x="432" y="826" on="0"/>
        <pt x="354" y="727" on="0"/>
        <pt x="315" y="591" on="0"/>
      </contour>
    </TTGlyph>
    <TTGlyph name="circumflex" xMin="0" yMin="1169" xMax="612" yMax="1433">
      <contour>
        <pt x="612" y="1169" on="1"/>
        <pt x="493" y="1169" on="1"/>
        <pt x="472" y="1169" on="0"/>
        <pt x="453" y="1183" on="1"/>
        <pt x="325" y="1309" on="1"/>
        <pt x="308" y="1326" on="1"/>
        <pt x="292" y="1309" on="1"/>
        <pt x="163" y="1183" on="1"/>
        <pt x="157" y="1178" on="0"/>
        <pt x="135" y="1169" on="0"/>
        <pt x="123" y="1169" on="1"/>
        <pt x="0" y="1169" on="1"/>
        <pt x="223" y="1433" on="1"/>
        <pt x="389" y="1433" on="1"/>
      </contour>
    </TTGlyph>
    <TTGlyph name="circumflex.case" xMin="-20" yMin="1546" xMax="632" yMax="1756">
      <contour>
        <pt x="632" y="1546" on="1"/>
        <pt x="497" y="1546" on="1"/>
        <pt x="485" y="1546" on="0"/>
        <pt x="457" y="1553" on="0"/>
        <pt x="448" y="1559" on="1"/>
        <pt x="318" y="1654" on="1"/>
        <pt x="310" y="1658" on="0"/>
        <pt x="306" y="1662" on="1"/>
        <pt x="298" y="1656" on="0"/>
        <pt x="294" y="1654" on="1"/>
        <pt x="164" y="1559" on="1"/>
        <pt x="155" y="1553" on="0"/>
        <pt x="127" y="1546" on="0"/>
        <pt x="115" y="1546" on="1"/>
        <pt x="-20" y="1546" on="1"/>
        <pt x="218" y="1756" on="1"/>
        <pt x="394" y="1756" on="1"/>
      </contour>
    </TTGlyph>
    <TTGlyph name="colon" xMin="128" yMin="-15" xMax="377" yMax="986">
      <contour>
        <pt x="128" y="110" on="1"/>
        <pt x="128" y="136" on="0"/>
        <pt x="147" y="182" on="0"/>
        <pt x="180" y="216" on="0"/>
        <pt x="226" y="236" on="0"/>
        <pt x="252" y="236" on="1"/>
        <pt x="278" y="236" on="0"/>
        <pt x="324" y="216" on="0"/>
        <pt x="358" y="182" on="0"/>
        <pt x="377" y="136" on="0"/>
        <pt x="377" y="110" on="1"/>
        <pt x="377" y="83" on="0"/>
        <pt x="358" y="38" on="0"/>
        <pt x="324" y="4" on="0"/>
        <pt x="278" y="-15" on="0"/>
        <pt x="252" y="-15" on="1"/>
        <pt x="226" y="-15" on="0"/>
        <pt x="180" y="4" on="0"/>
        <pt x="147" y="38" on="0"/>
        <pt x="128" y="83" on="0"/>
      </contour>
      <contour>
        <pt x="128" y="860" on="1"/>
        <pt x="128" y="886" on="0"/>
        <pt x="147" y="932" on="0"/>
        <pt x="180" y="966" on="0"/>
        <pt x="226" y="986" on="0"/>
        <pt x="252" y="986" on="1"/>
        <pt x="278" y="986" on="0"/>
        <pt x="324" y="966" on="0"/>
        <pt x="358" y="932" on="0"/>
        <pt x="377" y="886" on="0"/>
        <pt x="377" y="860" on="1"/>
        <pt x="377" y="833" on="0"/>
        <pt x="358" y="788" on="0"/>
        <pt x="324" y="754" on="0"/>
        <pt x="278" y="735" on="0"/>
        <pt x="252" y="735" on="1"/>
        <pt x="226" y="735" on="0"/>
        <pt x="180" y="754" on="0"/>
        <pt x="147" y="788" on="0"/>
        <pt x="128" y="833" on="0"/>
      </contour>
    </TTGlyph>
    <TTGlyph name="comma" xMin="94" yMin="-271" xMax="336" yMax="236">
      <contour>
        <pt x="94" y="123" on="1"/>
        <pt x="94" y="146" on="0"/>
        <pt x="111" y="187" on="0"/>
        <pt x="142" y="218" on="0"/>
        <pt x="186" y="236" on="0"/>
        <pt x="212" y="236" on="1"/>
        <pt x="242" y="236" on="0"/>
        <pt x="289" y="214" on="0"/>
        <pt x="320" y="175" on="0"/>
        <pt x="336" y="124" on="0"/>
        <pt x="336" y="94" on="1"/>
        <pt x="336" y="49" on="0"/>
        <pt x="310" y="-48" on="0"/>
        <pt x="262" y="-143" on="0"/>
        <pt x="191" y="-233" on="0"/>
        <pt x="146" y="-271" on="1"/>
        <pt x="116" y="-242" on="1"/>
        <pt x="103" y="-230" on="0"/>
        <pt x="103" y="-214" on="1"/>
        <pt x="103" y="-201" on="0"/>
        <pt x="117" y="-187" on="1"/>
        <pt x="127" y="-176" on="0"/>
        <pt x="158" y="-139" on="0"/>
        <pt x="190" y="-91" on="0"/>
        <pt x="217" y="-33" on="0"/>
        <pt x="223" y="0" on="1"/>
        <pt x="210" y="0" on="1"/>
        <pt x="184" y="0" on="0"/>
        <pt x="142" y="18" on="0"/>
        <pt x="111" y="51" on="0"/>
        <pt x="94" y="96" on="0"/>
      </contour>
    </TTGlyph>
    <TTGlyph name="copyright" xMin="68" yMin="-14" xMax="1529" yMax="1448">
      <contour>
        <pt x="1030" y="463" on="1"/>
        <pt x="1038" y="468" on="0"/>
        <pt x="1049" y="475" on="0"/>
        <pt x="1055" y="475" on="1"/>
        <pt x="1066" y="475" on="0"/>
        <pt x="1074" y="469" on="0"/>
        <pt x="1080" y="463" on="1"/>
        <pt x="1141" y="399" on="1"/>
        <pt x="1084" y="333" on="0"/>
        <pt x="918" y="260" on="0"/>
        <pt x="802" y="260" on="1"/>
        <pt x="704" y="260" on="0"/>
        <pt x="543" y="328" on="0"/>
        <pt x="428" y="450" on="0"/>
        <pt x="365" y="618" on="0"/>
        <pt x="365" y="718" on="1"/>
        <pt x="365" y="819" on="0"/>
        <pt x="434" y="988" on="0"/>
        <pt x="556" y="1109" on="0"/>
        <pt x="723" y="1176" on="0"/>
        <pt x="821" y="1176" on="1"/>
        <pt x="929" y="1176" on="0"/>
        <pt x="1081" y="1108" on="0"/>
        <pt x="1138" y="1053" on="1"/>
        <pt x="1092" y="988" on="1"/>
        <pt x="1087" y="982" on="0"/>
        <pt x="1071" y="970" on="0"/>
        <pt x="1059" y="970" on="1"/>
        <pt x="1045" y="970" on="0"/>
        <pt x="1014" y="992" on="0"/>
        <pt x="964" y="1019" on="0"/>
        <pt x="888" y="1042" on="0"/>
        <pt x="829" y="1042" on="1"/>
        <pt x="759" y="1042" on="0"/>
        <pt x="646" y="997" on="0"/>
        <pt x="567" y="913" on="0"/>
        <pt x="524" y="793" on="0"/>
        <pt x="524" y="718" on="1"/>
        <pt x="524" y="641" on="0"/>
        <pt x="567" y="520" on="0"/>
        <pt x="643" y="438" on="0"/>
        <pt x="749" y="395" on="0"/>
        <pt x="811" y="395" on="1"/>
        <pt x="859" y="395" on="0"/>
        <pt x="925" y="407" on="0"/>
        <pt x="973" y="427" on="0"/>
        <pt x="1010" y="451" on="0"/>
      </contour>
      <contour>
        <pt x="68" y="716" on="1"/>
        <pt x="68" y="817" on="0"/>
        <pt x="120" y="1004" on="0"/>
        <pt x="215" y="1167" on="0"/>
        <pt x="349" y="1300" on="0"/>
        <pt x="511" y="1396" on="0"/>
        <pt x="697" y="1448" on="0"/>
        <pt x="798" y="1448" on="1"/>
        <pt x="899" y="1448" on="0"/>
        <pt x="1086" y="1396" on="0"/>
        <pt x="1248" y="1300" on="0"/>
        <pt x="1382" y="1167" on="0"/>
        <pt x="1477" y="1004" on="0"/>
        <pt x="1529" y="817" on="0"/>
        <pt x="1529" y="716" on="1"/>
        <pt x="1529" y="616" on="0"/>
        <pt x="1477" y="429" on="0"/>
        <pt x="1382" y="267" on="0"/>
        <pt x="1248" y="134" on="0"/>
        <pt x="1086" y="38" on="0"/>
        <pt x="899" y="-14" on="0"/>
        <pt x="798" y="-14" on="1"/>
        <pt x="697" y="-14" on="0"/>
        <pt x="511" y="38" on="0"/>
        <pt x="349" y="134" on="0"/>
        <pt x="215" y="267" on="0"/>
        <pt x="120" y="429" on="0"/>
        <pt x="68" y="615" on="0"/>
      </contour>
      <contour>
        <pt x="168" y="716" on="1"/>
        <pt x="168" y="627" on="0"/>
        <pt x="212" y="463" on="0"/>
        <pt x="294" y="320" on="0"/>
        <pt x="408" y="204" on="0"/>
        <pt x="548" y="121" on="0"/>
        <pt x="710" y="76" on="0"/>
        <pt x="798" y="76" on="1"/>
        <pt x="930" y="76" on="0"/>
        <pt x="1161" y="176" on="0"/>
        <pt x="1332" y="349" on="0"/>
        <pt x="1431" y="582" on="0"/>
        <pt x="1431" y="716" on="1"/>
        <pt x="1431" y="805" on="0"/>
        <pt x="1386" y="971" on="0"/>
        <pt x="1304" y="1114" on="0"/>
        <pt x="1189" y="1232" on="0"/>
        <pt x="1049" y="1315" on="0"/>
        <pt x="886" y="1361" on="0"/>
        <pt x="798" y="1361" on="1"/>
        <pt x="666" y="1361" on="0"/>
        <pt x="436" y="1260" on="0"/>
        <pt x="266" y="1085" on="0"/>
        <pt x="168" y="850" on="0"/>
      </contour>
    </TTGlyph>
    <TTGlyph name="currency" xMin="132" yMin="224" xMax="1028" yMax="1120">
      <contour>
        <pt x="223" y="672" on="1"/>
        <pt x="223" y="729" on="0"/>
        <pt x="256" y="830" on="0"/>
        <pt x="285" y="874" on="1"/>
        <pt x="132" y="1027" on="1"/>
        <pt x="223" y="1117" on="1"/>
        <pt x="374" y="965" on="1"/>
        <pt x="418" y="996" on="0"/>
        <pt x="522" y="1030" on="0"/>
        <pt x="580" y="1030" on="1"/>
        <pt x="637" y="1030" on="0"/>
        <pt x="739" y="997" on="0"/>
        <pt x="782" y="967" on="1"/>
        <pt x="935" y="1120" on="1"/>
        <pt x="1024" y="1029" on="1"/>
        <pt x="873" y="877" on="1"/>
        <pt x="904" y="833" on="0"/>
        <pt x="938" y="730" on="0"/>
        <pt x="938" y="672" on="1"/>
        <pt x="938" y="615" on="0"/>
        <pt x="905" y="513" on="0"/>
        <pt x="876" y="470" on="1"/>
        <pt x="1028" y="319" on="1"/>
        <pt x="937" y="227" on="1"/>
        <pt x="785" y="379" on="1"/>
        <pt x="741" y="349" on="0"/>
        <pt x="637" y="315" on="0"/>
        <pt x="580" y="315" on="1"/>
        <pt x="523" y="315" on="0"/>
        <pt x="422" y="348" on="0"/>
        <pt x="378" y="377" on="1"/>
        <pt x="225" y="224" on="1"/>
        <pt x="136" y="315" on="1"/>
        <pt x="287" y="467" on="1"/>
        <pt x="257" y="511" on="0"/>
        <pt x="223" y="614" on="0"/>
      </contour>
      <contour>
        <pt x="355" y="672" on="1"/>
        <pt x="355" y="626" on="0"/>
        <pt x="390" y="545" on="0"/>
        <pt x="452" y="484" on="0"/>
        <pt x="533" y="448" on="0"/>
        <pt x="580" y="448" on="1"/>
        <pt x="627" y="448" on="0"/>
        <pt x="710" y="484" on="0"/>
        <pt x="771" y="545" on="0"/>
        <pt x="807" y="626" on="0"/>
        <pt x="807" y="672" on="1"/>
        <pt x="807" y="719" on="0"/>
        <pt x="771" y="801" on="0"/>
        <pt x="710" y="863" on="0"/>
        <pt x="627" y="898" on="0"/>
        <pt x="580" y="898" on="1"/>
        <pt x="533" y="898" on="0"/>
        <pt x="452" y="863" on="0"/>
        <pt x="390" y="801" on="0"/>
        <pt x="355" y="719" on="0"/>
      </contour>
    </TTGlyph>
    <TTGlyph name="d" xMin="72" yMin="-14" xMax="965" yMax="1473">
      <contour>
        <pt x="859" y="0" on="1"/>
        <pt x="821" y="0" on="0"/>
        <pt x="811" y="37" on="1"/>
        <pt x="795" y="160" on="1"/>
        <pt x="730" y="81" on="0"/>
        <pt x="563" y="-14" on="0"/>
        <pt x="455" y="-14" on="1"/>
        <pt x="368" y="-14" on="0"/>
        <pt x="226" y="53" on="0"/>
        <pt x="126" y="183" on="0"/>
        <pt x="72" y="377" on="0"/>
        <pt x="72" y="503" on="1"/>
        <pt x="72" y="615" on="0"/>
        <pt x="132" y="808" on="0"/>
        <pt x="245" y="950" on="0"/>
        <pt x="407" y="1031" on="0"/>
        <pt x="510" y="1031" on="1"/>
        <pt x="603" y="1031" on="0"/>
        <pt x="735" y="968" on="0"/>
        <pt x="787" y="911" on="1"/>
        <pt x="787" y="1473" on="1"/>
        <pt x="965" y="1473" on="1"/>
        <pt x="965" y="0" on="1"/>
      </contour>
      <contour>
        <pt x="514" y="130" on="1"/>
        <pt x="601" y="130" on="0"/>
        <pt x="732" y="210" on="0"/>
        <pt x="787" y="283" on="1"/>
        <pt x="787" y="773" on="1"/>
        <pt x="738" y="839" on="0"/>
        <pt x="621" y="892" on="0"/>
        <pt x="550" y="892" on="1"/>
        <pt x="408" y="892" on="0"/>
        <pt x="256" y="690" on="0"/>
        <pt x="256" y="503" on="1"/>
        <pt x="256" y="404" on="0"/>
        <pt x="290" y="263" on="0"/>
        <pt x="356" y="172" on="0"/>
        <pt x="452" y="130" on="0"/>
      </contour>
    </TTGlyph>
    <TTGlyph name="dagger" xMin="118" yMin="-358" xMax="1042" yMax="1474">
      <contour>
        <pt x="118" y="918" on="1"/>
        <pt x="118" y="949" on="0"/>
        <pt x="159" y="997" on="0"/>
        <pt x="202" y="997" on="1"/>
        <pt x="236" y="997" on="0"/>
        <pt x="312" y="988" on="0"/>
        <pt x="392" y="978" on="0"/>
        <pt x="472" y="966" on="0"/>
        <pt x="511" y="963" on="1"/>
        <pt x="487" y="1451" on="1"/>
        <pt x="527" y="1474" on="0"/>
        <pt x="580" y="1474" on="1"/>
        <pt x="635" y="1474" on="0"/>
        <pt x="673" y="1451" on="1"/>
        <pt x="650" y="963" on="1"/>
        <pt x="728" y="970" on="0"/>
        <pt x="889" y="996" on="0"/>
        <pt x="958" y="997" on="1"/>
        <pt x="1002" y="997" on="0"/>
        <pt x="1042" y="949" on="0"/>
        <pt x="1042" y="918" on="1"/>
        <pt x="1042" y="858" on="1"/>
        <pt x="650" y="858" on="1"/>
        <pt x="650" y="442" on="1"/>
        <pt x="673" y="-335" on="1"/>
        <pt x="635" y="-358" on="0"/>
        <pt x="580" y="-358" on="1"/>
        <pt x="527" y="-358" on="0"/>
        <pt x="487" y="-335" on="1"/>
        <pt x="511" y="442" on="1"/>
        <pt x="511" y="858" on="1"/>
        <pt x="118" y="858" on="1"/>
      </contour>
    </TTGlyph>
    <TTGlyph name="daggerdbl" xMin="118" yMin="-358" xMax="1042" yMax="1474">
      <contour>
        <pt x="118" y="918" on="1"/>
        <pt x="118" y="949" on="0"/>
        <pt x="159" y="997" on="0"/>
        <pt x="202" y="997" on="1"/>
        <pt x="236" y="997" on="0"/>
        <pt x="312" y="988" on="0"/>
        <pt x="392" y="978" on="0"/>
        <pt x="472" y="966" on="0"/>
        <pt x="511" y="963" on="1"/>
        <pt x="487" y="1451" on="1"/>
        <pt x="527" y="1474" on="0"/>
        <pt x="580" y="1474" on="1"/>
        <pt x="635" y="1474" on="0"/>
        <pt x="673" y="1451" on="1"/>
        <pt x="650" y="963" on="1"/>
        <pt x="728" y="970" on="0"/>
        <pt x="889" y="996" on="0"/>
        <pt x="958" y="997" on="1"/>
        <pt x="1002" y="997" on="0"/>
        <pt x="1042" y="949" on="0"/>
        <pt x="1042" y="918" on="1"/>
        <pt x="1042" y="858" on="1"/>
        <pt x="650" y="858" on="1"/>
        <pt x="650" y="258" on="1"/>
        <pt x="1042" y="258" on="1"/>
        <pt x="1042" y="198" on="1"/>
        <pt x="1042" y="167" on="0"/>
        <pt x="1002" y="119" on="0"/>
        <pt x="958" y="119" on="1"/>
        <pt x="889" y="120" on="0"/>
        <pt x="728" y="145" on="0"/>
        <pt x="650" y="152" on="1"/>
        <pt x="673" y="-335" on="1"/>
        <pt x="635" y="-358" on="0"/>
        <pt x="580" y="-358" on="1"/>
        <pt x="527" y="-358" on="0"/>
        <pt x="487" y="-335" on="1"/>
        <pt x="511" y="152" on="1"/>
        <pt x="433" y="145" on="0"/>
        <pt x="271" y="120" on="0"/>
        <pt x="202" y="119" on="1"/>
        <pt x="159" y="119" on="0"/>
        <pt x="118" y="167" on="0"/>
        <pt x="118" y="198" on="1"/>
        <pt x="118" y="258" on="1"/>
        <pt x="511" y="258" on="1"/>
        <pt x="511" y="858" on="1"/>
        <pt x="118" y="858" on="1"/>
      </contour>
    </TTGlyph>
    <TTGlyph name="degree" xMin="70" yMin="807" xMax="722" yMax="1450">
      <contour>
        <pt x="70" y="1128" on="1"/>
        <pt x="70" y="1195" on="0"/>
        <pt x="120" y="1313" on="0"/>
        <pt x="208" y="1400" on="0"/>
        <pt x="327" y="1450" on="0"/>
        <pt x="396" y="1450" on="1"/>
        <pt x="465" y="1450" on="0"/>
        <pt x="584" y="1400" on="0"/>
        <pt x="672" y="1313" on="0"/>
        <pt x="722" y="1195" on="0"/>
        <pt x="722" y="1128" on="1"/>
        <pt x="722" y="1062" on="0"/>
        <pt x="672" y="945" on="0"/>
        <pt x="584" y="858" on="0"/>
        <pt x="465" y="807" on="0"/>
        <pt x="396" y="807" on="1"/>
        <pt x="327" y="807" on="0"/>
        <pt x="208" y="858" on="0"/>
        <pt x="120" y="945" on="0"/>
        <pt x="70" y="1062" on="0"/>
      </contour>
      <contour>
        <pt x="197" y="1127" on="1"/>
        <pt x="197" y="1085" on="0"/>
        <pt x="227" y="1012" on="0"/>
        <pt x="281" y="958" on="0"/>
        <pt x="354" y="927" on="0"/>
        <pt x="396" y="927" on="1"/>
        <pt x="438" y="927" on="0"/>
        <pt x="510" y="958" on="0"/>
        <pt x="564" y="1012" on="0"/>
        <pt x="594" y="1085" on="0"/>
        <pt x="594" y="1127" on="1"/>
        <pt x="594" y="1169" on="0"/>
        <pt x="564" y="1243" on="0"/>
        <pt x="510" y="1298" on="0"/>
        <pt x="438" y="1329" on="0"/>
        <pt x="396" y="1329" on="1"/>
        <pt x="354" y="1329" on="0"/>
        <pt x="281" y="1298" on="0"/>
        <pt x="227" y="1243" on="0"/>
        <pt x="197" y="1169" on="0"/>
      </contour>
    </TTGlyph>
    <TTGlyph name="dieresis" xMin="14" yMin="1178" xMax="598" yMax="1403">
      <contour>
        <pt x="239" y="1289" on="1"/>
        <pt x="239" y="1266" on="0"/>
        <pt x="221" y="1226" on="0"/>
        <pt x="189" y="1196" on="0"/>
        <pt x="148" y="1178" on="0"/>
        <pt x="125" y="1178" on="1"/>
        <pt x="103" y="1178" on="0"/>
        <pt x="63" y="1196" on="0"/>
        <pt x="32" y="1226" on="0"/>
        <pt x="14" y="1266" on="0"/>
        <pt x="14" y="1289" on="1"/>
        <pt x="14" y="1312" on="0"/>
        <pt x="32" y="1354" on="0"/>
        <pt x="63" y="1385" on="0"/>
        <pt x="103" y="1403" on="0"/>
        <pt x="125" y="1403" on="1"/>
        <pt x="148" y="1403" on="0"/>
        <pt x="189" y="1385" on="0"/>
        <pt x="221" y="1354" on="0"/>
        <pt x="239" y="1312" on="0"/>
      </contour>
      <contour>
        <pt x="598" y="1289" on="1"/>
        <pt x="598" y="1266" on="0"/>
        <pt x="580" y="1226" on="0"/>
        <pt x="549" y="1196" on="0"/>
        <pt x="508" y="1178" on="0"/>
        <pt x="485" y="1178" on="1"/>
        <pt x="462" y="1178" on="0"/>
        <pt x="421" y="1196" on="0"/>
        <pt x="391" y="1226" on="0"/>
        <pt x="373" y="1266" on="0"/>
        <pt x="373" y="1289" on="1"/>
        <pt x="373" y="1312" on="0"/>
        <pt x="391" y="1354" on="0"/>
        <pt x="421" y="1385" on="0"/>
        <pt x="462" y="1403" on="0"/>
        <pt x="485" y="1403" on="1"/>
        <pt x="508" y="1403" on="0"/>
        <pt x="549" y="1385" on="0"/>
        <pt x="580" y="1354" on="0"/>
        <pt x="598" y="1312" on="0"/>
      </contour>
    </TTGlyph>
    <TTGlyph name="dieresis.case" xMin="-16" yMin="1558" xMax="630" yMax="1778">
      <contour>
        <pt x="204" y="1666" on="1"/>
        <pt x="204" y="1644" on="0"/>
        <pt x="186" y="1605" on="0"/>
        <pt x="156" y="1575" on="0"/>
        <pt x="115" y="1558" on="0"/>
        <pt x="92" y="1558" on="1"/>
        <pt x="71" y="1558" on="0"/>
        <pt x="32" y="1575" on="0"/>
        <pt x="2" y="1605" on="0"/>
        <pt x="-16" y="1644" on="0"/>
        <pt x="-16" y="1666" on="1"/>
        <pt x="-16" y="1689" on="0"/>
        <pt x="2" y="1730" on="0"/>
        <pt x="32" y="1760" on="0"/>
        <pt x="71" y="1778" on="0"/>
        <pt x="92" y="1778" on="1"/>
        <pt x="115" y="1778" on="0"/>
        <pt x="156" y="1760" on="0"/>
        <pt x="186" y="1730" on="0"/>
        <pt x="204" y="1689" on="0"/>
      </contour>
      <contour>
        <pt x="630" y="1666" on="1"/>
        <pt x="630" y="1644" on="0"/>
        <pt x="612" y="1605" on="0"/>
        <pt x="582" y="1575" on="0"/>
        <pt x="542" y="1558" on="0"/>
        <pt x="520" y="1558" on="1"/>
        <pt x="497" y="1558" on="0"/>
        <pt x="457" y="1575" on="0"/>
        <pt x="427" y="1605" on="0"/>
        <pt x="410" y="1644" on="0"/>
        <pt x="410" y="1666" on="1"/>
        <pt x="410" y="1689" on="0"/>
        <pt x="427" y="1730" on="0"/>
        <pt x="457" y="1760" on="0"/>
        <pt x="497" y="1778" on="0"/>
        <pt x="520" y="1778" on="1"/>
        <pt x="542" y="1778" on="0"/>
        <pt x="582" y="1760" on="0"/>
        <pt x="612" y="1730" on="0"/>
        <pt x="630" y="1689" on="0"/>
      </contour>
    </TTGlyph>
    <TTGlyph name="divide" xMin="100" yMin="189" xMax="1058" yMax="1152">
      <contour>
        <pt x="100" y="739" on="1"/>
        <pt x="1058" y="739" on="1"/>
        <pt x="1058" y="604" on="1"/>
        <pt x="100" y="604" on="1"/>
      </contour>
      <contour>
        <pt x="454" y="1026" on="1"/>
        <pt x="454" y="1052" on="0"/>
        <pt x="473" y="1098" on="0"/>
        <pt x="506" y="1132" on="0"/>
        <pt x="551" y="1152" on="0"/>
        <pt x="578" y="1152" on="1"/>
        <pt x="604" y="1152" on="0"/>
        <pt x="649" y="1132" on="0"/>
        <pt x="683" y="1098" on="0"/>
        <pt x="703" y="1052" on="0"/>
        <pt x="703" y="1026" on="1"/>
        <pt x="703" y="999" on="0"/>
        <pt x="683" y="954" on="0"/>
        <pt x="649" y="920" on="0"/>
        <pt x="604" y="901" on="0"/>
        <pt x="578" y="901" on="1"/>
        <pt x="551" y="901" on="0"/>
        <pt x="506" y="920" on="0"/>
        <pt x="473" y="954" on="0"/>
        <pt x="454" y="999" on="0"/>
      </contour>
      <contour>
        <pt x="454" y="314" on="1"/>
        <pt x="454" y="340" on="0"/>
        <pt x="473" y="386" on="0"/>
        <pt x="506" y="420" on="0"/>
        <pt x="551" y="440" on="0"/>
        <pt x="578" y="440" on="1"/>
        <pt x="604" y="440" on="0"/>
        <pt x="649" y="420" on="0"/>
        <pt x="683" y="386" on="0"/>
        <pt x="703" y="340" on="0"/>
        <pt x="703" y="314" on="1"/>
        <pt x="703" y="287" on="0"/>
        <pt x="683" y="242" on="0"/>
        <pt x="649" y="208" on="0"/>
        <pt x="604" y="189" on="0"/>
        <pt x="578" y="189" on="1"/>
        <pt x="551" y="189" on="0"/>
        <pt x="506" y="208" on="0"/>
        <pt x="473" y="242" on="0"/>
        <pt x="454" y="287" on="0"/>
      </contour>
    </TTGlyph>
    <TTGlyph name="dollar" xMin="106" yMin="-238" xMax="1060" yMax="1639">
      <contour>
        <pt x="498" y="-12" on="1"/>
        <pt x="377" y="-1" on="0"/>
        <pt x="178" y="96" on="0"/>
        <pt x="106" y="171" on="1"/>
        <pt x="159" y="253" on="1"/>
        <pt x="166" y="264" on="0"/>
        <pt x="192" y="278" on="0"/>
        <pt x="206" y="278" on="1"/>
        <pt x="225" y="278" on="0"/>
        <pt x="273" y="240" on="0"/>
        <pt x="343" y="191" on="0"/>
        <pt x="440" y="145" on="0"/>
        <pt x="508" y="137" on="1"/>
        <pt x="545" y="668" on="1"/>
        <pt x="475" y="689" on="0"/>
        <pt x="340" y="742" on="0"/>
        <pt x="233" y="827" on="0"/>
        <pt x="168" y="956" on="0"/>
        <pt x="168" y="1053" on="1"/>
        <pt x="168" y="1126" on="0"/>
        <pt x="225" y="1265" on="0"/>
        <pt x="334" y="1373" on="0"/>
        <pt x="494" y="1442" on="0"/>
        <pt x="598" y="1446" on="1"/>
        <pt x="608" y="1590" on="1"/>
        <pt x="610" y="1609" on="0"/>
        <pt x="636" y="1639" on="0"/>
        <pt x="658" y="1639" on="1"/>
        <pt x="724" y="1639" on="1"/>
        <pt x="710" y="1441" on="1"/>
        <pt x="815" y="1428" on="0"/>
        <pt x="967" y="1346" on="0"/>
        <pt x="1027" y="1288" on="1"/>
        <pt x="984" y="1222" on="1"/>
        <pt x="964" y="1192" on="0"/>
        <pt x="938" y="1192" on="1"/>
        <pt x="924" y="1192" on="0"/>
        <pt x="883" y="1217" on="0"/>
        <pt x="825" y="1250" on="0"/>
        <pt x="749" y="1283" on="0"/>
        <pt x="700" y="1290" on="1"/>
        <pt x="667" y="806" on="1"/>
        <pt x="739" y="784" on="0"/>
        <pt x="879" y="732" on="0"/>
        <pt x="991" y="650" on="0"/>
        <pt x="1060" y="527" on="0"/>
        <pt x="1060" y="435" on="1"/>
        <pt x="1060" y="345" on="0"/>
        <pt x="1000" y="187" on="0"/>
        <pt x="885" y="67" on="0"/>
        <pt x="718" y="-8" on="0"/>
        <pt x="611" y="-14" on="1"/>
        <pt x="599" y="-190" on="1"/>
        <pt x="597" y="-209" on="0"/>
        <pt x="570" y="-238" on="0"/>
        <pt x="549" y="-238" on="1"/>
        <pt x="483" y="-238" on="1"/>
      </contour>
      <contour>
        <pt x="891" y="407" on="1"/>
        <pt x="891" y="457" on="0"/>
        <pt x="854" y="529" on="0"/>
        <pt x="790" y="581" on="0"/>
        <pt x="704" y="619" on="0"/>
        <pt x="655" y="635" on="1"/>
        <pt x="621" y="137" on="1"/>
        <pt x="686" y="143" on="0"/>
        <pt x="787" y="188" on="0"/>
        <pt x="856" y="258" on="0"/>
        <pt x="891" y="351" on="0"/>
      </contour>
      <contour>
        <pt x="336" y="1071" on="1"/>
        <pt x="336" y="1023" on="0"/>
        <pt x="370" y="952" on="0"/>
        <pt x="430" y="898" on="0"/>
        <pt x="510" y="858" on="0"/>
        <pt x="557" y="842" on="1"/>
        <pt x="587" y="1293" on="1"/>
        <pt x="522" y="1287" on="0"/>
        <pt x="427" y="1247" on="0"/>
        <pt x="366" y="1187" on="0"/>
        <pt x="336" y="1112" on="0"/>
      </contour>
    </TTGlyph>
    <TTGlyph name="dotaccent" xMin="180" yMin="1213" xMax="433" yMax="1466">
      <contour>
        <pt x="433" y="1338" on="1"/>
        <pt x="433" y="1312" on="0"/>
        <pt x="412" y="1267" on="0"/>
        <pt x="377" y="1233" on="0"/>
        <pt x="331" y="1213" on="0"/>
        <pt x="305" y="1213" on="1"/>
        <pt x="279" y="1213" on="0"/>
        <pt x="234" y="1233" on="0"/>
        <pt x="200" y="1267" on="0"/>
        <pt x="180" y="1312" on="0"/>
        <pt x="180" y="1338" on="1"/>
        <pt x="180" y="1364" on="0"/>
        <pt x="200" y="1411" on="0"/>
        <pt x="234" y="1446" on="0"/>
        <pt x="279" y="1466" on="0"/>
        <pt x="305" y="1466" on="1"/>
        <pt x="331" y="1466" on="0"/>
        <pt x="377" y="1446" on="0"/>
        <pt x="412" y="1411" on="0"/>
        <pt x="433" y="1364" on="0"/>
      </contour>
    </TTGlyph>
    <TTGlyph name="dotaccent.case" xMin="184" yMin="1567" xMax="428" yMax="1811">
      <contour>
        <pt x="428" y="1688" on="1"/>
        <pt x="428" y="1664" on="0"/>
        <pt x="408" y="1620" on="0"/>
        <pt x="374" y="1587" on="0"/>
        <pt x="329" y="1567" on="0"/>
        <pt x="304" y="1567" on="1"/>
        <pt x="280" y="1567" on="0"/>
        <pt x="236" y="1587" on="0"/>
        <pt x="203" y="1620" on="0"/>
        <pt x="184" y="1664" on="0"/>
        <pt x="184" y="1688" on="1"/>
        <pt x="184" y="1713" on="0"/>
        <pt x="203" y="1757" on="0"/>
        <pt x="236" y="1791" on="0"/>
        <pt x="280" y="1811" on="0"/>
        <pt x="304" y="1811" on="1"/>
        <pt x="329" y="1811" on="0"/>
        <pt x="374" y="1791" on="0"/>
        <pt x="408" y="1757" on="0"/>
        <pt x="428" y="1713" on="0"/>
      </contour>
    </TTGlyph>
    <TTGlyph name="dotlessi" xMin="166" yMin="0" xMax="344" yMax="1013">
      <contour>
        <pt x="344" y="1013" on="1"/>
        <pt x="344" y="0" on="1"/>
        <pt x="166" y="0" on="1"/>
        <pt x="166" y="1013" on="1"/>
      </contour>
    </TTGlyph>
    <TTGlyph name="e" xMin="74" yMin="-14" xMax="967" yMax="1029">
      <contour>
        <pt x="547" y="1029" on="1"/>
        <pt x="638" y="1029" on="0"/>
        <pt x="792" y="968" on="0"/>
        <pt x="904" y="853" on="0"/>
        <pt x="967" y="684" on="0"/>
        <pt x="967" y="576" on="1"/>
        <pt x="967" y="534" on="0"/>
        <pt x="949" y="506" on="0"/>
        <pt x="924" y="506" on="1"/>
        <pt x="250" y="506" on="1"/>
        <pt x="252" y="410" on="0"/>
        <pt x="300" y="268" on="0"/>
        <pt x="384" y="173" on="0"/>
        <pt x="500" y="126" on="0"/>
        <pt x="572" y="126" on="1"/>
        <pt x="639" y="126" on="0"/>
        <pt x="736" y="157" on="0"/>
        <pt x="806" y="193" on="0"/>
        <pt x="853" y="224" on="0"/>
        <pt x="870" y="224" on="1"/>
        <pt x="892" y="224" on="0"/>
        <pt x="904" y="207" on="1"/>
        <pt x="954" y="142" on="1"/>
        <pt x="921" y="102" on="0"/>
        <pt x="829" y="43" on="0"/>
        <pt x="724" y="5" on="0"/>
        <pt x="612" y="-14" on="0"/>
        <pt x="557" y="-14" on="1"/>
        <pt x="452" y="-14" on="0"/>
        <pt x="275" y="57" on="0"/>
        <pt x="146" y="194" on="0"/>
        <pt x="74" y="396" on="0"/>
        <pt x="74" y="527" on="1"/>
        <pt x="74" y="633" on="0"/>
        <pt x="139" y="817" on="0"/>
        <pt x="261" y="952" on="0"/>
        <pt x="437" y="1029" on="0"/>
      </contour>
      <contour>
        <pt x="551" y="898" on="1"/>
        <pt x="422" y="898" on="0"/>
        <pt x="274" y="749" on="0"/>
        <pt x="256" y="617" on="1"/>
        <pt x="807" y="617" on="1"/>
        <pt x="807" y="679" on="0"/>
        <pt x="773" y="782" on="0"/>
        <pt x="707" y="857" on="0"/>
        <pt x="612" y="898" on="0"/>
      </contour>
    </TTGlyph>
    <TTGlyph name="eacute" xMin="74" yMin="-14" xMax="967" yMax="1449">
      <component glyphName="e" x="0" y="0" flags="0x204"/>
      <component glyphName="acute" x="244" y="0" flags="0x4"/>
    </TTGlyph>
    <TTGlyph name="ecircumflex" xMin="74" yMin="-14" xMax="967" yMax="1433">
      <component glyphName="e" x="0" y="0" flags="0x204"/>
      <component glyphName="circumflex" x="244" y="0" flags="0x4"/>
    </TTGlyph>
    <TTGlyph name="edieresis" xMin="74" yMin="-14" xMax="967" yMax="1403">
      <component glyphName="e" x="0" y="0" flags="0x204"/>
      <component glyphName="dieresis" x="244" y="0" flags="0x4"/>
    </TTGlyph>
    <TTGlyph name="egrave" xMin="74" yMin="-14" xMax="967" yMax="1449">
      <component glyphName="e" x="0" y="0" flags="0x204"/>
      <component glyphName="grave" x="244" y="0" flags="0x4"/>
    </TTGlyph>
    <TTGlyph name="eight" xMin="96" yMin="-16" xMax="1062" yMax="1449">
      <contour>
        <pt x="579" y="-16" on="1"/>
        <pt x="472" y="-16" on="0"/>
        <pt x="294" y="41" on="0"/>
        <pt x="166" y="147" on="0"/>
        <pt x="96" y="298" on="0"/>
        <pt x="96" y="392" on="1"/>
        <pt x="96" y="530" on="0"/>
        <pt x="240" y="709" on="0"/>
        <pt x="374" y="747" on="1"/>
        <pt x="261" y="789" on="0"/>
        <pt x="146" y="956" on="0"/>
        <pt x="146" y="1072" on="1"/>
        <pt x="146" y="1151" on="0"/>
        <pt x="208" y="1289" on="0"/>
        <pt x="322" y="1391" on="0"/>
        <pt x="481" y="1449" on="0"/>
        <pt x="579" y="1449" on="1"/>
        <pt x="676" y="1449" on="0"/>
        <pt x="836" y="1391" on="0"/>
        <pt x="950" y="1289" on="0"/>
        <pt x="1012" y="1151" on="0"/>
        <pt x="1012" y="1072" on="1"/>
        <pt x="1012" y="956" on="0"/>
        <pt x="896" y="789" on="0"/>
        <pt x="784" y="747" on="1"/>
        <pt x="918" y="709" on="0"/>
        <pt x="1062" y="530" on="0"/>
        <pt x="1062" y="392" on="1"/>
        <pt x="1062" y="298" on="0"/>
        <pt x="991" y="147" on="0"/>
        <pt x="864" y="41" on="0"/>
        <pt x="686" y="-16" on="0"/>
      </contour>
      <contour>
        <pt x="579" y="126" on="1"/>
        <pt x="649" y="126" on="0"/>
        <pt x="760" y="165" on="0"/>
        <pt x="837" y="236" on="0"/>
        <pt x="878" y="335" on="0"/>
        <pt x="878" y="395" on="1"/>
        <pt x="878" y="469" on="0"/>
        <pt x="829" y="574" on="0"/>
        <pt x="746" y="640" on="0"/>
        <pt x="638" y="671" on="0"/>
        <pt x="579" y="671" on="1"/>
        <pt x="520" y="671" on="0"/>
        <pt x="412" y="640" on="0"/>
        <pt x="329" y="574" on="0"/>
        <pt x="280" y="469" on="0"/>
        <pt x="280" y="395" on="1"/>
        <pt x="280" y="335" on="0"/>
        <pt x="321" y="236" on="0"/>
        <pt x="398" y="165" on="0"/>
        <pt x="509" y="126" on="0"/>
      </contour>
      <contour>
        <pt x="579" y="814" on="1"/>
        <pt x="649" y="814" on="0"/>
        <pt x="748" y="857" on="0"/>
        <pt x="810" y="928" on="0"/>
        <pt x="838" y="1020" on="0"/>
        <pt x="838" y="1069" on="1"/>
        <pt x="838" y="1119" on="0"/>
        <pt x="805" y="1207" on="0"/>
        <pt x="740" y="1273" on="0"/>
        <pt x="643" y="1311" on="0"/>
        <pt x="579" y="1311" on="1"/>
        <pt x="515" y="1311" on="0"/>
        <pt x="418" y="1273" on="0"/>
        <pt x="353" y="1207" on="0"/>
        <pt x="320" y="1119" on="0"/>
        <pt x="320" y="1069" on="1"/>
        <pt x="320" y="1020" on="0"/>
        <pt x="348" y="928" on="0"/>
        <pt x="410" y="857" on="0"/>
        <pt x="509" y="814" on="0"/>
      </contour>
    </TTGlyph>
    <TTGlyph name="ellipsis" xMin="88" yMin="-15" xMax="1366" yMax="236">
      <contour>
        <pt x="88" y="110" on="1"/>
        <pt x="88" y="136" on="0"/>
        <pt x="107" y="182" on="0"/>
        <pt x="140" y="216" on="0"/>
        <pt x="186" y="236" on="0"/>
        <pt x="212" y="236" on="1"/>
        <pt x="238" y="236" on="0"/>
        <pt x="284" y="216" on="0"/>
        <pt x="318" y="182" on="0"/>
        <pt x="337" y="136" on="0"/>
        <pt x="337" y="110" on="1"/>
        <pt x="337" y="83" on="0"/>
        <pt x="318" y="38" on="0"/>
        <pt x="284" y="4" on="0"/>
        <pt x="238" y="-15" on="0"/>
        <pt x="212" y="-15" on="1"/>
        <pt x="186" y="-15" on="0"/>
        <pt x="140" y="4" on="0"/>
        <pt x="107" y="38" on="0"/>
        <pt x="88" y="83" on="0"/>
      </contour>
      <contour>
        <pt x="1117" y="110" on="1"/>
        <pt x="1117" y="136" on="0"/>
        <pt x="1136" y="182" on="0"/>
        <pt x="1169" y="216" on="0"/>
        <pt x="1215" y="236" on="0"/>
        <pt x="1241" y="236" on="1"/>
        <pt x="1267" y="236" on="0"/>
        <pt x="1313" y="216" on="0"/>
        <pt x="1347" y="182" on="0"/>
        <pt x="1366" y="136" on="0"/>
        <pt x="1366" y="110" on="1"/>
        <pt x="1366" y="83" on="0"/>
        <pt x="1347" y="38" on="0"/>
        <pt x="1313" y="4" on="0"/>
        <pt x="1267" y="-15" on="0"/>
        <pt x="1241" y="-15" on="1"/>
        <pt x="1215" y="-15" on="0"/>
        <pt x="1169" y="4" on="0"/>
        <pt x="1136" y="38" on="0"/>
        <pt x="1117" y="83" on="0"/>
      </contour>
      <contour>
        <pt x="602" y="110" on="1"/>
        <pt x="602" y="136" on="0"/>
        <pt x="621" y="182" on="0"/>
        <pt x="654" y="216" on="0"/>
        <pt x="700" y="236" on="0"/>
        <pt x="726" y="236" on="1"/>
        <pt x="752" y="236" on="0"/>
        <pt x="798" y="216" on="0"/>
        <pt x="832" y="182" on="0"/>
        <pt x="851" y="136" on="0"/>
        <pt x="851" y="110" on="1"/>
        <pt x="851" y="83" on="0"/>
        <pt x="832" y="38" on="0"/>
        <pt x="798" y="4" on="0"/>
        <pt x="752" y="-15" on="0"/>
        <pt x="726" y="-15" on="1"/>
        <pt x="700" y="-15" on="0"/>
        <pt x="654" y="4" on="0"/>
        <pt x="621" y="38" on="0"/>
        <pt x="602" y="83" on="0"/>
      </contour>
    </TTGlyph>
    <TTGlyph name="emdash" xMin="156" yMin="525" xMax="1486" yMax="655">
      <contour>
        <pt x="156" y="655" on="1"/>
        <pt x="1486" y="655" on="1"/>
        <pt x="1486" y="525" on="1"/>
        <pt x="156" y="525" on="1"/>
      </contour>
    </TTGlyph>
    <TTGlyph name="endash" xMin="156" yMin="525" xMax="956" yMax="655">
      <contour>
        <pt x="156" y="655" on="1"/>
        <pt x="956" y="655" on="1"/>
        <pt x="956" y="525" on="1"/>
        <pt x="156" y="525" on="1"/>
      </contour>
    </TTGlyph>
    <TTGlyph name="eogonek" xMin="74" yMin="-342" xMax="967" yMax="1029">
      <contour>
        <pt x="745" y="-211" on="1"/>
        <pt x="752" y="-211" on="0"/>
        <pt x="761" y="-219" on="0"/>
        <pt x="763" y="-224" on="1"/>
        <pt x="791" y="-290" on="1"/>
        <pt x="761" y="-313" on="0"/>
        <pt x="668" y="-342" on="0"/>
        <pt x="617" y="-342" on="1"/>
        <pt x="529" y="-342" on="0"/>
        <pt x="428" y="-263" on="0"/>
        <pt x="428" y="-197" on="1"/>
        <pt x="428" y="-144" on="0"/>
        <pt x="494" y="-51" on="0"/>
        <pt x="546" y="-14" on="1"/>
        <pt x="443" y="-12" on="0"/>
        <pt x="270" y="60" on="0"/>
        <pt x="144" y="198" on="0"/>
        <pt x="74" y="398" on="0"/>
        <pt x="74" y="527" on="1"/>
        <pt x="74" y="633" on="0"/>
        <pt x="139" y="817" on="0"/>
        <pt x="261" y="952" on="0"/>
        <pt x="437" y="1029" on="0"/>
        <pt x="547" y="1029" on="1"/>
        <pt x="638" y="1029" on="0"/>
        <pt x="792" y="968" on="0"/>
        <pt x="904" y="853" on="0"/>
        <pt x="967" y="684" on="0"/>
        <pt x="967" y="576" on="1"/>
        <pt x="967" y="534" on="0"/>
        <pt x="949" y="506" on="0"/>
        <pt x="924" y="506" on="1"/>
        <pt x="250" y="506" on="1"/>
        <pt x="252" y="410" on="0"/>
        <pt x="300" y="268" on="0"/>
        <pt x="384" y="173" on="0"/>
        <pt x="500" y="126" on="0"/>
        <pt x="572" y="126" on="1"/>
        <pt x="639" y="126" on="0"/>
        <pt x="736" y="157" on="0"/>
        <pt x="806" y="193" on="0"/>
        <pt x="853" y="224" on="0"/>
        <pt x="870" y="224" on="1"/>
        <pt x="892" y="224" on="0"/>
        <pt x="904" y="207" on="1"/>
        <pt x="954" y="142" on="1"/>
        <pt x="904" y="82" on="0"/>
        <pt x="757" y="11" on="0"/>
        <pt x="675" y="-3" on="1"/>
        <pt x="655" y="-14" on="0"/>
        <pt x="616" y="-45" on="0"/>
        <pt x="583" y="-83" on="0"/>
        <pt x="563" y="-129" on="0"/>
        <pt x="563" y="-154" on="1"/>
        <pt x="563" y="-192" on="0"/>
        <pt x="612" y="-235" on="0"/>
        <pt x="654" y="-235" on="1"/>
        <pt x="677" y="-235" on="0"/>
        <pt x="707" y="-228" on="0"/>
        <pt x="727" y="-219" on="0"/>
        <pt x="740" y="-211" on="0"/>
      </contour>
      <contour>
        <pt x="551" y="898" on="1"/>
        <pt x="422" y="898" on="0"/>
        <pt x="274" y="749" on="0"/>
        <pt x="256" y="617" on="1"/>
        <pt x="807" y="617" on="1"/>
        <pt x="807" y="679" on="0"/>
        <pt x="773" y="782" on="0"/>
        <pt x="707" y="857" on="0"/>
        <pt x="612" y="898" on="0"/>
      </contour>
    </TTGlyph>
    <TTGlyph name="equal" xMin="150" yMin="439" xMax="1009" yMax="909">
      <contour>
        <pt x="150" y="574" on="1"/>
        <pt x="1009" y="574" on="1"/>
        <pt x="1009" y="439" on="1"/>
        <pt x="150" y="439" on="1"/>
      </contour>
      <contour>
        <pt x="150" y="909" on="1"/>
        <pt x="1009" y="909" on="1"/>
        <pt x="1009" y="774" on="1"/>
        <pt x="150" y="774" on="1"/>
      </contour>
    </TTGlyph>
    <TTGlyph name="eth" xMin="76" yMin="-13" xMax="1029" yMax="1414">
      <contour>
        <pt x="417" y="1065" on="1"/>
        <pt x="413" y="1072" on="0"/>
        <pt x="408" y="1085" on="0"/>
        <pt x="408" y="1091" on="1"/>
        <pt x="408" y="1113" on="0"/>
        <pt x="431" y="1128" on="1"/>
        <pt x="534" y="1200" on="1"/>
        <pt x="489" y="1220" on="0"/>
        <pt x="388" y="1254" on="0"/>
        <pt x="331" y="1268" on="1"/>
        <pt x="313" y="1273" on="0"/>
        <pt x="288" y="1300" on="0"/>
        <pt x="288" y="1323" on="1"/>
        <pt x="288" y="1338" on="0"/>
        <pt x="293" y="1352" on="1"/>
        <pt x="313" y="1414" on="1"/>
        <pt x="409" y="1398" on="0"/>
        <pt x="589" y="1338" on="0"/>
        <pt x="670" y="1290" on="1"/>
        <pt x="837" y="1412" on="1"/>
        <pt x="872" y="1355" on="1"/>
        <pt x="880" y="1342" on="0"/>
        <pt x="880" y="1331" on="1"/>
        <pt x="880" y="1310" on="0"/>
        <pt x="858" y="1294" on="1"/>
        <pt x="761" y="1227" on="1"/>
        <pt x="821" y="1178" on="0"/>
        <pt x="920" y="1054" on="0"/>
        <pt x="990" y="899" on="0"/>
        <pt x="1029" y="714" on="0"/>
        <pt x="1029" y="604" on="1"/>
        <pt x="1029" y="461" on="0"/>
        <pt x="967" y="233" on="0"/>
        <pt x="844" y="73" on="0"/>
        <pt x="661" y="-13" on="0"/>
        <pt x="541" y="-13" on="1"/>
        <pt x="443" y="-13" on="0"/>
        <pt x="273" y="53" on="0"/>
        <pt x="148" y="176" on="0"/>
        <pt x="76" y="354" on="0"/>
        <pt x="76" y="466" on="1"/>
        <pt x="76" y="560" on="0"/>
        <pt x="138" y="727" on="0"/>
        <pt x="254" y="853" on="0"/>
        <pt x="419" y="927" on="0"/>
        <pt x="523" y="927" on="1"/>
        <pt x="623" y="927" on="0"/>
        <pt x="800" y="841" on="0"/>
        <pt x="865" y="754" on="1"/>
        <pt x="845" y="890" on="0"/>
        <pt x="728" y="1080" on="0"/>
        <pt x="634" y="1144" on="1"/>
        <pt x="450" y="1009" on="1"/>
      </contour>
      <contour>
        <pt x="545" y="125" on="1"/>
        <pt x="616" y="125" on="0"/>
        <pt x="731" y="179" on="0"/>
        <pt x="812" y="288" on="0"/>
        <pt x="858" y="453" on="0"/>
        <pt x="861" y="564" on="1"/>
        <pt x="845" y="607" on="0"/>
        <pt x="793" y="688" on="0"/>
        <pt x="718" y="751" on="0"/>
        <pt x="619" y="788" on="0"/>
        <pt x="557" y="788" on="1"/>
        <pt x="482" y="788" on="0"/>
        <pt x="369" y="738" on="0"/>
        <pt x="293" y="651" on="0"/>
        <pt x="254" y="532" on="0"/>
        <pt x="254" y="464" on="1"/>
        <pt x="254" y="383" on="0"/>
        <pt x="300" y="256" on="0"/>
        <pt x="380" y="170" on="0"/>
        <pt x="485" y="125" on="0"/>
      </contour>
    </TTGlyph>
    <TTGlyph name="exclam" xMin="218" yMin="-15" xMax="467" yMax="1433">
      <contour>
        <pt x="430" y="1433" on="1"/>
        <pt x="430" y="861" on="1"/>
        <pt x="430" y="816" on="0"/>
        <pt x="427" y="730" on="0"/>
        <pt x="421" y="643" on="0"/>
        <pt x="412" y="552" on="0"/>
        <pt x="406" y="500" on="1"/>
        <pt x="285" y="500" on="1"/>
        <pt x="279" y="552" on="0"/>
        <pt x="270" y="643" on="0"/>
        <pt x="264" y="730" on="0"/>
        <pt x="261" y="816" on="0"/>
        <pt x="261" y="861" on="1"/>
        <pt x="261" y="1433" on="1"/>
      </contour>
      <contour>
        <pt x="218" y="110" on="1"/>
        <pt x="218" y="136" on="0"/>
        <pt x="237" y="182" on="0"/>
        <pt x="270" y="216" on="0"/>
        <pt x="316" y="236" on="0"/>
        <pt x="342" y="236" on="1"/>
        <pt x="368" y="236" on="0"/>
        <pt x="414" y="216" on="0"/>
        <pt x="448" y="182" on="0"/>
        <pt x="467" y="136" on="0"/>
        <pt x="467" y="110" on="1"/>
        <pt x="467" y="83" on="0"/>
        <pt x="448" y="38" on="0"/>
        <pt x="414" y="4" on="0"/>
        <pt x="368" y="-15" on="0"/>
        <pt x="342" y="-15" on="1"/>
        <pt x="316" y="-15" on="0"/>
        <pt x="270" y="4" on="0"/>
        <pt x="237" y="38" on="0"/>
        <pt x="218" y="83" on="0"/>
      </contour>
    </TTGlyph>
    <TTGlyph name="exclamdown" xMin="218" yMin="-343" xMax="468" yMax="1029">
      <contour>
        <pt x="262" y="-343" on="1"/>
        <pt x="262" y="198" on="1"/>
        <pt x="262" y="243" on="0"/>
        <pt x="265" y="328" on="0"/>
        <pt x="271" y="415" on="0"/>
        <pt x="280" y="507" on="0"/>
        <pt x="286" y="559" on="1"/>
        <pt x="407" y="559" on="1"/>
        <pt x="413" y="507" on="0"/>
        <pt x="422" y="415" on="0"/>
        <pt x="428" y="328" on="0"/>
        <pt x="431" y="243" on="0"/>
        <pt x="431" y="198" on="1"/>
        <pt x="431" y="-343" on="1"/>
      </contour>
      <contour>
        <pt x="218" y="904" on="1"/>
        <pt x="218" y="931" on="0"/>
        <pt x="237" y="976" on="0"/>
        <pt x="271" y="1010" on="0"/>
        <pt x="316" y="1029" on="0"/>
        <pt x="343" y="1029" on="1"/>
        <pt x="369" y="1029" on="0"/>
        <pt x="414" y="1010" on="0"/>
        <pt x="448" y="976" on="0"/>
        <pt x="468" y="931" on="0"/>
        <pt x="468" y="904" on="1"/>
        <pt x="468" y="878" on="0"/>
        <pt x="448" y="832" on="0"/>
        <pt x="414" y="798" on="0"/>
        <pt x="369" y="778" on="0"/>
        <pt x="343" y="778" on="1"/>
        <pt x="316" y="778" on="0"/>
        <pt x="271" y="798" on="0"/>
        <pt x="237" y="832" on="0"/>
        <pt x="218" y="878" on="0"/>
      </contour>
    </TTGlyph>
    <TTGlyph name="f" xMin="26" yMin="0" xMax="660" yMax="1454">
      <contour>
        <pt x="186" y="0" on="1"/>
        <pt x="186" y="861" on="1"/>
        <pt x="74" y="874" on="1"/>
        <pt x="53" y="879" on="0"/>
        <pt x="26" y="900" on="0"/>
        <pt x="26" y="920" on="1"/>
        <pt x="26" y="993" on="1"/>
        <pt x="186" y="993" on="1"/>
        <pt x="186" y="1091" on="1"/>
        <pt x="186" y="1178" on="0"/>
        <pt x="235" y="1313" on="0"/>
        <pt x="326" y="1406" on="0"/>
        <pt x="454" y="1454" on="0"/>
        <pt x="534" y="1454" on="1"/>
        <pt x="602" y="1454" on="0"/>
        <pt x="660" y="1434" on="1"/>
        <pt x="656" y="1345" on="1"/>
        <pt x="655" y="1325" on="0"/>
        <pt x="623" y="1317" on="0"/>
        <pt x="594" y="1317" on="1"/>
        <pt x="563" y="1317" on="1"/>
        <pt x="517" y="1317" on="0"/>
        <pt x="442" y="1293" on="0"/>
        <pt x="388" y="1239" on="0"/>
        <pt x="359" y="1151" on="0"/>
        <pt x="359" y="1086" on="1"/>
        <pt x="359" y="993" on="1"/>
        <pt x="652" y="993" on="1"/>
        <pt x="652" y="864" on="1"/>
        <pt x="365" y="864" on="1"/>
        <pt x="365" y="0" on="1"/>
      </contour>
    </TTGlyph>
    <TTGlyph name="fi" xMin="26" yMin="0" xMax="971" yMax="1471">
      <contour>
        <pt x="186" y="0" on="1"/>
        <pt x="186" y="861" on="1"/>
        <pt x="74" y="874" on="1"/>
        <pt x="53" y="879" on="0"/>
        <pt x="26" y="900" on="0"/>
        <pt x="26" y="920" on="1"/>
        <pt x="26" y="993" on="1"/>
        <pt x="186" y="993" on="1"/>
        <pt x="186" y="1049" on="1"/>
        <pt x="186" y="1142" on="0"/>
        <pt x="244" y="1297" on="0"/>
        <pt x="360" y="1409" on="0"/>
        <pt x="533" y="1471" on="0"/>
        <pt x="648" y="1471" on="1"/>
        <pt x="686" y="1471" on="0"/>
        <pt x="765" y="1461" on="0"/>
        <pt x="794" y="1451" on="1"/>
        <pt x="788" y="1358" on="1"/>
        <pt x="786" y="1345" on="0"/>
        <pt x="766" y="1338" on="0"/>
        <pt x="747" y="1338" on="1"/>
        <pt x="736" y="1338" on="0"/>
        <pt x="712" y="1339" on="0"/>
        <pt x="697" y="1339" on="1"/>
        <pt x="520" y="1339" on="0"/>
        <pt x="359" y="1192" on="0"/>
        <pt x="359" y="1044" on="1"/>
        <pt x="359" y="993" on="1"/>
        <pt x="971" y="993" on="1"/>
        <pt x="971" y="0" on="1"/>
        <pt x="793" y="0" on="1"/>
        <pt x="793" y="864" on="1"/>
        <pt x="365" y="864" on="1"/>
        <pt x="365" y="0" on="1"/>
      </contour>
    </TTGlyph>
    <TTGlyph name="five" xMin="108" yMin="-16" xMax="1022" yMax="1433">
      <contour>
        <pt x="978" y="1355" on="1"/>
        <pt x="978" y="1317" on="0"/>
        <pt x="930" y="1268" on="0"/>
        <pt x="873" y="1268" on="1"/>
        <pt x="423" y="1268" on="1"/>
        <pt x="357" y="892" on="1"/>
        <pt x="469" y="916" on="0"/>
        <pt x="564" y="916" on="1"/>
        <pt x="676" y="916" on="0"/>
        <pt x="847" y="850" on="0"/>
        <pt x="963" y="734" on="0"/>
        <pt x="1022" y="576" on="0"/>
        <pt x="1022" y="483" on="1"/>
        <pt x="1022" y="369" on="0"/>
        <pt x="942" y="185" on="0"/>
        <pt x="803" y="54" on="0"/>
        <pt x="615" y="-16" on="0"/>
        <pt x="506" y="-16" on="1"/>
        <pt x="443" y="-16" on="0"/>
        <pt x="327" y="9" on="0"/>
        <pt x="227" y="51" on="0"/>
        <pt x="141" y="105" on="0"/>
        <pt x="108" y="135" on="1"/>
        <pt x="162" y="211" on="1"/>
        <pt x="180" y="237" on="0"/>
        <pt x="210" y="237" on="1"/>
        <pt x="229" y="237" on="0"/>
        <pt x="280" y="206" on="0"/>
        <pt x="352" y="168" on="0"/>
        <pt x="449" y="137" on="0"/>
        <pt x="516" y="137" on="1"/>
        <pt x="591" y="137" on="0"/>
        <pt x="711" y="185" on="0"/>
        <pt x="796" y="274" on="0"/>
        <pt x="842" y="398" on="0"/>
        <pt x="842" y="475" on="1"/>
        <pt x="842" y="542" on="0"/>
        <pt x="803" y="650" on="0"/>
        <pt x="724" y="726" on="0"/>
        <pt x="606" y="768" on="0"/>
        <pt x="527" y="768" on="1"/>
        <pt x="473" y="768" on="0"/>
        <pt x="357" y="750" on="0"/>
        <pt x="295" y="730" on="1"/>
        <pt x="183" y="763" on="1"/>
        <pt x="299" y="1433" on="1"/>
        <pt x="978" y="1433" on="1"/>
      </contour>
    </TTGlyph>
    <TTGlyph name="fl" xMin="26" yMin="0" xMax="1010" yMax="1460">
      <contour>
        <pt x="186" y="0" on="1"/>
        <pt x="186" y="861" on="1"/>
        <pt x="74" y="874" on="1"/>
        <pt x="53" y="879" on="0"/>
        <pt x="26" y="900" on="0"/>
        <pt x="26" y="920" on="1"/>
        <pt x="26" y="993" on="1"/>
        <pt x="186" y="993" on="1"/>
        <pt x="186" y="1047" on="1"/>
        <pt x="186" y="1131" on="0"/>
        <pt x="238" y="1282" on="0"/>
        <pt x="342" y="1394" on="0"/>
        <pt x="498" y="1460" on="0"/>
        <pt x="602" y="1460" on="1"/>
        <pt x="685" y="1460" on="0"/>
        <pt x="838" y="1447" on="0"/>
        <pt x="910" y="1447" on="1"/>
        <pt x="1010" y="1447" on="1"/>
        <pt x="1010" y="0" on="1"/>
        <pt x="832" y="0" on="1"/>
        <pt x="832" y="1322" on="1"/>
        <pt x="778" y="1324" on="0"/>
        <pt x="669" y="1330" on="0"/>
        <pt x="629" y="1330" on="1"/>
        <pt x="499" y="1330" on="0"/>
        <pt x="359" y="1181" on="0"/>
        <pt x="359" y="1047" on="1"/>
        <pt x="359" y="993" on="1"/>
        <pt x="623" y="993" on="1"/>
        <pt x="623" y="864" on="1"/>
        <pt x="365" y="864" on="1"/>
        <pt x="365" y="0" on="1"/>
      </contour>
    </TTGlyph>
    <TTGlyph name="florin" xMin="106" yMin="-352" xMax="1010" yMax="1454">
      <contour>
        <pt x="673" y="768" on="1"/>
        <pt x="584" y="38" on="1"/>
        <pt x="559" y="-167" on="0"/>
        <pt x="320" y="-352" on="0"/>
        <pt x="106" y="-352" on="1"/>
        <pt x="106" y="-258" on="1"/>
        <pt x="106" y="-201" on="0"/>
        <pt x="166" y="-201" on="1"/>
        <pt x="211" y="-201" on="0"/>
        <pt x="292" y="-175" on="0"/>
        <pt x="355" y="-117" on="0"/>
        <pt x="399" y="-25" on="0"/>
        <pt x="407" y="43" on="1"/>
        <pt x="496" y="763" on="1"/>
        <pt x="341" y="778" on="1"/>
        <pt x="320" y="780" on="0"/>
        <pt x="299" y="805" on="0"/>
        <pt x="299" y="824" on="1"/>
        <pt x="299" y="897" on="1"/>
        <pt x="512" y="897" on="1"/>
        <pt x="533" y="1065" on="1"/>
        <pt x="557" y="1263" on="0"/>
        <pt x="792" y="1454" on="0"/>
        <pt x="1010" y="1454" on="1"/>
        <pt x="1010" y="1356" on="1"/>
        <pt x="1010" y="1327" on="0"/>
        <pt x="982" y="1304" on="0"/>
        <pt x="951" y="1304" on="1"/>
        <pt x="905" y="1304" on="0"/>
        <pt x="824" y="1278" on="0"/>
        <pt x="760" y="1220" on="0"/>
        <pt x="715" y="1127" on="0"/>
        <pt x="706" y="1059" on="1"/>
        <pt x="684" y="897" on="1"/>
        <pt x="1006" y="897" on="1"/>
        <pt x="1006" y="768" on="1"/>
      </contour>
    </TTGlyph>
    <TTGlyph name="four" xMin="40" yMin="0" xMax="1120" yMax="1433">
      <contour>
        <pt x="903" y="517" on="1"/>
        <pt x="1120" y="517" on="1"/>
        <pt x="1120" y="415" on="1"/>
        <pt x="1120" y="399" on="0"/>
        <pt x="1101" y="377" on="0"/>
        <pt x="1081" y="377" on="1"/>
        <pt x="903" y="377" on="1"/>
        <pt x="903" y="0" on="1"/>
        <pt x="746" y="0" on="1"/>
        <pt x="746" y="377" on="1"/>
        <pt x="111" y="377" on="1"/>
        <pt x="91" y="377" on="0"/>
        <pt x="62" y="400" on="0"/>
        <pt x="58" y="417" on="1"/>
        <pt x="40" y="508" on="1"/>
        <pt x="737" y="1433" on="1"/>
        <pt x="903" y="1433" on="1"/>
      </contour>
      <contour>
        <pt x="746" y="1108" on="1"/>
        <pt x="746" y="1134" on="0"/>
        <pt x="749" y="1194" on="0"/>
        <pt x="754" y="1226" on="1"/>
        <pt x="233" y="517" on="1"/>
        <pt x="746" y="517" on="1"/>
      </contour>
    </TTGlyph>
    <TTGlyph name="fraction" xMin="-188" yMin="0" xMax="803" yMax="1433">
      <contour>
        <pt x="-20" y="53" on="1"/>
        <pt x="-39" y="22" on="0"/>
        <pt x="-83" y="0" on="0"/>
        <pt x="-112" y="0" on="1"/>
        <pt x="-188" y="0" on="1"/>
        <pt x="630" y="1372" on="1"/>
        <pt x="648" y="1401" on="0"/>
        <pt x="694" y="1433" on="0"/>
        <pt x="726" y="1433" on="1"/>
        <pt x="803" y="1433" on="1"/>
      </contour>
    </TTGlyph>
    <TTGlyph name="g" xMin="50" yMin="-365" xMax="990" yMax="1030">
      <contour>
        <pt x="487" y="1030" on="1"/>
        <pt x="553" y="1030" on="0"/>
        <pt x="668" y="1001" on="0"/>
        <pt x="715" y="973" on="1"/>
        <pt x="990" y="973" on="1"/>
        <pt x="990" y="907" on="1"/>
        <pt x="990" y="874" on="0"/>
        <pt x="948" y="865" on="1"/>
        <pt x="833" y="849" on="1"/>
        <pt x="867" y="784" on="0"/>
        <pt x="867" y="704" on="1"/>
        <pt x="867" y="630" on="0"/>
        <pt x="810" y="509" on="0"/>
        <pt x="709" y="423" on="0"/>
        <pt x="570" y="377" on="0"/>
        <pt x="487" y="377" on="1"/>
        <pt x="416" y="377" on="0"/>
        <pt x="353" y="394" on="1"/>
        <pt x="321" y="374" on="0"/>
        <pt x="288" y="328" on="0"/>
        <pt x="288" y="306" on="1"/>
        <pt x="288" y="270" on="0"/>
        <pt x="346" y="233" on="0"/>
        <pt x="442" y="217" on="0"/>
        <pt x="564" y="213" on="0"/>
        <pt x="691" y="204" on="0"/>
        <pt x="813" y="182" on="0"/>
        <pt x="909" y="132" on="0"/>
        <pt x="967" y="44" on="0"/>
        <pt x="967" y="-26" on="1"/>
        <pt x="967" y="-91" on="0"/>
        <pt x="902" y="-213" on="0"/>
        <pt x="780" y="-308" on="0"/>
        <pt x="604" y="-365" on="0"/>
        <pt x="493" y="-365" on="1"/>
        <pt x="382" y="-365" on="0"/>
        <pt x="215" y="-321" on="0"/>
        <pt x="105" y="-247" on="0"/>
        <pt x="50" y="-150" on="0"/>
        <pt x="50" y="-97" on="1"/>
        <pt x="50" y="-22" on="0"/>
        <pt x="145" y="83" on="0"/>
        <pt x="228" y="114" on="1"/>
        <pt x="185" y="134" on="0"/>
        <pt x="134" y="201" on="0"/>
        <pt x="134" y="257" on="1"/>
        <pt x="134" y="279" on="0"/>
        <pt x="150" y="326" on="0"/>
        <pt x="183" y="372" on="0"/>
        <pt x="231" y="414" on="0"/>
        <pt x="263" y="430" on="1"/>
        <pt x="188" y="472" on="0"/>
        <pt x="103" y="611" on="0"/>
        <pt x="103" y="704" on="1"/>
        <pt x="103" y="778" on="0"/>
        <pt x="160" y="899" on="0"/>
        <pt x="262" y="984" on="0"/>
        <pt x="403" y="1030" on="0"/>
      </contour>
      <contour>
        <pt x="803" y="-55" on="1"/>
        <pt x="803" y="-17" on="0"/>
        <pt x="761" y="29" on="0"/>
        <pt x="689" y="54" on="0"/>
        <pt x="595" y="66" on="0"/>
        <pt x="491" y="71" on="0"/>
        <pt x="383" y="77" on="0"/>
        <pt x="334" y="85" on="1"/>
        <pt x="277" y="58" on="0"/>
        <pt x="206" y="-20" on="0"/>
        <pt x="206" y="-74" on="1"/>
        <pt x="206" y="-108" on="0"/>
        <pt x="241" y="-167" on="0"/>
        <pt x="313" y="-210" on="0"/>
        <pt x="422" y="-235" on="0"/>
        <pt x="496" y="-235" on="1"/>
        <pt x="568" y="-235" on="0"/>
        <pt x="682" y="-209" on="0"/>
        <pt x="761" y="-161" on="0"/>
        <pt x="803" y="-95" on="0"/>
      </contour>
      <contour>
        <pt x="487" y="495" on="1"/>
        <pt x="541" y="495" on="0"/>
        <pt x="624" y="525" on="0"/>
        <pt x="680" y="579" on="0"/>
        <pt x="708" y="654" on="0"/>
        <pt x="708" y="699" on="1"/>
        <pt x="708" y="792" on="0"/>
        <pt x="595" y="902" on="0"/>
        <pt x="487" y="902" on="1"/>
        <pt x="380" y="902" on="0"/>
        <pt x="267" y="792" on="0"/>
        <pt x="267" y="699" on="1"/>
        <pt x="267" y="654" on="0"/>
        <pt x="296" y="579" on="0"/>
        <pt x="352" y="525" on="0"/>
        <pt x="434" y="495" on="0"/>
      </contour>
    </TTGlyph>
    <TTGlyph name="germandbls" xMin="186" yMin="-16" xMax="1142" yMax="1454">
      <contour>
        <pt x="673" y="1454" on="1"/>
        <pt x="776" y="1454" on="0"/>
        <pt x="927" y="1394" on="0"/>
        <pt x="1025" y="1301" on="0"/>
        <pt x="1072" y="1191" on="0"/>
        <pt x="1072" y="1140" on="1"/>
        <pt x="1072" y="1080" on="0"/>
        <pt x="1029" y="994" on="0"/>
        <pt x="965" y="928" on="0"/>
        <pt x="890" y="878" on="0"/>
        <pt x="826" y="830" on="0"/>
        <pt x="783" y="779" on="0"/>
        <pt x="783" y="747" on="1"/>
        <pt x="783" y="708" on="0"/>
        <pt x="836" y="656" on="0"/>
        <pt x="916" y="611" on="0"/>
        <pt x="1009" y="564" on="0"/>
        <pt x="1089" y="494" on="0"/>
        <pt x="1142" y="392" on="0"/>
        <pt x="1142" y="314" on="1"/>
        <pt x="1142" y="236" on="0"/>
        <pt x="1085" y="114" on="0"/>
        <pt x="985" y="29" on="0"/>
        <pt x="850" y="-16" on="0"/>
        <pt x="771" y="-16" on="1"/>
        <pt x="674" y="-16" on="0"/>
        <pt x="516" y="53" on="0"/>
        <pt x="456" y="107" on="1"/>
        <pt x="497" y="175" on="1"/>
        <pt x="505" y="188" on="0"/>
        <pt x="528" y="202" on="0"/>
        <pt x="545" y="202" on="1"/>
        <pt x="563" y="202" on="0"/>
        <pt x="603" y="174" on="0"/>
        <pt x="658" y="140" on="0"/>
        <pt x="733" y="112" on="0"/>
        <pt x="786" y="112" on="1"/>
        <pt x="830" y="112" on="0"/>
        <pt x="900" y="139" on="0"/>
        <pt x="949" y="185" on="0"/>
        <pt x="975" y="249" on="0"/>
        <pt x="975" y="286" on="1"/>
        <pt x="975" y="342" on="0"/>
        <pt x="919" y="412" on="0"/>
        <pt x="835" y="463" on="0"/>
        <pt x="737" y="505" on="0"/>
        <pt x="653" y="563" on="0"/>
        <pt x="597" y="646" on="0"/>
        <pt x="597" y="712" on="1"/>
        <pt x="597" y="765" on="0"/>
        <pt x="642" y="844" on="0"/>
        <pt x="709" y="907" on="0"/>
        <pt x="787" y="961" on="0"/>
        <pt x="854" y="1021" on="0"/>
        <pt x="899" y="1092" on="0"/>
        <pt x="899" y="1140" on="1"/>
        <pt x="899" y="1172" on="0"/>
        <pt x="874" y="1237" on="0"/>
        <pt x="818" y="1289" on="0"/>
        <pt x="729" y="1322" on="0"/>
        <pt x="666" y="1322" on="1"/>
        <pt x="598" y="1322" on="0"/>
        <pt x="487" y="1280" on="0"/>
        <pt x="408" y="1196" on="0"/>
        <pt x="365" y="1070" on="0"/>
        <pt x="365" y="986" on="1"/>
        <pt x="365" y="0" on="1"/>
        <pt x="186" y="0" on="1"/>
        <pt x="186" y="992" on="1"/>
        <pt x="186" y="1096" on="0"/>
        <pt x="255" y="1266" on="0"/>
        <pt x="383" y="1388" on="0"/>
        <pt x="563" y="1454" on="0"/>
      </contour>
    </TTGlyph>
    <TTGlyph name="grave" xMin="38" yMin="1163" xMax="435" yMax="1449">
      <contour>
        <pt x="207" y="1449" on="1"/>
        <pt x="240" y="1449" on="0"/>
        <pt x="272" y="1428" on="0"/>
        <pt x="286" y="1405" on="1"/>
        <pt x="435" y="1163" on="1"/>
        <pt x="333" y="1163" on="1"/>
        <pt x="312" y="1163" on="0"/>
        <pt x="286" y="1176" on="0"/>
        <pt x="272" y="1191" on="1"/>
        <pt x="38" y="1449" on="1"/>
      </contour>
    </TTGlyph>
    <TTGlyph name="grave.case" xMin="-44" yMin="1546" xMax="452" yMax="1782">
      <contour>
        <pt x="157" y="1782" on="1"/>
        <pt x="189" y="1782" on="0"/>
        <pt x="221" y="1769" on="0"/>
        <pt x="241" y="1749" on="1"/>
        <pt x="452" y="1546" on="1"/>
        <pt x="313" y="1546" on="1"/>
        <pt x="292" y="1546" on="0"/>
        <pt x="268" y="1553" on="0"/>
        <pt x="251" y="1565" on="1"/>
        <pt x="-44" y="1782" on="1"/>
      </contour>
    </TTGlyph>
    <TTGlyph name="greater" xMin="238" yMin="234" xMax="1011" yMax="1111">
      <contour>
        <pt x="238" y="234" on="1"/>
        <pt x="238" y="362" on="1"/>
        <pt x="238" y="378" on="0"/>
        <pt x="254" y="404" on="0"/>
        <pt x="274" y="414" on="1"/>
        <pt x="723" y="641" on="1"/>
        <pt x="743" y="651" on="0"/>
        <pt x="786" y="667" on="0"/>
        <pt x="811" y="672" on="1"/>
        <pt x="786" y="678" on="0"/>
        <pt x="743" y="693" on="0"/>
        <pt x="723" y="704" on="1"/>
        <pt x="274" y="932" on="1"/>
        <pt x="254" y="942" on="0"/>
        <pt x="238" y="967" on="0"/>
        <pt x="238" y="984" on="1"/>
        <pt x="238" y="1111" on="1"/>
        <pt x="1011" y="710" on="1"/>
        <pt x="1011" y="636" on="1"/>
      </contour>
    </TTGlyph>
    <TTGlyph name="greaterequal" xMin="238" yMin="80" xMax="1012" yMax="1168">
      <contour>
        <pt x="1012" y="791" on="1"/>
        <pt x="1012" y="717" on="1"/>
        <pt x="238" y="338" on="1"/>
        <pt x="238" y="460" on="1"/>
        <pt x="238" y="476" on="0"/>
        <pt x="257" y="503" on="0"/>
        <pt x="282" y="515" on="1"/>
        <pt x="723" y="724" on="1"/>
        <pt x="764" y="743" on="0"/>
        <pt x="820" y="754" on="1"/>
        <pt x="793" y="760" on="0"/>
        <pt x="744" y="774" on="0"/>
        <pt x="723" y="784" on="1"/>
        <pt x="282" y="991" on="1"/>
        <pt x="256" y="1002" on="0"/>
        <pt x="238" y="1030" on="0"/>
        <pt x="238" y="1046" on="1"/>
        <pt x="238" y="1168" on="1"/>
      </contour>
      <contour>
        <pt x="1012" y="80" on="1"/>
        <pt x="238" y="80" on="1"/>
        <pt x="238" y="215" on="1"/>
        <pt x="1012" y="215" on="1"/>
      </contour>
    </TTGlyph>
    <TTGlyph name="guillemotleft" xMin="138" yMin="129" xMax="769" yMax="930">
      <contour>
        <pt x="138" y="518" on="1"/>
        <pt x="138" y="541" on="1"/>
        <pt x="387" y="930" on="1"/>
        <pt x="445" y="902" on="1"/>
        <pt x="459" y="895" on="0"/>
        <pt x="473" y="873" on="0"/>
        <pt x="473" y="860" on="1"/>
        <pt x="473" y="843" on="0"/>
        <pt x="463" y="827" on="1"/>
        <pt x="304" y="566" on="1"/>
        <pt x="290" y="542" on="0"/>
        <pt x="276" y="529" on="1"/>
        <pt x="291" y="515" on="0"/>
        <pt x="304" y="493" on="1"/>
        <pt x="463" y="232" on="1"/>
        <pt x="468" y="224" on="0"/>
        <pt x="473" y="206" on="0"/>
        <pt x="473" y="198" on="1"/>
        <pt x="473" y="170" on="0"/>
        <pt x="445" y="157" on="1"/>
        <pt x="387" y="129" on="1"/>
      </contour>
      <contour>
        <pt x="434" y="518" on="1"/>
        <pt x="434" y="541" on="1"/>
        <pt x="683" y="930" on="1"/>
        <pt x="741" y="902" on="1"/>
        <pt x="755" y="895" on="0"/>
        <pt x="769" y="873" on="0"/>
        <pt x="769" y="860" on="1"/>
        <pt x="769" y="843" on="0"/>
        <pt x="759" y="827" on="1"/>
        <pt x="600" y="566" on="1"/>
        <pt x="586" y="542" on="0"/>
        <pt x="572" y="529" on="1"/>
        <pt x="587" y="515" on="0"/>
        <pt x="600" y="493" on="1"/>
        <pt x="759" y="232" on="1"/>
        <pt x="764" y="224" on="0"/>
        <pt x="769" y="206" on="0"/>
        <pt x="769" y="198" on="1"/>
        <pt x="769" y="170" on="0"/>
        <pt x="741" y="157" on="1"/>
        <pt x="683" y="129" on="1"/>
      </contour>
    </TTGlyph>
    <TTGlyph name="guillemotright" xMin="150" yMin="129" xMax="781" yMax="930">
      <contour>
        <pt x="236" y="129" on="1"/>
        <pt x="178" y="157" on="1"/>
        <pt x="150" y="170" on="0"/>
        <pt x="150" y="198" on="1"/>
        <pt x="150" y="215" on="0"/>
        <pt x="160" y="232" on="1"/>
        <pt x="319" y="493" on="1"/>
        <pt x="332" y="517" on="0"/>
        <pt x="346" y="529" on="1"/>
        <pt x="334" y="540" on="0"/>
        <pt x="319" y="566" on="1"/>
        <pt x="160" y="827" on="1"/>
        <pt x="150" y="844" on="0"/>
        <pt x="150" y="861" on="1"/>
        <pt x="150" y="889" on="0"/>
        <pt x="178" y="902" on="1"/>
        <pt x="236" y="930" on="1"/>
        <pt x="485" y="541" on="1"/>
        <pt x="485" y="518" on="1"/>
      </contour>
      <contour>
        <pt x="781" y="541" on="1"/>
        <pt x="781" y="518" on="1"/>
        <pt x="532" y="129" on="1"/>
        <pt x="474" y="157" on="1"/>
        <pt x="446" y="170" on="0"/>
        <pt x="446" y="198" on="1"/>
        <pt x="446" y="215" on="0"/>
        <pt x="456" y="232" on="1"/>
        <pt x="615" y="493" on="1"/>
        <pt x="628" y="517" on="0"/>
        <pt x="642" y="529" on="1"/>
        <pt x="630" y="540" on="0"/>
        <pt x="615" y="566" on="1"/>
        <pt x="456" y="827" on="1"/>
        <pt x="446" y="844" on="0"/>
        <pt x="446" y="861" on="1"/>
        <pt x="446" y="889" on="0"/>
        <pt x="474" y="902" on="1"/>
        <pt x="532" y="930" on="1"/>
      </contour>
    </TTGlyph>
    <TTGlyph name="guilsinglleft" xMin="138" yMin="129" xMax="473" yMax="930">
      <contour>
        <pt x="138" y="518" on="1"/>
        <pt x="138" y="541" on="1"/>
        <pt x="387" y="930" on="1"/>
        <pt x="445" y="902" on="1"/>
        <pt x="459" y="895" on="0"/>
        <pt x="473" y="873" on="0"/>
        <pt x="473" y="860" on="1"/>
        <pt x="473" y="843" on="0"/>
        <pt x="463" y="827" on="1"/>
        <pt x="304" y="566" on="1"/>
        <pt x="290" y="542" on="0"/>
        <pt x="276" y="529" on="1"/>
        <pt x="291" y="515" on="0"/>
        <pt x="304" y="493" on="1"/>
        <pt x="463" y="232" on="1"/>
        <pt x="468" y="224" on="0"/>
        <pt x="473" y="206" on="0"/>
        <pt x="473" y="198" on="1"/>
        <pt x="473" y="170" on="0"/>
        <pt x="445" y="157" on="1"/>
        <pt x="387" y="129" on="1"/>
      </contour>
    </TTGlyph>
    <TTGlyph name="guilsinglright" xMin="150" yMin="129" xMax="485" yMax="930">
      <contour>
        <pt x="485" y="541" on="1"/>
        <pt x="485" y="518" on="1"/>
        <pt x="236" y="129" on="1"/>
        <pt x="178" y="157" on="1"/>
        <pt x="150" y="170" on="0"/>
        <pt x="150" y="198" on="1"/>
        <pt x="150" y="215" on="0"/>
        <pt x="160" y="232" on="1"/>
        <pt x="319" y="493" on="1"/>
        <pt x="332" y="517" on="0"/>
        <pt x="346" y="529" on="1"/>
        <pt x="334" y="540" on="0"/>
        <pt x="319" y="566" on="1"/>
        <pt x="160" y="827" on="1"/>
        <pt x="150" y="844" on="0"/>
        <pt x="150" y="861" on="1"/>
        <pt x="150" y="889" on="0"/>
        <pt x="178" y="902" on="1"/>
        <pt x="236" y="930" on="1"/>
      </contour>
    </TTGlyph>
    <TTGlyph name="h" xMin="146" yMin="0" xMax="989" yMax="1473">
      <contour>
        <pt x="146" y="0" on="1"/>
        <pt x="146" y="1473" on="1"/>
        <pt x="324" y="1473" on="1"/>
        <pt x="324" y="877" on="1"/>
        <pt x="389" y="946" on="0"/>
        <pt x="547" y="1029" on="0"/>
        <pt x="650" y="1029" on="1"/>
        <pt x="733" y="1029" on="0"/>
        <pt x="860" y="974" on="0"/>
        <pt x="945" y="873" on="0"/>
        <pt x="989" y="731" on="0"/>
        <pt x="989" y="645" on="1"/>
        <pt x="989" y="0" on="1"/>
        <pt x="811" y="0" on="1"/>
        <pt x="811" y="645" on="1"/>
        <pt x="811" y="760" on="0"/>
        <pt x="706" y="887" on="0"/>
        <pt x="598" y="887" on="1"/>
        <pt x="519" y="887" on="0"/>
        <pt x="382" y="811" on="0"/>
        <pt x="324" y="746" on="1"/>
        <pt x="324" y="0" on="1"/>
      </contour>
    </TTGlyph>
    <TTGlyph name="hungarumlaut" xMin="94" yMin="1163" xMax="743" yMax="1449">
      <contour>
        <pt x="429" y="1449" on="1"/>
        <pt x="230" y="1191" on="1"/>
        <pt x="218" y="1175" on="0"/>
        <pt x="189" y="1163" on="0"/>
        <pt x="168" y="1163" on="1"/>
        <pt x="94" y="1163" on="1"/>
        <pt x="232" y="1405" on="1"/>
        <pt x="245" y="1428" on="0"/>
        <pt x="278" y="1449" on="0"/>
        <pt x="311" y="1449" on="1"/>
      </contour>
      <contour>
        <pt x="743" y="1449" on="1"/>
        <pt x="500" y="1191" on="1"/>
        <pt x="486" y="1176" on="0"/>
        <pt x="459" y="1163" on="0"/>
        <pt x="439" y="1163" on="1"/>
        <pt x="353" y="1163" on="1"/>
        <pt x="533" y="1405" on="1"/>
        <pt x="549" y="1427" on="0"/>
        <pt x="579" y="1449" on="0"/>
        <pt x="612" y="1449" on="1"/>
      </contour>
    </TTGlyph>
    <TTGlyph name="hungarumlaut.case" xMin="78" yMin="1546" xMax="762" yMax="1771">
      <contour>
        <pt x="424" y="1771" on="1"/>
        <pt x="225" y="1573" on="1"/>
        <pt x="211" y="1559" on="0"/>
        <pt x="184" y="1546" on="0"/>
        <pt x="164" y="1546" on="1"/>
        <pt x="78" y="1546" on="1"/>
        <pt x="220" y="1727" on="1"/>
        <pt x="236" y="1747" on="0"/>
        <pt x="274" y="1771" on="0"/>
        <pt x="307" y="1771" on="1"/>
      </contour>
      <contour>
        <pt x="762" y="1771" on="1"/>
        <pt x="519" y="1573" on="1"/>
        <pt x="502" y="1560" on="0"/>
        <pt x="473" y="1546" on="0"/>
        <pt x="452" y="1546" on="1"/>
        <pt x="356" y="1546" on="1"/>
        <pt x="535" y="1727" on="1"/>
        <pt x="554" y="1747" on="0"/>
        <pt x="594" y="1771" on="0"/>
        <pt x="626" y="1771" on="1"/>
      </contour>
    </TTGlyph>
    <TTGlyph name="hyphen" xMin="100" yMin="524" xMax="594" yMax="675">
      <contour>
        <pt x="100" y="675" on="1"/>
        <pt x="594" y="675" on="1"/>
        <pt x="594" y="524" on="1"/>
        <pt x="100" y="524" on="1"/>
      </contour>
    </TTGlyph>
    <TTGlyph name="i" xMin="130" yMin="0" xMax="384" yMax="1459">
      <contour>
        <pt x="344" y="1013" on="1"/>
        <pt x="344" y="0" on="1"/>
        <pt x="166" y="0" on="1"/>
        <pt x="166" y="1013" on="1"/>
      </contour>
      <contour>
        <pt x="384" y="1331" on="1"/>
        <pt x="384" y="1305" on="0"/>
        <pt x="363" y="1260" on="0"/>
        <pt x="328" y="1225" on="0"/>
        <pt x="282" y="1205" on="0"/>
        <pt x="256" y="1205" on="1"/>
        <pt x="230" y="1205" on="0"/>
        <pt x="185" y="1225" on="0"/>
        <pt x="150" y="1260" on="0"/>
        <pt x="130" y="1305" on="0"/>
        <pt x="130" y="1331" on="1"/>
        <pt x="130" y="1357" on="0"/>
        <pt x="150" y="1404" on="0"/>
        <pt x="185" y="1439" on="0"/>
        <pt x="230" y="1459" on="0"/>
        <pt x="256" y="1459" on="1"/>
        <pt x="282" y="1459" on="0"/>
        <pt x="328" y="1439" on="0"/>
        <pt x="363" y="1404" on="0"/>
        <pt x="384" y="1357" on="0"/>
      </contour>
    </TTGlyph>
    <TTGlyph name="iacute" xMin="151" yMin="0" xMax="552" yMax="1449">
      <component glyphName="dotlessi" x="0" y="0" flags="0x204"/>
      <component glyphName="acute" x="-45" y="0" flags="0x4"/>
    </TTGlyph>
    <TTGlyph name="icircumflex" xMin="-46" yMin="0" xMax="566" yMax="1433">
      <component glyphName="dotlessi" x="0" y="0" flags="0x204"/>
      <component glyphName="circumflex" x="-46" y="0" flags="0x4"/>
    </TTGlyph>
    <TTGlyph name="idieresis" xMin="-31" yMin="0" xMax="553" yMax="1403">
      <component glyphName="dotlessi" x="0" y="0" flags="0x204"/>
      <component glyphName="dieresis" x="-45" y="0" flags="0x4"/>
    </TTGlyph>
    <TTGlyph name="igrave" xMin="-7" yMin="0" xMax="390" yMax="1449">
      <component glyphName="dotlessi" x="0" y="0" flags="0x204"/>
      <component glyphName="grave" x="-45" y="0" flags="0x4"/>
    </TTGlyph>
    <TTGlyph name="infinity" xMin="58" yMin="254" xMax="1312" yMax="928">
      <contour>
        <pt x="1002" y="254" on="1"/>
        <pt x="946" y="254" on="0"/>
        <pt x="855" y="288" on="0"/>
        <pt x="778" y="347" on="0"/>
        <pt x="713" y="423" on="0"/>
        <pt x="685" y="465" on="1"/>
        <pt x="656" y="423" on="0"/>
        <pt x="591" y="347" on="0"/>
        <pt x="515" y="288" on="0"/>
        <pt x="423" y="254" on="0"/>
        <pt x="368" y="254" on="1"/>
        <pt x="306" y="254" on="0"/>
        <pt x="193" y="302" on="0"/>
        <pt x="108" y="391" on="0"/>
        <pt x="58" y="515" on="0"/>
        <pt x="58" y="591" on="1"/>
        <pt x="58" y="667" on="0"/>
        <pt x="108" y="791" on="0"/>
        <pt x="193" y="879" on="0"/>
        <pt x="306" y="928" on="0"/>
        <pt x="368" y="928" on="1"/>
        <pt x="423" y="928" on="0"/>
        <pt x="515" y="894" on="0"/>
        <pt x="591" y="835" on="0"/>
        <pt x="656" y="759" on="0"/>
        <pt x="685" y="717" on="1"/>
        <pt x="713" y="759" on="0"/>
        <pt x="778" y="835" on="0"/>
        <pt x="855" y="894" on="0"/>
        <pt x="946" y="928" on="0"/>
        <pt x="1002" y="928" on="1"/>
        <pt x="1064" y="928" on="0"/>
        <pt x="1176" y="879" on="0"/>
        <pt x="1262" y="791" on="0"/>
        <pt x="1312" y="667" on="0"/>
        <pt x="1312" y="591" on="1"/>
        <pt x="1312" y="515" on="0"/>
        <pt x="1262" y="391" on="0"/>
        <pt x="1176" y="302" on="0"/>
        <pt x="1064" y="254" on="0"/>
      </contour>
      <contour>
        <pt x="375" y="400" on="1"/>
        <pt x="411" y="400" on="0"/>
        <pt x="473" y="430" on="0"/>
        <pt x="528" y="483" on="0"/>
        <pt x="578" y="552" on="0"/>
        <pt x="603" y="591" on="1"/>
        <pt x="578" y="630" on="0"/>
        <pt x="528" y="699" on="0"/>
        <pt x="473" y="751" on="0"/>
        <pt x="411" y="782" on="0"/>
        <pt x="375" y="782" on="1"/>
        <pt x="339" y="782" on="0"/>
        <pt x="276" y="758" on="0"/>
        <pt x="228" y="711" on="0"/>
        <pt x="200" y="639" on="0"/>
        <pt x="200" y="591" on="1"/>
        <pt x="200" y="543" on="0"/>
        <pt x="228" y="471" on="0"/>
        <pt x="276" y="424" on="0"/>
        <pt x="339" y="400" on="0"/>
      </contour>
      <contour>
        <pt x="995" y="400" on="1"/>
        <pt x="1031" y="400" on="0"/>
        <pt x="1094" y="424" on="0"/>
        <pt x="1141" y="471" on="0"/>
        <pt x="1169" y="543" on="0"/>
        <pt x="1169" y="591" on="1"/>
        <pt x="1169" y="639" on="0"/>
        <pt x="1141" y="711" on="0"/>
        <pt x="1094" y="758" on="0"/>
        <pt x="1031" y="782" on="0"/>
        <pt x="995" y="782" on="1"/>
        <pt x="959" y="782" on="0"/>
        <pt x="897" y="751" on="0"/>
        <pt x="841" y="699" on="0"/>
        <pt x="791" y="630" on="0"/>
        <pt x="766" y="591" on="1"/>
        <pt x="791" y="552" on="0"/>
        <pt x="841" y="483" on="0"/>
        <pt x="897" y="430" on="0"/>
        <pt x="959" y="400" on="0"/>
      </contour>
    </TTGlyph>
    <TTGlyph name="integral" xMin="-106" yMin="-350" xMax="860" yMax="1449">
      <contour>
        <pt x="374" y="1091" on="1"/>
        <pt x="395" y="1265" on="0"/>
        <pt x="575" y="1449" on="0"/>
        <pt x="721" y="1449" on="1"/>
        <pt x="759" y="1449" on="0"/>
        <pt x="828" y="1435" on="0"/>
        <pt x="860" y="1419" on="1"/>
        <pt x="852" y="1333" on="1"/>
        <pt x="850" y="1324" on="0"/>
        <pt x="842" y="1310" on="0"/>
        <pt x="824" y="1300" on="0"/>
        <pt x="794" y="1295" on="0"/>
        <pt x="770" y="1295" on="1"/>
        <pt x="670" y="1295" on="0"/>
        <pt x="559" y="1186" on="0"/>
        <pt x="544" y="1068" on="1"/>
        <pt x="414" y="38" on="1"/>
        <pt x="401" y="-64" on="0"/>
        <pt x="336" y="-210" on="0"/>
        <pt x="237" y="-305" on="0"/>
        <pt x="108" y="-350" on="0"/>
        <pt x="33" y="-350" on="1"/>
        <pt x="-2" y="-350" on="0"/>
        <pt x="-76" y="-337" on="0"/>
        <pt x="-106" y="-321" on="1"/>
        <pt x="-96" y="-245" on="1"/>
        <pt x="-93" y="-233" on="0"/>
        <pt x="-84" y="-220" on="0"/>
        <pt x="-64" y="-214" on="0"/>
        <pt x="-32" y="-213" on="0"/>
        <pt x="-7" y="-213" on="1"/>
        <pt x="51" y="-213" on="0"/>
        <pt x="138" y="-186" on="0"/>
        <pt x="199" y="-127" on="0"/>
        <pt x="236" y="-34" on="0"/>
        <pt x="244" y="32" on="1"/>
      </contour>
    </TTGlyph>
    <TTGlyph name="j" xMin="-56" yMin="-364" xMax="384" yMax="1459">
      <contour>
        <pt x="344" y="1013" on="1"/>
        <pt x="344" y="-75" on="1"/>
        <pt x="344" y="-136" on="0"/>
        <pt x="312" y="-241" on="0"/>
        <pt x="243" y="-319" on="0"/>
        <pt x="134" y="-364" on="0"/>
        <pt x="58" y="-364" on="1"/>
        <pt x="25" y="-364" on="0"/>
        <pt x="-29" y="-354" on="0"/>
        <pt x="-56" y="-344" on="1"/>
        <pt x="-48" y="-248" on="1"/>
        <pt x="-46" y="-235" on="0"/>
        <pt x="-32" y="-228" on="0"/>
        <pt x="-17" y="-228" on="1"/>
        <pt x="-9" y="-228" on="0"/>
        <pt x="9" y="-229" on="0"/>
        <pt x="22" y="-229" on="1"/>
        <pt x="100" y="-229" on="0"/>
        <pt x="166" y="-156" on="0"/>
        <pt x="166" y="-75" on="1"/>
        <pt x="166" y="1013" on="1"/>
      </contour>
      <contour>
        <pt x="384" y="1331" on="1"/>
        <pt x="384" y="1305" on="0"/>
        <pt x="363" y="1260" on="0"/>
        <pt x="328" y="1225" on="0"/>
        <pt x="282" y="1205" on="0"/>
        <pt x="256" y="1205" on="1"/>
        <pt x="230" y="1205" on="0"/>
        <pt x="185" y="1225" on="0"/>
        <pt x="150" y="1260" on="0"/>
        <pt x="130" y="1305" on="0"/>
        <pt x="130" y="1331" on="1"/>
        <pt x="130" y="1357" on="0"/>
        <pt x="150" y="1404" on="0"/>
        <pt x="185" y="1439" on="0"/>
        <pt x="230" y="1459" on="0"/>
        <pt x="256" y="1459" on="1"/>
        <pt x="282" y="1459" on="0"/>
        <pt x="328" y="1439" on="0"/>
        <pt x="363" y="1404" on="0"/>
        <pt x="384" y="1357" on="0"/>
      </contour>
    </TTGlyph>
    <TTGlyph name="k" xMin="152" yMin="0" xMax="1016" yMax="1473">
      <contour>
        <pt x="331" y="1473" on="1"/>
        <pt x="331" y="606" on="1"/>
        <pt x="377" y="606" on="1"/>
        <pt x="397" y="606" on="0"/>
        <pt x="423" y="617" on="0"/>
        <pt x="439" y="634" on="1"/>
        <pt x="759" y="977" on="1"/>
        <pt x="774" y="993" on="0"/>
        <pt x="804" y="1013" on="0"/>
        <pt x="829" y="1013" on="1"/>
        <pt x="991" y="1013" on="1"/>
        <pt x="618" y="616" on="1"/>
        <pt x="604" y="599" on="0"/>
        <pt x="577" y="573" on="0"/>
        <pt x="560" y="563" on="1"/>
        <pt x="578" y="551" on="0"/>
        <pt x="607" y="520" on="0"/>
        <pt x="620" y="500" on="1"/>
        <pt x="1016" y="0" on="1"/>
        <pt x="856" y="0" on="1"/>
        <pt x="834" y="0" on="0"/>
        <pt x="803" y="17" on="0"/>
        <pt x="789" y="35" on="1"/>
        <pt x="456" y="450" on="1"/>
        <pt x="441" y="471" on="0"/>
        <pt x="411" y="484" on="0"/>
        <pt x="381" y="484" on="1"/>
        <pt x="331" y="484" on="1"/>
        <pt x="331" y="0" on="1"/>
        <pt x="152" y="0" on="1"/>
        <pt x="152" y="1473" on="1"/>
      </contour>
    </TTGlyph>
    <TTGlyph name="l" xMin="166" yMin="0" xMax="344" yMax="1473">
      <contour>
        <pt x="344" y="1473" on="1"/>
        <pt x="344" y="0" on="1"/>
        <pt x="166" y="0" on="1"/>
        <pt x="166" y="1473" on="1"/>
      </contour>
    </TTGlyph>
    <TTGlyph name="less" xMin="148" yMin="234" xMax="922" yMax="1111">
      <contour>
        <pt x="148" y="710" on="1"/>
        <pt x="922" y="1111" on="1"/>
        <pt x="922" y="984" on="1"/>
        <pt x="922" y="967" on="0"/>
        <pt x="906" y="942" on="0"/>
        <pt x="886" y="932" on="1"/>
        <pt x="437" y="704" on="1"/>
        <pt x="417" y="693" on="0"/>
        <pt x="372" y="678" on="0"/>
        <pt x="347" y="672" on="1"/>
        <pt x="372" y="667" on="0"/>
        <pt x="417" y="651" on="0"/>
        <pt x="437" y="641" on="1"/>
        <pt x="886" y="414" on="1"/>
        <pt x="906" y="404" on="0"/>
        <pt x="922" y="378" on="0"/>
        <pt x="922" y="362" on="1"/>
        <pt x="922" y="234" on="1"/>
        <pt x="148" y="636" on="1"/>
      </contour>
    </TTGlyph>
    <TTGlyph name="lessequal" xMin="148" yMin="80" xMax="922" yMax="1168">
      <contour>
        <pt x="148" y="791" on="1"/>
        <pt x="922" y="1168" on="1"/>
        <pt x="922" y="1046" on="1"/>
        <pt x="922" y="1030" on="0"/>
        <pt x="904" y="1003" on="0"/>
        <pt x="878" y="991" on="1"/>
        <pt x="437" y="784" on="1"/>
        <pt x="391" y="766" on="0"/>
        <pt x="340" y="754" on="1"/>
        <pt x="366" y="749" on="0"/>
        <pt x="416" y="734" on="0"/>
        <pt x="437" y="724" on="1"/>
        <pt x="878" y="515" on="1"/>
        <pt x="903" y="503" on="0"/>
        <pt x="922" y="476" on="0"/>
        <pt x="922" y="460" on="1"/>
        <pt x="922" y="338" on="1"/>
        <pt x="148" y="717" on="1"/>
      </contour>
      <contour>
        <pt x="148" y="215" on="1"/>
        <pt x="922" y="215" on="1"/>
        <pt x="922" y="80" on="1"/>
        <pt x="148" y="80" on="1"/>
      </contour>
    </TTGlyph>
    <TTGlyph name="logicalnot" xMin="148" yMin="315" xMax="1008" yMax="739">
      <contour>
        <pt x="148" y="739" on="1"/>
        <pt x="1008" y="739" on="1"/>
        <pt x="1008" y="315" on="1"/>
        <pt x="857" y="315" on="1"/>
        <pt x="857" y="604" on="1"/>
        <pt x="148" y="604" on="1"/>
      </contour>
    </TTGlyph>
    <TTGlyph name="lozenge" xMin="128" yMin="-119" xMax="1032" yMax="1522">
      <contour>
        <pt x="128" y="701" on="1"/>
        <pt x="518" y="1522" on="1"/>
        <pt x="642" y="1522" on="1"/>
        <pt x="1032" y="701" on="1"/>
        <pt x="642" y="-119" on="1"/>
        <pt x="518" y="-119" on="1"/>
      </contour>
      <contour>
        <pt x="276" y="701" on="1"/>
        <pt x="552" y="120" on="1"/>
        <pt x="560" y="97" on="0"/>
        <pt x="575" y="59" on="0"/>
        <pt x="580" y="41" on="1"/>
        <pt x="585" y="59" on="0"/>
        <pt x="599" y="97" on="0"/>
        <pt x="608" y="120" on="1"/>
        <pt x="888" y="701" on="1"/>
        <pt x="608" y="1283" on="1"/>
        <pt x="590" y="1326" on="0"/>
        <pt x="580" y="1361" on="1"/>
        <pt x="575" y="1343" on="0"/>
        <pt x="560" y="1305" on="0"/>
        <pt x="552" y="1283" on="1"/>
      </contour>
    </TTGlyph>
    <TTGlyph name="lslash" xMin="54" yMin="0" xMax="587" yMax="1473">
      <contour>
        <pt x="409" y="1473" on="1"/>
        <pt x="409" y="899" on="1"/>
        <pt x="587" y="976" on="1"/>
        <pt x="587" y="874" on="1"/>
        <pt x="587" y="858" on="0"/>
        <pt x="575" y="837" on="0"/>
        <pt x="560" y="830" on="1"/>
        <pt x="409" y="763" on="1"/>
        <pt x="409" y="0" on="1"/>
        <pt x="231" y="0" on="1"/>
        <pt x="231" y="697" on="1"/>
        <pt x="54" y="621" on="1"/>
        <pt x="54" y="726" on="1"/>
        <pt x="54" y="755" on="0"/>
        <pt x="79" y="766" on="1"/>
        <pt x="231" y="834" on="1"/>
        <pt x="231" y="1473" on="1"/>
      </contour>
    </TTGlyph>
    <TTGlyph name="m" xMin="146" yMin="0" xMax="1519" yMax="1029">
      <contour>
        <pt x="146" y="0" on="1"/>
        <pt x="146" y="1013" on="1"/>
        <pt x="252" y="1013" on="1"/>
        <pt x="290" y="1013" on="0"/>
        <pt x="300" y="976" on="1"/>
        <pt x="313" y="872" on="1"/>
        <pt x="369" y="941" on="0"/>
        <pt x="508" y="1029" on="0"/>
        <pt x="600" y="1029" on="1"/>
        <pt x="703" y="1029" on="0"/>
        <pt x="830" y="915" on="0"/>
        <pt x="858" y="818" on="1"/>
        <pt x="879" y="873" on="0"/>
        <pt x="948" y="953" on="0"/>
        <pt x="1034" y="1005" on="0"/>
        <pt x="1131" y="1029" on="0"/>
        <pt x="1181" y="1029" on="1"/>
        <pt x="1261" y="1029" on="0"/>
        <pt x="1386" y="978" on="0"/>
        <pt x="1473" y="880" on="0"/>
        <pt x="1519" y="737" on="0"/>
        <pt x="1519" y="645" on="1"/>
        <pt x="1519" y="0" on="1"/>
        <pt x="1341" y="0" on="1"/>
        <pt x="1341" y="645" on="1"/>
        <pt x="1341" y="764" on="0"/>
        <pt x="1237" y="887" on="0"/>
        <pt x="1138" y="887" on="1"/>
        <pt x="1094" y="887" on="0"/>
        <pt x="1015" y="856" on="0"/>
        <pt x="955" y="796" on="0"/>
        <pt x="920" y="705" on="0"/>
        <pt x="920" y="645" on="1"/>
        <pt x="920" y="0" on="1"/>
        <pt x="742" y="0" on="1"/>
        <pt x="742" y="645" on="1"/>
        <pt x="742" y="767" on="0"/>
        <pt x="644" y="887" on="0"/>
        <pt x="550" y="887" on="1"/>
        <pt x="484" y="887" on="0"/>
        <pt x="371" y="816" on="0"/>
        <pt x="324" y="755" on="1"/>
        <pt x="324" y="0" on="1"/>
      </contour>
    </TTGlyph>
    <TTGlyph name="macron" xMin="20" yMin="1231" xMax="594" yMax="1348">
      <contour>
        <pt x="20" y="1348" on="1"/>
        <pt x="594" y="1348" on="1"/>
        <pt x="594" y="1231" on="1"/>
        <pt x="20" y="1231" on="1"/>
      </contour>
    </TTGlyph>
    <TTGlyph name="macron.case" xMin="68" yMin="1575" xMax="546" yMax="1681">
      <contour>
        <pt x="68" y="1681" on="1"/>
        <pt x="546" y="1681" on="1"/>
        <pt x="546" y="1575" on="1"/>
        <pt x="68" y="1575" on="1"/>
      </contour>
    </TTGlyph>
    <TTGlyph name="minus" xMin="148" yMin="604" xMax="1008" yMax="739">
      <contour>
        <pt x="148" y="739" on="1"/>
        <pt x="1008" y="739" on="1"/>
        <pt x="1008" y="604" on="1"/>
        <pt x="148" y="604" on="1"/>
      </contour>
    </TTGlyph>
    <TTGlyph name="mu" xMin="122" yMin="-343" xMax="965" yMax="1013">
      <contour>
        <pt x="300" y="1013" on="1"/>
        <pt x="300" y="355" on="1"/>
        <pt x="300" y="246" on="0"/>
        <pt x="408" y="126" on="0"/>
        <pt x="513" y="126" on="1"/>
        <pt x="591" y="126" on="0"/>
        <pt x="729" y="200" on="0"/>
        <pt x="787" y="266" on="1"/>
        <pt x="787" y="1013" on="1"/>
        <pt x="965" y="1013" on="1"/>
        <pt x="965" y="0" on="1"/>
        <pt x="859" y="0" on="1"/>
        <pt x="821" y="0" on="0"/>
        <pt x="811" y="37" on="1"/>
        <pt x="797" y="146" on="1"/>
        <pt x="730" y="74" on="0"/>
        <pt x="589" y="6" on="0"/>
        <pt x="502" y="6" on="1"/>
        <pt x="428" y="6" on="0"/>
        <pt x="316" y="57" on="0"/>
        <pt x="277" y="103" on="1"/>
        <pt x="284" y="61" on="0"/>
        <pt x="290" y="-26" on="0"/>
        <pt x="290" y="-64" on="1"/>
        <pt x="290" y="-343" on="1"/>
        <pt x="201" y="-343" on="1"/>
        <pt x="163" y="-343" on="0"/>
        <pt x="122" y="-303" on="0"/>
        <pt x="122" y="-267" on="1"/>
        <pt x="122" y="1013" on="1"/>
      </contour>
    </TTGlyph>
    <TTGlyph name="multiply" xMin="126" yMin="219" xMax="1027" yMax="1112">
      <contour>
        <pt x="1017" y="1014" on="1"/>
        <pt x="673" y="670" on="1"/>
        <pt x="1027" y="317" on="1"/>
        <pt x="932" y="221" on="1"/>
        <pt x="578" y="575" on="1"/>
        <pt x="221" y="219" on="1"/>
        <pt x="126" y="315" on="1"/>
        <pt x="482" y="671" on="1"/>
        <pt x="137" y="1016" on="1"/>
        <pt x="232" y="1112" on="1"/>
        <pt x="577" y="766" on="1"/>
        <pt x="921" y="1110" on="1"/>
      </contour>
    </TTGlyph>
    <TTGlyph name="n" xMin="146" yMin="0" xMax="989" yMax="1029">
      <contour>
        <pt x="146" y="0" on="1"/>
        <pt x="146" y="1013" on="1"/>
        <pt x="252" y="1013" on="1"/>
        <pt x="290" y="1013" on="0"/>
        <pt x="300" y="976" on="1"/>
        <pt x="314" y="866" on="1"/>
        <pt x="380" y="939" on="0"/>
        <pt x="543" y="1029" on="0"/>
        <pt x="650" y="1029" on="1"/>
        <pt x="733" y="1029" on="0"/>
        <pt x="860" y="974" on="0"/>
        <pt x="945" y="873" on="0"/>
        <pt x="989" y="731" on="0"/>
        <pt x="989" y="645" on="1"/>
        <pt x="989" y="0" on="1"/>
        <pt x="811" y="0" on="1"/>
        <pt x="811" y="645" on="1"/>
        <pt x="811" y="760" on="0"/>
        <pt x="706" y="887" on="0"/>
        <pt x="598" y="887" on="1"/>
        <pt x="519" y="887" on="0"/>
        <pt x="382" y="811" on="0"/>
        <pt x="324" y="746" on="1"/>
        <pt x="324" y="0" on="1"/>
      </contour>
    </TTGlyph>
    <TTGlyph name="nacute" xMin="146" yMin="0" xMax="989" yMax="1449">
      <component glyphName="n" x="0" y="0" flags="0x204"/>
      <component glyphName="acute" x="262" y="0" flags="0x4"/>
    </TTGlyph>
    <TTGlyph name="nine" xMin="148" yMin="0" xMax="1078" yMax="1449">
      <contour>
        <pt x="549" y="588" on="1"/>
        <pt x="468" y="588" on="0"/>
        <pt x="323" y="642" on="0"/>
        <pt x="213" y="747" on="0"/>
        <pt x="148" y="900" on="0"/>
        <pt x="148" y="999" on="1"/>
        <pt x="148" y="1093" on="0"/>
        <pt x="218" y="1257" on="0"/>
        <pt x="344" y="1379" on="0"/>
        <pt x="518" y="1449" on="0"/>
        <pt x="622" y="1449" on="1"/>
        <pt x="725" y="1449" on="0"/>
        <pt x="893" y="1381" on="0"/>
        <pt x="1013" y="1259" on="0"/>
        <pt x="1078" y="1089" on="0"/>
        <pt x="1078" y="986" on="1"/>
        <pt x="1078" y="924" on="0"/>
        <pt x="1055" y="813" on="0"/>
        <pt x="1011" y="707" on="0"/>
        <pt x="950" y="602" on="0"/>
        <pt x="911" y="546" on="1"/>
        <pt x="562" y="42" on="1"/>
        <pt x="549" y="23" on="0"/>
        <pt x="501" y="0" on="0"/>
        <pt x="470" y="0" on="1"/>
        <pt x="306" y="0" on="1"/>
        <pt x="742" y="571" on="1"/>
        <pt x="764" y="600" on="0"/>
        <pt x="802" y="652" on="0"/>
        <pt x="819" y="678" on="1"/>
        <pt x="764" y="634" on="0"/>
        <pt x="626" y="588" on="0"/>
      </contour>
      <contour>
        <pt x="907" y="1007" on="1"/>
        <pt x="907" y="1074" on="0"/>
        <pt x="864" y="1183" on="0"/>
        <pt x="788" y="1259" on="0"/>
        <pt x="683" y="1300" on="0"/>
        <pt x="620" y="1300" on="1"/>
        <pt x="554" y="1300" on="0"/>
        <pt x="445" y="1257" on="0"/>
        <pt x="368" y="1181" on="0"/>
        <pt x="326" y="1075" on="0"/>
        <pt x="326" y="1012" on="1"/>
        <pt x="326" y="944" on="0"/>
        <pt x="365" y="837" on="0"/>
        <pt x="438" y="763" on="0"/>
        <pt x="543" y="725" on="0"/>
        <pt x="608" y="725" on="1"/>
        <pt x="680" y="725" on="0"/>
        <pt x="791" y="772" on="0"/>
        <pt x="867" y="850" on="0"/>
        <pt x="907" y="952" on="0"/>
      </contour>
    </TTGlyph>
</ttFont>
